<svg width="1445" height="2786" viewBox="0 0 1445 2786" fill="none" xmlns="http://www.w3.org/2000/svg">
<rect width="1445" height="2786" fill="#E5E5E5"/>
<rect width="1444.67" height="2784.99" fill="#31302F"/>
<path d="M0.000244228 2590.37C0.000244228 2555.03 28.654 2526.37 64.0002 2526.37H1380.67C1416.01 2526.37 1444.67 2555.03 1444.67 2590.37V2785.21H0.000244228L0.000244228 2590.37Z" fill="#97C9BD"/>
<path d="M73.4465 2747.86C68.7745 2747.86 64.5505 2747.06 60.7745 2745.46C57.0625 2743.86 54.1185 2741.56 51.9425 2738.55C49.7665 2735.54 48.6465 2731.99 48.5825 2727.89H62.9825C63.1745 2730.64 64.1345 2732.82 65.8625 2734.42C67.6545 2736.02 70.0865 2736.82 73.1585 2736.82C76.2945 2736.82 78.7585 2736.08 80.5505 2734.61C82.3425 2733.08 83.2385 2731.09 83.2385 2728.66C83.2385 2726.68 82.6305 2725.04 81.4145 2723.76C80.1985 2722.48 78.6625 2721.49 76.8065 2720.79C75.0145 2720.02 72.5185 2719.19 69.3185 2718.29C64.9665 2717.01 61.4145 2715.76 58.6625 2714.55C55.9745 2713.27 53.6385 2711.38 51.6545 2708.88C49.7345 2706.32 48.7745 2702.93 48.7745 2698.71C48.7745 2694.74 49.7665 2691.28 51.7505 2688.34C53.7345 2685.4 56.5185 2683.16 60.1025 2681.62C63.6865 2680.02 67.7825 2679.22 72.3905 2679.22C79.3025 2679.22 84.9025 2680.92 89.1905 2684.31C93.5425 2687.64 95.9425 2692.31 96.3905 2698.32H81.6065C81.4785 2696.02 80.4865 2694.13 78.6305 2692.66C76.8385 2691.12 74.4385 2690.36 71.4305 2690.36C68.8065 2690.36 66.6945 2691.03 65.0945 2692.37C63.5585 2693.72 62.7905 2695.67 62.7905 2698.23C62.7905 2700.02 63.3665 2701.52 64.5185 2702.74C65.7345 2703.89 67.2065 2704.85 68.9345 2705.62C70.7265 2706.32 73.2225 2707.16 76.4225 2708.12C80.7745 2709.4 84.3265 2710.68 87.0785 2711.96C89.8305 2713.24 92.1985 2715.16 94.1825 2717.72C96.1665 2720.28 97.1585 2723.64 97.1585 2727.8C97.1585 2731.38 96.2305 2734.71 94.3745 2737.78C92.5185 2740.85 89.7985 2743.32 86.2145 2745.17C82.6305 2746.96 78.3745 2747.86 73.4465 2747.86ZM158.25 2719.44C158.25 2721.36 158.122 2723.09 157.866 2724.63H118.986C119.306 2728.47 120.65 2731.48 123.018 2733.65C125.386 2735.83 128.298 2736.92 131.754 2736.92C136.746 2736.92 140.298 2734.77 142.41 2730.48H156.906C155.37 2735.6 152.426 2739.83 148.074 2743.16C143.722 2746.42 138.378 2748.05 132.042 2748.05C126.922 2748.05 122.314 2746.93 118.218 2744.69C114.186 2742.39 111.018 2739.16 108.714 2735C106.474 2730.84 105.354 2726.04 105.354 2720.6C105.354 2715.09 106.474 2710.26 108.714 2706.1C110.954 2701.94 114.09 2698.74 118.122 2696.5C122.154 2694.26 126.794 2693.14 132.042 2693.14C137.098 2693.14 141.61 2694.23 145.578 2696.4C149.61 2698.58 152.714 2701.68 154.89 2705.72C157.13 2709.68 158.25 2714.26 158.25 2719.44ZM144.33 2715.6C144.266 2712.15 143.018 2709.4 140.586 2707.35C138.154 2705.24 135.178 2704.18 131.658 2704.18C128.33 2704.18 125.514 2705.2 123.21 2707.25C120.97 2709.24 119.594 2712.02 119.082 2715.6H144.33ZM183.708 2705.04V2730.77C183.708 2732.56 184.124 2733.88 184.956 2734.71C185.852 2735.48 187.324 2735.86 189.372 2735.86H195.612V2747.19H187.164C175.836 2747.19 170.172 2741.68 170.172 2730.68V2705.04H163.836V2694H170.172V2680.85H183.708V2694H195.612V2705.04H183.708ZM241.594 2680.18V2747.19H228.154V2680.18H241.594ZM284.345 2693.24C290.681 2693.24 295.801 2695.25 299.705 2699.28C303.609 2703.25 305.561 2708.82 305.561 2715.99V2747.19H292.121V2717.81C292.121 2713.59 291.065 2710.36 288.953 2708.12C286.841 2705.81 283.961 2704.66 280.313 2704.66C276.601 2704.66 273.657 2705.81 271.481 2708.12C269.369 2710.36 268.313 2713.59 268.313 2717.81V2747.19H254.873V2694H268.313V2700.63C270.105 2698.32 272.377 2696.53 275.129 2695.25C277.945 2693.91 281.017 2693.24 284.345 2693.24ZM333.99 2705.04V2730.77C333.99 2732.56 334.406 2733.88 335.238 2734.71C336.134 2735.48 337.606 2735.86 339.654 2735.86H345.894V2747.19H337.446C326.118 2747.19 320.454 2741.68 320.454 2730.68V2705.04H314.118V2694H320.454V2680.85H333.99V2694H345.894V2705.04H333.99ZM405.001 2719.44C405.001 2721.36 404.873 2723.09 404.617 2724.63H365.737C366.057 2728.47 367.401 2731.48 369.769 2733.65C372.137 2735.83 375.049 2736.92 378.505 2736.92C383.497 2736.92 387.049 2734.77 389.161 2730.48H403.657C402.121 2735.6 399.177 2739.83 394.825 2743.16C390.473 2746.42 385.129 2748.05 378.793 2748.05C373.673 2748.05 369.065 2746.93 364.969 2744.69C360.937 2742.39 357.769 2739.16 355.465 2735C353.224 2730.84 352.104 2726.04 352.104 2720.6C352.104 2715.09 353.224 2710.26 355.465 2706.1C357.705 2701.94 360.841 2698.74 364.873 2696.5C368.905 2694.26 373.545 2693.14 378.793 2693.14C383.849 2693.14 388.361 2694.23 392.329 2696.4C396.361 2698.58 399.465 2701.68 401.641 2705.72C403.881 2709.68 405.001 2714.26 405.001 2719.44ZM391.081 2715.6C391.017 2712.15 389.769 2709.4 387.337 2707.35C384.905 2705.24 381.929 2704.18 378.409 2704.18C375.081 2704.18 372.265 2705.2 369.961 2707.25C367.721 2709.24 366.345 2712.02 365.833 2715.6H391.081ZM428.251 2702.26C429.979 2699.44 432.219 2697.24 434.971 2695.64C437.787 2694.04 440.987 2693.24 444.571 2693.24V2707.35H441.019C436.795 2707.35 433.595 2708.34 431.419 2710.32C429.307 2712.31 428.251 2715.76 428.251 2720.69V2747.19H414.811V2694H428.251V2702.26ZM475.799 2734.8L489.239 2694H503.543L483.863 2747.19H467.543L447.959 2694H462.359L475.799 2734.8ZM507.636 2720.4C507.636 2715.03 508.692 2710.26 510.804 2706.1C512.98 2701.94 515.892 2698.74 519.54 2696.5C523.252 2694.26 527.38 2693.14 531.924 2693.14C535.892 2693.14 539.348 2693.94 542.292 2695.54C545.3 2697.14 547.7 2699.16 549.492 2701.59V2694H563.028V2747.19H549.492V2739.41C547.764 2741.91 545.364 2743.99 542.292 2745.65C539.284 2747.25 535.796 2748.05 531.828 2748.05C527.348 2748.05 523.252 2746.9 519.54 2744.6C515.892 2742.29 512.98 2739.06 510.804 2734.9C508.692 2730.68 507.636 2725.84 507.636 2720.4ZM549.492 2720.6C549.492 2717.33 548.852 2714.55 547.572 2712.24C546.292 2709.88 544.564 2708.08 542.388 2706.87C540.212 2705.59 537.876 2704.95 535.38 2704.95C532.884 2704.95 530.58 2705.56 528.468 2706.77C526.356 2707.99 524.628 2709.78 523.284 2712.15C522.004 2714.45 521.364 2717.2 521.364 2720.4C521.364 2723.6 522.004 2726.42 523.284 2728.85C524.628 2731.22 526.356 2733.04 528.468 2734.32C530.644 2735.6 532.948 2736.24 535.38 2736.24C537.876 2736.24 540.212 2735.64 542.388 2734.42C544.564 2733.14 546.292 2731.35 547.572 2729.04C548.852 2726.68 549.492 2723.86 549.492 2720.6ZM589.594 2676.15V2747.19H576.154V2676.15H589.594ZM671.348 2680.18V2691.03H653.492V2747.19H640.052V2691.03H622.196V2680.18H671.348ZM687.97 2687.67C685.602 2687.67 683.618 2686.93 682.018 2685.46C680.482 2683.92 679.714 2682.04 679.714 2679.8C679.714 2677.56 680.482 2675.7 682.018 2674.23C683.618 2672.69 685.602 2671.92 687.97 2671.92C690.338 2671.92 692.29 2672.69 693.826 2674.23C695.426 2675.7 696.226 2677.56 696.226 2679.8C696.226 2682.04 695.426 2683.92 693.826 2685.46C692.29 2686.93 690.338 2687.67 687.97 2687.67ZM694.594 2694V2747.19H681.154V2694H694.594ZM773.921 2693.24C780.449 2693.24 785.697 2695.25 789.665 2699.28C793.697 2703.25 795.713 2708.82 795.713 2715.99V2747.19H782.273V2717.81C782.273 2713.65 781.217 2710.48 779.105 2708.31C776.993 2706.07 774.113 2704.95 770.465 2704.95C766.817 2704.95 763.905 2706.07 761.729 2708.31C759.617 2710.48 758.561 2713.65 758.561 2717.81V2747.19H745.121V2717.81C745.121 2713.65 744.065 2710.48 741.953 2708.31C739.841 2706.07 736.961 2704.95 733.313 2704.95C729.601 2704.95 726.657 2706.07 724.481 2708.31C722.369 2710.48 721.313 2713.65 721.313 2717.81V2747.19H707.873V2694H721.313V2700.44C723.041 2698.2 725.249 2696.44 727.937 2695.16C730.689 2693.88 733.697 2693.24 736.961 2693.24C741.121 2693.24 744.833 2694.13 748.097 2695.92C751.361 2697.65 753.889 2700.15 755.681 2703.41C757.409 2700.34 759.905 2697.88 763.169 2696.02C766.497 2694.16 770.081 2693.24 773.921 2693.24ZM857.907 2719.44C857.907 2721.36 857.779 2723.09 857.523 2724.63H818.643C818.963 2728.47 820.307 2731.48 822.675 2733.65C825.043 2735.83 827.955 2736.92 831.411 2736.92C836.403 2736.92 839.955 2734.77 842.067 2730.48H856.563C855.027 2735.6 852.083 2739.83 847.731 2743.16C843.379 2746.42 838.035 2748.05 831.699 2748.05C826.579 2748.05 821.971 2746.93 817.875 2744.69C813.843 2742.39 810.675 2739.16 808.371 2735C806.131 2730.84 805.011 2726.04 805.011 2720.6C805.011 2715.09 806.131 2710.26 808.371 2706.1C810.611 2701.94 813.747 2698.74 817.779 2696.5C821.811 2694.26 826.451 2693.14 831.699 2693.14C836.755 2693.14 841.267 2694.23 845.235 2696.4C849.267 2698.58 852.371 2701.68 854.547 2705.72C856.787 2709.68 857.907 2714.26 857.907 2719.44ZM843.987 2715.6C843.923 2712.15 842.675 2709.4 840.243 2707.35C837.811 2705.24 834.835 2704.18 831.315 2704.18C827.987 2704.18 825.171 2705.2 822.867 2707.25C820.627 2709.24 819.251 2712.02 818.739 2715.6H843.987ZM888.069 2748.05C883.717 2748.05 879.813 2747.28 876.357 2745.75C872.901 2744.15 870.149 2742 868.101 2739.32C866.117 2736.63 865.029 2733.65 864.837 2730.39H878.373C878.629 2732.44 879.621 2734.13 881.349 2735.48C883.141 2736.82 885.349 2737.49 887.973 2737.49C890.533 2737.49 892.517 2736.98 893.925 2735.96C895.397 2734.93 896.133 2733.62 896.133 2732.02C896.133 2730.29 895.237 2729.01 893.445 2728.18C891.717 2727.28 888.933 2726.32 885.093 2725.3C881.125 2724.34 877.861 2723.35 875.301 2722.32C872.805 2721.3 870.629 2719.73 868.773 2717.62C866.981 2715.51 866.085 2712.66 866.085 2709.08C866.085 2706.13 866.917 2703.44 868.581 2701.01C870.309 2698.58 872.741 2696.66 875.877 2695.25C879.077 2693.84 882.821 2693.14 887.109 2693.14C893.445 2693.14 898.501 2694.74 902.277 2697.94C906.053 2701.08 908.133 2705.33 908.517 2710.71H895.653C895.461 2708.6 894.565 2706.93 892.965 2705.72C891.429 2704.44 889.349 2703.8 886.725 2703.8C884.293 2703.8 882.405 2704.24 881.061 2705.14C879.781 2706.04 879.141 2707.28 879.141 2708.88C879.141 2710.68 880.037 2712.05 881.829 2713.01C883.621 2713.91 886.405 2714.84 890.181 2715.8C894.021 2716.76 897.189 2717.75 899.685 2718.77C902.181 2719.8 904.325 2721.4 906.117 2723.57C907.973 2725.68 908.933 2728.5 908.997 2732.02C908.997 2735.09 908.133 2737.84 906.405 2740.28C904.741 2742.71 902.309 2744.63 899.109 2746.04C895.973 2747.38 892.293 2748.05 888.069 2748.05Z" fill="black"/>
<path d="M592.915 2600.4C592.915 2592.33 599.453 2585.8 607.518 2585.8H836.144C844.21 2585.8 850.748 2592.33 850.748 2600.4C850.748 2608.46 844.21 2615 836.144 2615L607.518 2615C599.453 2615 592.915 2608.46 592.915 2600.4Z" fill="white"/>
<rect x="608.967" y="2041.81" width="225.729" height="225.729" rx="112.865" fill="#A5D38B"/>
<path d="M657.514 2331.06H657.76C660.958 2335.82 666.698 2338.52 672.192 2338.52C684.164 2338.52 692.036 2329.67 692.036 2318.35C692.036 2307.03 684.164 2298.18 672.192 2298.18C666.698 2298.18 660.958 2300.8 657.76 2305.8H657.514V2299.16H651.938V2357.22H657.514V2331.06ZM686.132 2318.35C686.132 2326.88 680.884 2333.77 671.618 2333.77C663.008 2333.77 656.858 2327.12 656.858 2318.35C656.858 2309.58 663.008 2302.85 671.618 2302.85C680.884 2302.85 686.132 2309.82 686.132 2318.35ZM709.729 2275.55H704.153V2337.54H709.729V2275.55ZM748.839 2314C734.817 2314 721.779 2315.07 721.779 2326.88C721.779 2335.41 729.241 2338.52 735.063 2338.52C741.213 2338.52 745.477 2336.39 749.003 2331.31H749.167C749.167 2333.36 749.413 2335.65 749.741 2337.54H754.743C754.333 2335.41 754.087 2331.88 754.087 2328.93V2312.12C754.087 2302.77 747.445 2298.18 739.163 2298.18C732.603 2298.18 727.191 2300.56 724.075 2303.67L727.191 2307.36C729.897 2304.66 734.079 2302.85 738.589 2302.85C745.231 2302.85 748.839 2306.13 748.839 2312.77V2314ZM748.839 2318.35V2321.22C748.839 2328.03 744.411 2333.93 736.539 2333.93C732.193 2333.93 727.519 2332.13 727.519 2326.63C727.519 2319.33 738.097 2318.35 747.199 2318.35H748.839ZM768.616 2299.16H762.384L778.784 2337.46L775.668 2345.49C774.028 2349.84 772.06 2352.3 768.288 2352.3C766.812 2352.3 765.418 2352.05 764.188 2351.64L763.614 2356.73C765.254 2357.05 766.976 2357.22 768.616 2357.22C775.258 2357.22 778.374 2353.36 780.67 2347.46L799.776 2299.16H793.708L781.818 2331.55H781.654L768.616 2299.16Z" fill="white"/>
<g clip-path="url(#clip0_229_35)">
<path d="M705.278 2127.09V2183.27L749.421 2155.18L705.278 2127.09Z" fill="black"/>
</g>
<path d="M122.197 545.383C119.737 541.037 114.079 538.495 108.749 538.495C101.779 538.495 95.0549 541.857 95.0549 549.647C95.0549 556.945 101.533 558.913 106.043 559.979C113.341 561.701 117.359 563.341 117.359 567.359C117.359 572.361 113.095 574.083 108.339 574.083C103.829 574.083 99.6469 571.459 97.6789 568.097L93.2509 571.377C96.7769 576.543 102.599 578.839 108.421 578.839C115.473 578.839 122.853 575.723 122.853 566.949C122.853 560.963 118.589 557.601 109.569 555.715C103.255 554.403 100.385 552.763 100.385 549.155C100.385 544.891 104.485 543.169 108.503 543.169C112.767 543.169 116.293 545.383 117.933 548.581L122.197 545.383ZM172.08 558.667C172.08 547.105 163.552 538.495 151.58 538.495C139.69 538.495 131.162 547.105 131.162 558.667C131.162 570.229 139.69 578.839 151.58 578.839C163.552 578.839 172.08 570.229 172.08 558.667ZM166.176 558.667C166.176 567.277 160.518 574.083 151.58 574.083C142.724 574.083 137.066 567.277 137.066 558.667C137.066 550.057 142.724 543.169 151.58 543.169C160.518 543.169 166.176 550.057 166.176 558.667ZM217.289 577.855C217.043 575.231 216.961 571.459 216.961 569.409V539.479H211.385V559.159C211.385 569.409 205.645 574.165 199.741 574.165C191.705 574.165 189.327 568.753 189.327 560.717V539.479H183.751V563.013C183.751 572.525 188.589 578.839 198.347 578.839C203.759 578.839 209.335 575.723 211.467 571.295H211.631C211.631 572.935 211.795 575.805 211.959 577.855H217.289ZM231.398 539.479C231.644 542.103 231.726 545.875 231.726 547.925V577.855H237.302V558.175C237.302 547.925 243.042 543.169 248.946 543.169C256.982 543.169 259.36 548.581 259.36 556.617V577.855H264.936V554.321C264.936 544.809 260.098 538.495 250.34 538.495C244.928 538.495 239.352 541.611 237.22 546.039H237.056C237.056 544.399 236.892 541.529 236.728 539.479H231.398ZM310.942 571.377H311.106V577.855H316.682V515.863H311.106V546.121H310.942C307.662 541.119 301.922 538.495 296.428 538.495C284.456 538.495 276.584 547.351 276.584 558.667C276.584 569.983 284.456 578.839 296.428 578.839C301.922 578.839 307.662 576.215 310.942 571.377ZM282.488 558.667C282.488 550.139 287.736 543.169 297.002 543.169C305.612 543.169 311.762 549.893 311.762 558.667C311.762 567.441 305.612 574.083 297.002 574.083C287.736 574.083 282.488 567.195 282.488 558.667Z" fill="white"/>
<path d="M107.669 458.217H96.8449V447.393H91.2689V458.217H83.3149V462.891H91.2689V486.835C91.2689 495.281 97.0089 497.085 101.109 497.085C103.651 497.085 105.701 496.675 107.669 495.937L107.423 491.099C105.947 491.837 104.143 492.329 102.585 492.329C99.2229 492.329 96.8449 491.017 96.8449 485.277V462.891H107.669V458.217ZM154.522 477.405C154.522 465.843 145.994 457.233 134.022 457.233C122.132 457.233 113.604 465.843 113.604 477.405C113.604 488.967 122.132 497.577 134.022 497.577C145.994 497.577 154.522 488.967 154.522 477.405ZM148.618 477.405C148.618 486.015 142.96 492.821 134.022 492.821C125.166 492.821 119.508 486.015 119.508 477.405C119.508 468.795 125.166 461.907 134.022 461.907C142.96 461.907 148.618 468.795 148.618 477.405ZM164.553 508.565C169.063 513.321 175.951 516.273 183.003 516.273C199.977 516.273 203.831 504.629 203.831 496.265V458.217H198.255V464.859H198.091C195.057 459.939 189.153 457.233 183.577 457.233C171.605 457.233 163.733 466.171 163.733 477.077C163.733 488.311 171.605 496.593 183.577 496.593C189.153 496.593 195.139 493.805 198.091 489.049H198.255V496.265C198.255 504.547 194.237 511.353 183.249 511.353C177.427 511.353 171.605 508.237 168.571 504.301L164.553 508.565ZM169.637 476.913C169.637 468.877 174.885 461.907 184.151 461.907C192.761 461.907 198.911 468.877 198.911 476.913C198.911 485.769 192.761 491.837 184.151 491.837C174.885 491.837 169.637 484.949 169.637 476.913ZM216.364 508.565C220.874 513.321 227.762 516.273 234.814 516.273C251.788 516.273 255.642 504.629 255.642 496.265V458.217H250.066V464.859H249.902C246.868 459.939 240.964 457.233 235.388 457.233C223.416 457.233 215.544 466.171 215.544 477.077C215.544 488.311 223.416 496.593 235.388 496.593C240.964 496.593 246.95 493.805 249.902 489.049H250.066V496.265C250.066 504.547 246.048 511.353 235.06 511.353C229.238 511.353 223.416 508.237 220.382 504.301L216.364 508.565ZM221.448 476.913C221.448 468.877 226.696 461.907 235.962 461.907C244.572 461.907 250.722 468.877 250.722 476.913C250.722 485.769 244.572 491.837 235.962 491.837C226.696 491.837 221.448 484.949 221.448 476.913ZM275.882 434.601H270.306V496.593H275.882V434.601ZM293.918 474.453C294.41 467.893 299.904 461.907 307.366 461.907C315.32 461.907 319.748 467.237 320.076 474.453H293.918ZM325.734 476.257C325.734 465.761 319.42 457.233 307.366 457.233C296.46 457.233 288.014 465.843 288.014 477.405C288.014 488.967 296.46 497.577 307.858 497.577C314.172 497.577 319.83 495.199 324.34 489.459L320.158 486.179C318.026 489.623 313.598 492.821 307.858 492.821C299.986 492.821 294 486.589 293.836 478.881H325.652C325.734 477.897 325.734 476.995 325.734 476.257Z" fill="white"/>
<rect x="94.3047" y="200.864" width="225.729" height="225.729" rx="112.865" fill="#97C9BD"/>
<path d="M170.551 301.188V325.266H186.603L206.667 345.33V281.123L186.603 301.188H170.551ZM224.726 313.227C224.726 306.124 220.632 300.024 214.693 297.054V329.359C220.632 326.429 224.726 320.33 224.726 313.227ZM214.693 278.033V286.3C226.291 289.751 234.758 300.506 234.758 313.227C234.758 325.948 226.291 336.702 214.693 340.154V348.42C230.785 344.769 242.784 330.402 242.784 313.227C242.784 296.051 230.785 281.685 214.693 278.033Z" fill="black"/>
<path d="M1148.65 466.663V496.593H1154.23V476.913C1154.23 466.663 1159.56 462.399 1165.46 462.399C1166.94 462.399 1168.74 462.645 1169.4 462.891L1170.14 457.643C1168.99 457.315 1167.84 457.233 1166.45 457.233C1161.04 457.233 1156.28 460.349 1154.15 464.777H1153.98C1153.98 463.137 1153.82 460.267 1153.66 458.217H1148.33C1148.57 460.841 1148.65 464.613 1148.65 466.663ZM1179.88 474.453C1180.37 467.893 1185.86 461.907 1193.33 461.907C1201.28 461.907 1205.71 467.237 1206.04 474.453H1179.88ZM1211.69 476.257C1211.69 465.761 1205.38 457.233 1193.33 457.233C1182.42 457.233 1173.97 465.843 1173.97 477.405C1173.97 488.967 1182.42 497.577 1193.82 497.577C1200.13 497.577 1205.79 495.199 1210.3 489.459L1206.12 486.179C1203.99 489.623 1199.56 492.821 1193.82 492.821C1185.95 492.821 1179.96 486.589 1179.8 478.881H1211.61C1211.69 477.897 1211.69 476.995 1211.69 476.257ZM1248.37 464.121C1245.91 459.775 1240.25 457.233 1234.92 457.233C1227.95 457.233 1221.23 460.595 1221.23 468.385C1221.23 475.683 1227.71 477.651 1232.22 478.717C1239.51 480.439 1243.53 482.079 1243.53 486.097C1243.53 491.099 1239.27 492.821 1234.51 492.821C1230 492.821 1225.82 490.197 1223.85 486.835L1219.42 490.115C1222.95 495.281 1228.77 497.577 1234.59 497.577C1241.65 497.577 1249.03 494.461 1249.03 485.687C1249.03 479.701 1244.76 476.339 1235.74 474.453C1229.43 473.141 1226.56 471.501 1226.56 467.893C1226.56 463.629 1230.66 461.907 1234.68 461.907C1238.94 461.907 1242.47 464.121 1244.11 467.319L1248.37 464.121ZM1263.24 474.453C1263.73 467.893 1269.22 461.907 1276.69 461.907C1284.64 461.907 1289.07 467.237 1289.4 474.453H1263.24ZM1295.05 476.257C1295.05 465.761 1288.74 457.233 1276.69 457.233C1265.78 457.233 1257.33 465.843 1257.33 477.405C1257.33 488.967 1265.78 497.577 1277.18 497.577C1283.49 497.577 1289.15 495.199 1293.66 489.459L1289.48 486.179C1287.35 489.623 1282.92 492.821 1277.18 492.821C1269.31 492.821 1263.32 486.589 1263.16 478.881H1294.97C1295.05 477.897 1295.05 476.995 1295.05 476.257ZM1324.35 458.217H1313.53V447.393H1307.95V458.217H1300V462.891H1307.95V486.835C1307.95 495.281 1313.69 497.085 1317.79 497.085C1320.33 497.085 1322.38 496.675 1324.35 495.937L1324.1 491.099C1322.63 491.837 1320.82 492.329 1319.27 492.329C1315.9 492.329 1313.53 491.017 1313.53 485.277V462.891H1324.35V458.217Z" fill="white"/>
<rect x="1120.62" y="200.864" width="225.729" height="225.729" rx="112.865" fill="#97C9BD"/>
<path d="M1259.49 287.719C1252.95 281.173 1243.96 277.11 1233.99 277.11C1214.03 277.11 1197.91 293.272 1197.91 313.227C1197.91 333.181 1214.03 349.343 1233.99 349.343C1250.83 349.343 1264.87 337.831 1268.88 322.256H1259.49C1255.79 332.775 1245.77 340.314 1233.99 340.314C1219.04 340.314 1206.9 328.17 1206.9 313.227C1206.9 298.283 1219.04 286.139 1233.99 286.139C1241.48 286.139 1248.16 289.254 1253.04 294.175L1238.5 308.712H1270.1V277.11L1259.49 287.719Z" fill="black"/>
<path d="M1113.89 1982.05C1099.29 1982.05 1094.86 1997.55 1094.86 2012.64C1094.86 2027.73 1099.29 2043.06 1113.89 2043.06C1128.32 2043.06 1132.91 2027.73 1132.91 2012.64C1132.91 1997.55 1128.32 1982.05 1113.89 1982.05ZM1113.89 1987.05C1124.06 1987.05 1126.93 2001.08 1126.93 2012.64C1126.93 2024.2 1124.06 2037.98 1113.89 2037.98C1103.56 2037.98 1100.85 2024.2 1100.85 2012.64C1100.85 2001.08 1103.56 1987.05 1113.89 1987.05ZM1173.43 1983.53H1165.72L1141.12 2021.82V2027.56H1167.69V2041.58H1173.43V2027.56H1181.95V2022.4H1173.43V1983.53ZM1167.69 2022.4H1147.27L1167.52 1990.17H1167.69V2022.4Z" fill="white"/>
<rect x="1008.25" y="1889.31" width="259.852" height="238.784" rx="14" stroke="#979797" stroke-width="4"/>
<rect x="1060.43" y="1857.21" width="125.405" height="65.2106" fill="#31302F"/>
<path d="M1073.45 1885.24V1904.22H1076.99V1891.74C1076.99 1885.24 1080.37 1882.54 1084.11 1882.54C1085.05 1882.54 1086.19 1882.7 1086.61 1882.85L1087.08 1879.52C1086.35 1879.32 1085.62 1879.26 1084.74 1879.26C1081.3 1879.26 1078.29 1881.24 1076.94 1884.05H1076.83C1076.83 1883.01 1076.73 1881.19 1076.62 1879.89H1073.24C1073.4 1881.55 1073.45 1883.94 1073.45 1885.24ZM1093.25 1890.18C1093.56 1886.02 1097.05 1882.23 1101.78 1882.23C1106.82 1882.23 1109.63 1885.61 1109.84 1890.18H1093.25ZM1113.43 1891.33C1113.43 1884.67 1109.42 1879.26 1101.78 1879.26C1094.86 1879.26 1089.51 1884.72 1089.51 1892.06C1089.51 1899.39 1094.86 1904.85 1102.09 1904.85C1106.1 1904.85 1109.68 1903.34 1112.54 1899.7L1109.89 1897.62C1108.54 1899.8 1105.73 1901.83 1102.09 1901.83C1097.1 1901.83 1093.3 1897.88 1093.2 1892.99H1113.38C1113.43 1892.37 1113.43 1891.8 1113.43 1891.33ZM1124.57 1900.12H1124.73C1126.75 1903.13 1130.39 1904.85 1133.88 1904.85C1141.47 1904.85 1146.46 1899.23 1146.46 1892.06C1146.46 1884.88 1141.47 1879.26 1133.88 1879.26C1130.39 1879.26 1126.75 1880.93 1124.73 1884.1H1124.57V1879.89H1121.03V1916.7H1124.57V1900.12ZM1142.72 1892.06C1142.72 1897.46 1139.39 1901.83 1133.51 1901.83C1128.05 1901.83 1124.15 1897.62 1124.15 1892.06C1124.15 1886.49 1128.05 1882.23 1133.51 1882.23C1139.39 1882.23 1142.72 1886.65 1142.72 1892.06ZM1169.69 1883.63C1168.13 1880.88 1164.55 1879.26 1161.17 1879.26C1156.75 1879.26 1152.48 1881.4 1152.48 1886.34C1152.48 1890.96 1156.59 1892.21 1159.45 1892.89C1164.08 1893.98 1166.63 1895.02 1166.63 1897.57C1166.63 1900.74 1163.92 1901.83 1160.91 1901.83C1158.05 1901.83 1155.39 1900.17 1154.15 1898.04L1151.34 1900.12C1153.57 1903.39 1157.27 1904.85 1160.96 1904.85C1165.43 1904.85 1170.11 1902.87 1170.11 1897.31C1170.11 1893.51 1167.41 1891.38 1161.69 1890.18C1157.68 1889.35 1155.86 1888.31 1155.86 1886.02C1155.86 1883.32 1158.46 1882.23 1161.01 1882.23C1163.71 1882.23 1165.95 1883.63 1166.99 1885.66L1169.69 1883.63Z" fill="white"/>
<g clip-path="url(#clip1_229_35)">
<path d="M1181.34 82.1005L1210.02 45.1524C1208.91 44.2854 1197.86 34.9528 1181.32 34.9528C1164.74 34.9528 1153.72 44.2854 1152.61 45.1524L1181.29 82.1005L1181.32 82.126L1181.34 82.1005Z" fill="#D7D7D7" fill-opacity="0.3"/>
</g>
<g clip-path="url(#clip2_229_35)">
<path d="M1340.12 40.8941C1340.12 39.0326 1338.64 37.5027 1336.84 37.5027H1332.72V32.4029H1322.86V37.5027H1318.74C1316.94 37.5027 1315.46 39.0326 1315.46 40.8941V55.352H1340.12V40.8941Z" fill="#D7D7D7" fill-opacity="0.3"/>
<path d="M1315.46 55.352V80.0096C1315.46 81.871 1316.94 83.401 1318.74 83.401H1336.82C1338.64 83.401 1340.12 81.871 1340.12 80.0096V55.352H1315.46Z" fill="white"/>
</g>
<g clip-path="url(#clip3_229_35)">
<path d="M1230.72 88.5008H1278.38V37.5027L1230.72 88.5008Z" fill="black"/>
</g>
<path d="M136.361 79.0535C136.361 81.1785 135.868 82.9676 134.884 84.4207C133.9 85.8738 132.556 86.9754 130.853 87.7254C129.165 88.4598 127.259 88.8269 125.134 88.8269C123.009 88.8269 121.095 88.4598 119.392 87.7254C117.689 86.9754 116.345 85.8738 115.361 84.4207C114.376 82.9676 113.884 81.1785 113.884 79.0535C113.884 77.6473 114.157 76.3738 114.704 75.2332C115.251 74.0769 116.025 73.0848 117.025 72.2566C118.04 71.4129 119.228 70.7644 120.587 70.3113C121.962 69.8582 123.462 69.6316 125.087 69.6316C127.243 69.6316 129.173 70.0301 130.876 70.8269C132.579 71.6238 133.915 72.7254 134.884 74.1316C135.868 75.5379 136.361 77.1785 136.361 79.0535ZM130.689 78.7723C130.689 77.6316 130.454 76.6316 129.986 75.7723C129.517 74.9129 128.861 74.2488 128.017 73.7801C127.173 73.3113 126.197 73.0769 125.087 73.0769C123.962 73.0769 122.986 73.3113 122.157 73.7801C121.329 74.2488 120.681 74.9129 120.212 75.7723C119.759 76.6316 119.532 77.6316 119.532 78.7723C119.532 79.9285 119.759 80.9285 120.212 81.7723C120.665 82.6004 121.314 83.2332 122.157 83.6707C123.001 84.1082 123.993 84.3269 125.134 84.3269C126.275 84.3269 127.259 84.1082 128.087 83.6707C128.915 83.2332 129.556 82.6004 130.009 81.7723C130.462 80.9285 130.689 79.9285 130.689 78.7723ZM135.587 63.2098C135.587 64.9129 135.134 66.4285 134.228 67.7566C133.337 69.0848 132.103 70.1316 130.525 70.8973C128.947 71.6473 127.15 72.0223 125.134 72.0223C123.103 72.0223 121.29 71.6473 119.697 70.8973C118.118 70.1316 116.876 69.0848 115.97 67.7566C115.079 66.4285 114.634 64.9129 114.634 63.2098C114.634 61.1785 115.079 59.4676 115.97 58.0769C116.876 56.6707 118.118 55.6004 119.697 54.866C121.275 54.1316 123.079 53.7644 125.111 53.7644C127.142 53.7644 128.947 54.1316 130.525 54.866C132.103 55.6004 133.337 56.6707 134.228 58.0769C135.134 59.4676 135.587 61.1785 135.587 63.2098ZM129.939 63.3973C129.939 62.3816 129.736 61.491 129.329 60.7254C128.939 59.9441 128.384 59.3348 127.665 58.8973C126.947 58.4598 126.095 58.241 125.111 58.241C124.126 58.241 123.275 58.4519 122.556 58.8738C121.837 59.2957 121.282 59.8894 120.892 60.6551C120.501 61.4207 120.306 62.3348 120.306 63.3973C120.306 64.4441 120.501 65.3582 120.892 66.1394C121.282 66.9051 121.837 67.5066 122.556 67.9441C123.29 68.3816 124.15 68.6004 125.134 68.6004C126.118 68.6004 126.97 68.3816 127.689 67.9441C128.407 67.5066 128.962 66.9051 129.353 66.1394C129.743 65.3582 129.939 64.4441 129.939 63.3973ZM141.728 85.5457C141.728 84.6707 142.025 83.9363 142.618 83.3426C143.212 82.7332 144.017 82.4285 145.032 82.4285C146.064 82.4285 146.868 82.7332 147.447 83.3426C148.04 83.9363 148.337 84.6707 148.337 85.5457C148.337 86.4207 148.04 87.1551 147.447 87.7488C146.868 88.3426 146.064 88.6394 145.032 88.6394C144.017 88.6394 143.212 88.3426 142.618 87.7488C142.025 87.1551 141.728 86.4207 141.728 85.5457ZM141.751 65.5769C141.751 64.7019 142.048 63.9676 142.642 63.3738C143.236 62.7644 144.04 62.4598 145.056 62.4598C146.087 62.4598 146.892 62.7644 147.47 63.3738C148.064 63.9676 148.361 64.7019 148.361 65.5769C148.361 66.4519 148.064 67.1863 147.47 67.7801C146.892 68.3738 146.087 68.6707 145.056 68.6707C144.04 68.6707 143.236 68.3738 142.642 67.7801C142.048 67.1863 141.751 66.4519 141.751 65.5769ZM176.861 83.8582V88.3582H153.986V84.491L165.095 72.3738C166.314 70.9988 167.275 69.8113 167.978 68.8113C168.681 67.8113 169.173 66.9129 169.454 66.116C169.751 65.3035 169.9 64.5144 169.9 63.7488C169.9 62.6707 169.697 61.7254 169.29 60.9129C168.9 60.0848 168.322 59.4363 167.556 58.9676C166.79 58.4832 165.861 58.241 164.767 58.241C163.501 58.241 162.439 58.5144 161.579 59.0613C160.72 59.6082 160.072 60.366 159.634 61.3348C159.197 62.2879 158.978 63.3816 158.978 64.616H153.329C153.329 62.6316 153.782 60.8191 154.689 59.1785C155.595 57.5223 156.907 56.2098 158.626 55.241C160.345 54.2566 162.415 53.7644 164.837 53.7644C167.118 53.7644 169.056 54.1473 170.65 54.9129C172.243 55.6785 173.454 56.7644 174.282 58.1707C175.126 59.5769 175.548 61.241 175.548 63.1629C175.548 64.2254 175.376 65.2801 175.032 66.3269C174.689 67.3738 174.197 68.4207 173.556 69.4676C172.931 70.4988 172.189 71.5379 171.329 72.5848C170.47 73.616 169.525 74.6629 168.493 75.7254L161.111 83.8582H176.861ZM187.9 68.741L191.275 68.741C192.587 68.741 193.673 68.5144 194.532 68.0613C195.407 67.6082 196.056 66.9832 196.478 66.1863C196.9 65.3894 197.111 64.4754 197.111 63.4441C197.111 62.366 196.915 61.4441 196.525 60.6785C196.15 59.8973 195.572 59.2957 194.79 58.8738C194.025 58.4519 193.048 58.241 191.861 58.241C190.861 58.241 189.954 58.4441 189.142 58.8504C188.345 59.241 187.712 59.8035 187.243 60.5379C186.775 61.2566 186.54 62.116 186.54 63.116H180.868C180.868 61.3035 181.345 59.6941 182.298 58.2879C183.251 56.8816 184.548 55.7801 186.189 54.9832C187.845 54.1707 189.704 53.7644 191.767 53.7644C193.97 53.7644 195.892 54.1316 197.532 54.866C199.189 55.5848 200.478 56.6629 201.4 58.1004C202.322 59.5379 202.782 61.3191 202.782 63.4441C202.782 64.4129 202.556 65.3973 202.103 66.3973C201.65 67.3973 200.978 68.3113 200.087 69.1394C199.197 69.9519 198.087 70.616 196.759 71.1316C195.431 71.6316 193.892 71.8816 192.142 71.8816L187.9 71.8816V68.741ZM187.9 73.1473V70.0535L192.142 70.0535C194.142 70.0535 195.845 70.2879 197.251 70.7566C198.673 71.2254 199.829 71.8738 200.72 72.7019C201.611 73.5144 202.259 74.4441 202.665 75.491C203.087 76.5379 203.298 77.6473 203.298 78.8191C203.298 80.4129 203.009 81.8348 202.431 83.0848C201.868 84.3191 201.064 85.366 200.017 86.2254C198.97 87.0848 197.743 87.7332 196.337 88.1707C194.947 88.6082 193.431 88.8269 191.79 88.8269C190.322 88.8269 188.915 88.6238 187.572 88.2176C186.228 87.8113 185.025 87.2098 183.962 86.4129C182.9 85.6004 182.056 84.5926 181.431 83.3894C180.822 82.1707 180.517 80.7644 180.517 79.1707H186.165C186.165 80.1863 186.4 81.0848 186.868 81.866C187.353 82.6316 188.025 83.2332 188.884 83.6707C189.759 84.1082 190.759 84.3269 191.884 84.3269C193.072 84.3269 194.095 84.116 194.954 83.6941C195.814 83.2723 196.47 82.6473 196.923 81.8191C197.392 80.991 197.626 79.991 197.626 78.8191C197.626 77.491 197.368 76.4129 196.853 75.5848C196.337 74.7566 195.603 74.1473 194.65 73.7566C193.697 73.3504 192.572 73.1473 191.275 73.1473L187.9 73.1473Z" fill="white"/>
<path d="M447.78 1224.14H464.795C473.131 1224.14 480.006 1222.77 485.42 1220.02C490.92 1217.18 495.002 1213.36 497.666 1208.55C500.416 1203.65 501.791 1198.15 501.791 1192.05C501.791 1184.83 500.588 1178.77 498.182 1173.87C495.776 1168.97 492.166 1165.28 487.354 1162.78C482.541 1160.29 476.44 1159.05 469.049 1159.05C462.346 1159.05 456.416 1160.38 451.26 1163.04C446.19 1165.62 442.194 1169.32 439.272 1174.13C436.436 1178.94 435.018 1184.61 435.018 1191.14H411.17C411.17 1181.6 413.577 1172.93 418.389 1165.1C423.202 1157.28 429.948 1151.05 438.627 1146.41C447.393 1141.77 457.534 1139.45 469.049 1139.45C480.393 1139.45 490.319 1141.47 498.827 1145.51C507.334 1149.46 513.952 1155.39 518.678 1163.3C523.405 1171.12 525.768 1180.87 525.768 1192.56C525.768 1197.29 524.651 1202.36 522.416 1207.77C520.268 1213.1 516.873 1218.09 512.233 1222.73C507.678 1227.37 501.748 1231.19 494.444 1234.2C487.139 1237.12 478.373 1238.58 468.147 1238.58H447.78V1224.14ZM447.78 1243.74V1229.43H468.147C480.092 1229.43 489.975 1230.85 497.795 1233.68C505.616 1236.52 511.76 1240.3 516.229 1245.03C520.784 1249.75 523.963 1254.95 525.768 1260.62C527.659 1266.21 528.604 1271.8 528.604 1277.38C528.604 1286.15 527.1 1293.93 524.092 1300.71C521.17 1307.5 517.002 1313.26 511.588 1317.99C506.26 1322.71 499.987 1326.28 492.768 1328.69C485.549 1331.09 477.686 1332.3 469.178 1332.3C461.014 1332.3 453.323 1331.14 446.104 1328.82C438.971 1326.5 432.655 1323.14 427.155 1318.76C421.655 1314.29 417.358 1308.84 414.264 1302.39C411.17 1295.86 409.623 1288.43 409.623 1280.09H433.471C433.471 1286.62 434.889 1292.34 437.725 1297.23C440.647 1302.13 444.772 1305.96 450.1 1308.71C455.514 1311.37 461.873 1312.7 469.178 1312.7C476.483 1312.7 482.756 1311.46 487.998 1308.96C493.327 1306.39 497.409 1302.52 500.245 1297.36C503.166 1292.21 504.627 1285.72 504.627 1277.9C504.627 1270.08 502.995 1263.68 499.729 1258.69C496.463 1253.62 491.823 1249.88 485.807 1247.48C479.877 1244.98 472.873 1243.74 464.795 1243.74H447.78ZM679.295 1220.92V1249.54C679.295 1264.92 677.92 1277.9 675.17 1288.47C672.42 1299.04 668.467 1307.55 663.311 1313.99C658.155 1320.44 651.924 1325.12 644.62 1328.04C637.401 1330.88 629.237 1332.3 620.127 1332.3C612.909 1332.3 606.248 1331.39 600.147 1329.59C594.045 1327.78 588.545 1324.91 583.647 1320.95C578.834 1316.91 574.709 1311.67 571.272 1305.23C567.834 1298.78 565.213 1290.96 563.409 1281.77C561.604 1272.57 560.702 1261.83 560.702 1249.54V1220.92C560.702 1205.54 562.077 1192.65 564.827 1182.25C567.662 1171.85 571.659 1163.52 576.815 1157.24C581.971 1150.88 588.159 1146.33 595.377 1143.58C602.682 1140.83 610.846 1139.45 619.87 1139.45C627.174 1139.45 633.877 1140.35 639.979 1142.16C646.166 1143.88 651.666 1146.67 656.479 1150.54C661.291 1154.32 665.373 1159.39 668.725 1165.75C672.163 1172.02 674.784 1179.71 676.588 1188.82C678.393 1197.93 679.295 1208.63 679.295 1220.92ZM655.319 1253.41V1216.93C655.319 1208.5 654.803 1201.11 653.772 1194.75C652.827 1188.31 651.409 1182.81 649.518 1178.25C647.627 1173.7 645.221 1170 642.299 1167.17C639.463 1164.33 636.155 1162.27 632.373 1160.98C628.678 1159.6 624.51 1158.92 619.87 1158.92C614.198 1158.92 609.17 1159.99 604.788 1162.14C600.405 1164.2 596.709 1167.51 593.702 1172.07C590.78 1176.62 588.545 1182.59 586.998 1189.98C585.452 1197.37 584.678 1206.35 584.678 1216.93V1253.41C584.678 1261.83 585.151 1269.26 586.096 1275.71C587.127 1282.15 588.631 1287.74 590.608 1292.46C592.584 1297.1 594.991 1300.93 597.827 1303.94C600.662 1306.94 603.928 1309.18 607.623 1310.64C611.405 1312.02 615.573 1312.7 620.127 1312.7C625.971 1312.7 631.084 1311.59 635.467 1309.35C639.85 1307.12 643.502 1303.64 646.424 1298.91C649.432 1294.1 651.666 1287.95 653.127 1280.48C654.588 1272.91 655.319 1263.89 655.319 1253.41ZM711.522 1317.09C711.522 1313.05 712.768 1309.65 715.26 1306.9C717.838 1304.07 721.534 1302.65 726.346 1302.65C731.159 1302.65 734.811 1304.07 737.303 1306.9C739.881 1309.65 741.17 1313.05 741.17 1317.09C741.17 1321.04 739.881 1324.39 737.303 1327.14C734.811 1329.89 731.159 1331.27 726.346 1331.27C721.534 1331.27 717.838 1329.89 715.26 1327.14C712.768 1324.39 711.522 1321.04 711.522 1317.09ZM711.651 1203.26C711.651 1199.22 712.897 1195.83 715.389 1193.08C717.967 1190.24 721.663 1188.82 726.475 1188.82C731.288 1188.82 734.94 1190.24 737.432 1193.08C740.01 1195.83 741.299 1199.22 741.299 1203.26C741.299 1207.21 740.01 1210.57 737.432 1213.32C734.94 1216.07 731.288 1217.44 726.475 1217.44C721.663 1217.44 717.967 1216.07 715.389 1213.32C712.897 1210.57 711.651 1207.21 711.651 1203.26ZM891.733 1220.92V1249.54C891.733 1264.92 890.358 1277.9 887.608 1288.47C884.858 1299.04 880.905 1307.55 875.748 1313.99C870.592 1320.44 864.362 1325.12 857.057 1328.04C849.838 1330.88 841.674 1332.3 832.565 1332.3C825.346 1332.3 818.686 1331.39 812.584 1329.59C806.483 1327.78 800.983 1324.91 796.084 1320.95C791.272 1316.91 787.147 1311.67 783.709 1305.23C780.272 1298.78 777.651 1290.96 775.846 1281.77C774.041 1272.57 773.139 1261.83 773.139 1249.54V1220.92C773.139 1205.54 774.514 1192.65 777.264 1182.25C780.1 1171.85 784.096 1163.52 789.252 1157.24C794.409 1150.88 800.596 1146.33 807.815 1143.58C815.12 1140.83 823.284 1139.45 832.307 1139.45C839.612 1139.45 846.315 1140.35 852.416 1142.16C858.604 1143.88 864.104 1146.67 868.916 1150.54C873.729 1154.32 877.811 1159.39 881.163 1165.75C884.6 1172.02 887.221 1179.71 889.026 1188.82C890.831 1197.93 891.733 1208.63 891.733 1220.92ZM867.756 1253.41V1216.93C867.756 1208.5 867.241 1201.11 866.209 1194.75C865.264 1188.31 863.846 1182.81 861.955 1178.25C860.065 1173.7 857.659 1170 854.737 1167.17C851.901 1164.33 848.592 1162.27 844.811 1160.98C841.116 1159.6 836.948 1158.92 832.307 1158.92C826.635 1158.92 821.608 1159.99 817.225 1162.14C812.842 1164.2 809.147 1167.51 806.139 1172.07C803.217 1176.62 800.983 1182.59 799.436 1189.98C797.889 1197.37 797.116 1206.35 797.116 1216.93V1253.41C797.116 1261.83 797.588 1269.26 798.534 1275.71C799.565 1282.15 801.069 1287.74 803.045 1292.46C805.022 1297.1 807.428 1300.93 810.264 1303.94C813.1 1306.94 816.366 1309.18 820.061 1310.64C823.842 1312.02 828.01 1312.7 832.565 1312.7C838.409 1312.7 843.522 1311.59 847.905 1309.35C852.288 1307.12 855.94 1303.64 858.862 1298.91C861.87 1294.1 864.104 1287.95 865.565 1280.48C867.026 1272.91 867.756 1263.89 867.756 1253.41ZM1040.23 1220.92V1249.54C1040.23 1264.92 1038.86 1277.9 1036.11 1288.47C1033.36 1299.04 1029.4 1307.55 1024.25 1313.99C1019.09 1320.44 1012.86 1325.12 1005.56 1328.04C998.338 1330.88 990.174 1332.3 981.065 1332.3C973.846 1332.3 967.186 1331.39 961.084 1329.59C954.983 1327.78 949.483 1324.91 944.584 1320.95C939.772 1316.91 935.647 1311.67 932.209 1305.23C928.772 1298.78 926.151 1290.96 924.346 1281.77C922.541 1272.57 921.639 1261.83 921.639 1249.54V1220.92C921.639 1205.54 923.014 1192.65 925.764 1182.25C928.6 1171.85 932.596 1163.52 937.752 1157.24C942.909 1150.88 949.096 1146.33 956.315 1143.58C963.62 1140.83 971.784 1139.45 980.807 1139.45C988.112 1139.45 994.815 1140.35 1000.92 1142.16C1007.1 1143.88 1012.6 1146.67 1017.42 1150.54C1022.23 1154.32 1026.31 1159.39 1029.66 1165.75C1033.1 1172.02 1035.72 1179.71 1037.53 1188.82C1039.33 1197.93 1040.23 1208.63 1040.23 1220.92ZM1016.26 1253.41V1216.93C1016.26 1208.5 1015.74 1201.11 1014.71 1194.75C1013.76 1188.31 1012.35 1182.81 1010.46 1178.25C1008.56 1173.7 1006.16 1170 1003.24 1167.17C1000.4 1164.33 997.092 1162.27 993.311 1160.98C989.616 1159.6 985.448 1158.92 980.807 1158.92C975.135 1158.92 970.108 1159.99 965.725 1162.14C961.342 1164.2 957.647 1167.51 954.639 1172.07C951.717 1176.62 949.483 1182.59 947.936 1189.98C946.389 1197.37 945.616 1206.35 945.616 1216.93V1253.41C945.616 1261.83 946.088 1269.26 947.034 1275.71C948.065 1282.15 949.569 1287.74 951.545 1292.46C953.522 1297.1 955.928 1300.93 958.764 1303.94C961.6 1306.94 964.866 1309.18 968.561 1310.64C972.342 1312.02 976.51 1312.7 981.065 1312.7C986.909 1312.7 992.022 1311.59 996.405 1309.35C1000.79 1307.12 1004.44 1303.64 1007.36 1298.91C1010.37 1294.1 1012.6 1287.95 1014.06 1280.48C1015.53 1272.91 1016.26 1263.89 1016.26 1253.41Z" fill="white"/>
<circle cx="721.33" cy="1239.22" r="574.902" stroke="#BAF39C" stroke-width="28"/>
<defs>
<clipPath id="clip0_229_35">
<rect width="96.3111" height="96.3111" fill="white" transform="translate(673.174 2107.02)"/>
</clipPath>
<clipPath id="clip1_229_35">
<rect width="59.1912" height="61.1977" fill="white" transform="translate(1151.72 27.3031)"/>
</clipPath>
<clipPath id="clip2_229_35">
<rect width="59.1912" height="61.1977" fill="white" transform="translate(1298.19 27.3031)"/>
</clipPath>
<clipPath id="clip3_229_35">
<rect width="57.1847" height="61.1977" fill="white" transform="translate(1225.96 27.3031)"/>
</clipPath>
</defs>
</svg>
