<svg width="1432" height="2680" viewBox="0 0 1432 2680" fill="none" xmlns="http://www.w3.org/2000/svg">
<rect width="1432" height="2680" fill="#E5E5E5"/>
<rect width="1432" height="2680" fill="white"/>
<path d="M294.368 71.424C293.792 71.208 292.784 71.136 291.848 71.136C287.456 71.136 283.928 73.728 282.128 77.328H281.984V72.144H270.608V108H282.416V89.568C282.416 86.616 284.504 81.432 290.84 81.432C291.776 81.432 292.784 81.504 293.864 81.792L294.368 71.424ZM319.198 93.6C319.198 98.064 316.534 100.944 311.782 100.944C309.406 100.944 306.67 100.008 306.67 97.272C306.67 93.024 312.502 92.376 317.686 92.376H319.198V93.6ZM303.502 83.448C305.662 81.432 308.974 79.776 312.358 79.776C316.03 79.776 318.838 81.432 318.838 84.96V85.536C308.398 85.536 295.798 87.264 295.798 97.632C295.798 106.056 303.142 108.864 308.83 108.864C313.078 108.864 317.182 107.136 318.982 104.184H319.198V108H329.998V89.928C329.998 76.896 325.534 70.992 313.51 70.992C307.678 70.992 301.702 73.08 297.526 77.04L303.502 83.448ZM396.411 108V85.824C396.411 79.056 393.099 71.136 383.379 71.136C378.051 71.136 374.307 73.512 371.931 77.256C369.915 73.368 366.315 71.136 361.131 71.136C355.731 71.136 352.059 74.088 350.403 77.112H350.259V72.144H338.811V108H350.691V88.56C350.691 84.24 352.851 80.856 356.595 80.856C360.123 80.856 361.707 83.448 361.707 87.552V108H373.515V88.632C373.515 84.6 375.459 80.856 379.491 80.856C383.667 80.856 384.603 84.312 384.603 88.416V108H396.411ZM426.495 93.6C426.495 98.064 423.831 100.944 419.079 100.944C416.703 100.944 413.967 100.008 413.967 97.272C413.967 93.024 419.799 92.376 424.983 92.376H426.495V93.6ZM410.799 83.448C412.959 81.432 416.271 79.776 419.655 79.776C423.327 79.776 426.135 81.432 426.135 84.96V85.536C415.695 85.536 403.095 87.264 403.095 97.632C403.095 106.056 410.439 108.864 416.127 108.864C420.375 108.864 424.479 107.136 426.279 104.184H426.495V108H437.295V89.928C437.295 76.896 432.831 70.992 420.807 70.992C414.975 70.992 408.999 73.08 404.823 77.04L410.799 83.448ZM481.532 108V85.824C481.532 78.624 478.076 71.136 468.428 71.136C463.46 71.136 459.356 73.944 457.7 77.112H457.556V72.144H446.108V108H457.988V88.56C457.988 84.456 460.148 80.856 464.324 80.856C468.572 80.856 469.652 84.456 469.652 88.416V108H481.532ZM503.939 101.664C503.939 97.704 500.627 94.608 496.739 94.608C492.707 94.608 489.395 97.848 489.395 101.736C489.395 105.696 492.779 108.72 496.739 108.72C500.627 108.72 503.939 105.624 503.939 101.664ZM552.021 89.928C552.021 79.92 545.541 71.136 535.101 71.136C529.845 71.136 526.173 73.584 524.157 75.96H524.013V53.568H512.205V108H523.077V103.32H523.221C525.525 106.92 530.205 109.008 534.957 109.008C545.757 109.008 552.021 99.936 552.021 89.928ZM540.645 89.928C540.645 94.608 537.765 99.216 532.149 99.216C526.821 99.216 523.509 94.68 523.509 90C523.509 85.464 526.821 80.784 532.149 80.784C537.765 80.784 540.645 85.32 540.645 89.928ZM595.018 108V85.824C595.018 78.624 591.634 71.136 581.914 71.136C576.946 71.136 573.202 73.8 571.618 76.68H571.474V53.568H559.666V108H571.474V88.632C571.474 84.384 573.778 81 577.882 81C582.13 81 583.138 84.528 583.138 88.56V108H595.018ZM625.128 93.6C625.128 98.064 622.464 100.944 617.712 100.944C615.336 100.944 612.6 100.008 612.6 97.272C612.6 93.024 618.432 92.376 623.616 92.376H625.128V93.6ZM609.432 83.448C611.592 81.432 614.904 79.776 618.288 79.776C621.96 79.776 624.768 81.432 624.768 84.96V85.536C614.328 85.536 601.728 87.264 601.728 97.632C601.728 106.056 609.072 108.864 614.76 108.864C619.008 108.864 623.112 107.136 624.912 104.184H625.128V108H635.928V89.928C635.928 76.896 631.464 70.992 619.44 70.992C613.608 70.992 607.632 73.08 603.456 77.04L609.432 83.448ZM665.278 81V72.144H656.854V62.712H645.262V72.144H639.574V81H645.334V96.12C645.334 103.752 648.502 108.864 658.078 108.864C660.598 108.864 663.334 108.36 664.918 107.784L664.774 99.144C663.91 99.504 662.47 99.72 661.318 99.72C657.934 99.72 656.854 97.992 656.854 94.68V81H665.278ZM690.309 81V72.144H681.885V62.712H670.293V72.144H664.605V81H670.365V96.12C670.365 103.752 673.533 108.864 683.109 108.864C685.629 108.864 688.365 108.36 689.949 107.784L689.805 99.144C688.941 99.504 687.501 99.72 686.349 99.72C682.965 99.72 681.885 97.992 681.885 94.68V81H690.309ZM708.674 60.696C708.674 57.096 705.65 54.216 701.906 54.216C698.09 54.216 695.138 57.24 695.138 60.696C695.138 64.224 698.09 67.176 701.906 67.176C705.65 67.176 708.674 64.368 708.674 60.696ZM707.81 108V72.144H696.002V108H707.81Z" fill="black"/>
<path d="M0 2213H1432V2457H0V2213Z" fill="#DBDBDB"/>
<path d="M1284.33 1921.76V1899.13H1280.11V1946H1284.33V1931.12C1284.33 1923.37 1288.67 1919.77 1293.13 1919.77C1299.21 1919.77 1301.01 1923.87 1301.01 1929.94V1946H1305.22V1928.21C1305.22 1921.01 1301.57 1916.24 1294.19 1916.24C1290.1 1916.24 1286 1918.41 1284.45 1921.76H1284.33ZM1318.49 1929.26C1318.87 1924.3 1323.02 1919.77 1328.66 1919.77C1334.68 1919.77 1338.02 1923.8 1338.27 1929.26H1318.49ZM1342.55 1930.62C1342.55 1922.69 1337.78 1916.24 1328.66 1916.24C1320.42 1916.24 1314.03 1922.75 1314.03 1931.49C1314.03 1940.23 1320.42 1946.74 1329.03 1946.74C1333.81 1946.74 1338.09 1944.95 1341.5 1940.61L1338.33 1938.13C1336.72 1940.73 1333.37 1943.15 1329.03 1943.15C1323.08 1943.15 1318.56 1938.44 1318.43 1932.61H1342.49C1342.55 1931.86 1342.55 1931.18 1342.55 1930.62ZM1351.74 1916.98H1347.03L1359.43 1945.94L1357.07 1952.01C1355.83 1955.3 1354.35 1957.16 1351.49 1957.16C1350.38 1957.16 1349.32 1956.97 1348.39 1956.66L1347.96 1960.51C1349.2 1960.76 1350.5 1960.88 1351.74 1960.88C1356.76 1960.88 1359.12 1957.97 1360.86 1953.5L1375.3 1916.98H1370.71L1361.72 1941.47H1361.6L1351.74 1916.98ZM867.102 2004.76V1982.13H862.886V2029H867.102V2014.12C867.102 2006.37 871.442 2002.77 875.906 2002.77C881.982 2002.77 883.78 2006.87 883.78 2012.94V2029H887.996V2011.21C887.996 2004.01 884.338 1999.24 876.96 1999.24C872.868 1999.24 868.776 2001.41 867.226 2004.76H867.102ZM901.265 2012.26C901.637 2007.3 905.791 2002.77 911.433 2002.77C917.447 2002.77 920.795 2006.8 921.043 2012.26H901.265ZM925.321 2013.62C925.321 2005.69 920.547 1999.24 911.433 1999.24C903.187 1999.24 896.801 2005.75 896.801 2014.49C896.801 2023.23 903.187 2029.74 911.805 2029.74C916.579 2029.74 920.857 2027.95 924.267 2023.61L921.105 2021.13C919.493 2023.73 916.145 2026.15 911.805 2026.15C905.853 2026.15 901.327 2021.44 901.203 2015.61H925.259C925.321 2014.86 925.321 2014.18 925.321 2013.62ZM934.513 1999.98H929.801L942.201 2028.94L939.845 2035.01C938.605 2038.3 937.117 2040.16 934.265 2040.16C933.149 2040.16 932.095 2039.97 931.165 2039.66L930.731 2043.51C931.971 2043.76 933.273 2043.88 934.513 2043.88C939.535 2043.88 941.891 2040.97 943.627 2036.5L958.073 1999.98H953.485L944.495 2024.47H944.371L934.513 1999.98ZM993.245 1999.98H985.061V1991.8H980.845V1999.98H974.831V2003.52H980.845V2021.62C980.845 2028.01 985.185 2029.37 988.285 2029.37C990.207 2029.37 991.757 2029.06 993.245 2028.5L993.059 2024.85C991.943 2025.4 990.579 2025.78 989.401 2025.78C986.859 2025.78 985.061 2024.78 985.061 2020.44V2003.52H993.245V1999.98ZM1004.18 2004.76V1982.13H999.964V2029H1004.18V2014.12C1004.18 2006.37 1008.52 2002.77 1012.98 2002.77C1019.06 2002.77 1020.86 2006.87 1020.86 2012.94V2029H1025.07V2011.21C1025.07 2004.01 1021.42 1999.24 1014.04 1999.24C1009.95 1999.24 1005.85 2001.41 1004.3 2004.76H1004.18ZM1040.26 1999.98H1036.05V2029H1040.26V1999.98ZM1041.13 1988.82C1041.13 1987.09 1039.64 1985.85 1038.16 1985.85C1036.67 1985.85 1035.18 1987.09 1035.18 1988.82C1035.18 1990.56 1036.67 1991.8 1038.16 1991.8C1039.64 1991.8 1041.13 1990.56 1041.13 1988.82ZM1070.15 2004.45C1068.29 2001.16 1064.01 1999.24 1059.98 1999.24C1054.71 1999.24 1049.63 2001.78 1049.63 2007.67C1049.63 2013.19 1054.52 2014.68 1057.93 2015.48C1063.45 2016.79 1066.49 2018.03 1066.49 2021.06C1066.49 2024.85 1063.27 2026.15 1059.67 2026.15C1056.26 2026.15 1053.1 2024.16 1051.61 2021.62L1048.26 2024.1C1050.93 2028.01 1055.33 2029.74 1059.73 2029.74C1065.06 2029.74 1070.64 2027.39 1070.64 2020.75C1070.64 2016.23 1067.42 2013.69 1060.6 2012.26C1055.83 2011.27 1053.66 2010.03 1053.66 2007.3C1053.66 2004.08 1056.76 2002.77 1059.79 2002.77C1063.02 2002.77 1065.68 2004.45 1066.92 2006.87L1070.15 2004.45ZM1098.81 1999.98H1094.6V2029H1098.81V1999.98ZM1099.68 1988.82C1099.68 1987.09 1098.19 1985.85 1096.71 1985.85C1095.22 1985.85 1093.73 1987.09 1093.73 1988.82C1093.73 1990.56 1095.22 1991.8 1096.71 1991.8C1098.19 1991.8 1099.68 1990.56 1099.68 1988.82ZM1128.7 2004.45C1126.84 2001.16 1122.56 1999.24 1118.53 1999.24C1113.26 1999.24 1108.18 2001.78 1108.18 2007.67C1108.18 2013.19 1113.07 2014.68 1116.48 2015.48C1122 2016.79 1125.04 2018.03 1125.04 2021.06C1125.04 2024.85 1121.82 2026.15 1118.22 2026.15C1114.81 2026.15 1111.65 2024.16 1110.16 2021.62L1106.81 2024.1C1109.48 2028.01 1113.88 2029.74 1118.28 2029.74C1123.61 2029.74 1129.19 2027.39 1129.19 2020.75C1129.19 2016.23 1125.97 2013.69 1119.15 2012.26C1114.38 2011.27 1112.21 2010.03 1112.21 2007.3C1112.21 2004.08 1115.31 2002.77 1118.34 2002.77C1121.57 2002.77 1124.23 2004.45 1125.47 2006.87L1128.7 2004.45ZM1149.12 1999.98L1158.29 2029H1162.88L1170.51 2005.5H1170.63L1178.38 2029H1182.97L1192.14 1999.98H1187.68L1180.74 2023.54H1180.61L1172.68 1999.98H1168.58L1160.77 2023.54H1160.65L1153.64 1999.98H1149.12ZM1228.17 2014.49C1228.17 2005.75 1221.72 1999.24 1212.67 1999.24C1203.68 1999.24 1197.23 2005.75 1197.23 2014.49C1197.23 2023.23 1203.68 2029.74 1212.67 2029.74C1221.72 2029.74 1228.17 2023.23 1228.17 2014.49ZM1223.71 2014.49C1223.71 2021 1219.43 2026.15 1212.67 2026.15C1205.98 2026.15 1201.7 2021 1201.7 2014.49C1201.7 2007.98 1205.98 2002.77 1212.67 2002.77C1219.43 2002.77 1223.71 2007.98 1223.71 2014.49ZM1237.24 2006.37V2029H1241.46V2014.12C1241.46 2006.37 1245.49 2003.15 1249.95 2003.15C1251.07 2003.15 1252.43 2003.33 1252.93 2003.52L1253.49 1999.55C1252.62 1999.3 1251.75 1999.24 1250.7 1999.24C1246.61 1999.24 1243.01 2001.6 1241.4 2004.94H1241.27C1241.27 2003.7 1241.15 2001.53 1241.03 1999.98H1237C1237.18 2001.97 1237.24 2004.82 1237.24 2006.37ZM1263.93 1982.13H1259.71V2029H1263.93V2013.75H1264.11L1278.87 2029H1285.07L1268.95 2013.25L1283.58 1999.98H1277.5L1264.11 2013.07H1263.93V1982.13ZM1295.47 1999.98H1291.25V2029H1295.47V1999.98ZM1296.34 1988.82C1296.34 1987.09 1294.85 1985.85 1293.36 1985.85C1291.87 1985.85 1290.39 1987.09 1290.39 1988.82C1290.39 1990.56 1291.87 1991.8 1293.36 1991.8C1294.85 1991.8 1296.34 1990.56 1296.34 1988.82ZM1306.44 1999.98C1306.63 2001.97 1306.69 2004.82 1306.69 2006.37V2029H1310.91V2014.12C1310.91 2006.37 1315.25 2002.77 1319.71 2002.77C1325.79 2002.77 1327.59 2006.87 1327.59 2012.94V2029H1331.8V2011.21C1331.8 2004.01 1328.14 1999.24 1320.77 1999.24C1316.67 1999.24 1312.46 2001.6 1310.85 2004.94H1310.72C1310.72 2003.7 1310.6 2001.53 1310.47 1999.98H1306.44ZM1341.23 2038.05C1344.64 2041.65 1349.85 2043.88 1355.18 2043.88C1368.01 2043.88 1370.93 2035.08 1370.93 2028.75V1999.98H1366.71V2005.01H1366.59C1364.29 2001.29 1359.83 1999.24 1355.61 1999.24C1346.56 1999.24 1340.61 2006 1340.61 2014.24C1340.61 2022.74 1346.56 2029 1355.61 2029C1359.83 2029 1364.36 2026.89 1366.59 2023.3H1366.71V2028.75C1366.71 2035.01 1363.67 2040.16 1355.37 2040.16C1350.96 2040.16 1346.56 2037.8 1344.27 2034.83L1341.23 2038.05ZM1345.07 2014.12C1345.07 2008.04 1349.04 2002.77 1356.05 2002.77C1362.56 2002.77 1367.21 2008.04 1367.21 2014.12C1367.21 2020.82 1362.56 2025.4 1356.05 2025.4C1349.04 2025.4 1345.07 2020.2 1345.07 2014.12ZM1049.53 2087.76V2065.13H1045.31V2112H1049.53V2097.12C1049.53 2089.37 1053.87 2085.77 1058.33 2085.77C1064.41 2085.77 1066.21 2089.87 1066.21 2095.94V2112H1070.42V2094.21C1070.42 2087.01 1066.77 2082.24 1059.39 2082.24C1055.3 2082.24 1051.2 2084.41 1049.65 2087.76H1049.53ZM1083.69 2095.26C1084.06 2090.3 1088.22 2085.77 1093.86 2085.77C1099.87 2085.77 1103.22 2089.8 1103.47 2095.26H1083.69ZM1107.75 2096.62C1107.75 2088.69 1102.97 2082.24 1093.86 2082.24C1085.61 2082.24 1079.23 2088.75 1079.23 2097.49C1079.23 2106.23 1085.61 2112.74 1094.23 2112.74C1099.01 2112.74 1103.28 2110.95 1106.69 2106.61L1103.53 2104.13C1101.92 2106.73 1098.57 2109.15 1094.23 2109.15C1088.28 2109.15 1083.75 2104.44 1083.63 2098.61H1107.69C1107.75 2097.86 1107.75 2097.18 1107.75 2096.62ZM1116.94 2082.98H1112.23L1124.63 2111.94L1122.27 2118.01C1121.03 2121.3 1119.54 2123.16 1116.69 2123.16C1115.58 2123.16 1114.52 2122.97 1113.59 2122.66L1113.16 2126.51C1114.4 2126.76 1115.7 2126.88 1116.94 2126.88C1121.96 2126.88 1124.32 2123.97 1126.05 2119.5L1140.5 2082.98H1135.91L1126.92 2107.47H1126.8L1116.94 2082.98ZM1166.93 2087.76V2065.13H1162.71V2112H1166.93V2097.12C1166.93 2089.37 1171.27 2085.77 1175.73 2085.77C1181.81 2085.77 1183.61 2089.87 1183.61 2095.94V2112H1187.82V2094.21C1187.82 2087.01 1184.17 2082.24 1176.79 2082.24C1172.7 2082.24 1168.6 2084.41 1167.05 2087.76H1166.93ZM1201.09 2095.26C1201.46 2090.3 1205.62 2085.77 1211.26 2085.77C1217.27 2085.77 1220.62 2089.8 1220.87 2095.26H1201.09ZM1225.15 2096.62C1225.15 2088.69 1220.37 2082.24 1211.26 2082.24C1203.01 2082.24 1196.63 2088.75 1196.63 2097.49C1196.63 2106.23 1203.01 2112.74 1211.63 2112.74C1216.41 2112.74 1220.68 2110.95 1224.09 2106.61L1220.93 2104.13C1219.32 2106.73 1215.97 2109.15 1211.63 2109.15C1205.68 2109.15 1201.15 2104.44 1201.03 2098.61H1225.09C1225.15 2097.86 1225.15 2097.18 1225.15 2096.62ZM1234.34 2082.98H1229.63L1242.03 2111.94L1239.67 2118.01C1238.43 2121.3 1236.95 2123.16 1234.09 2123.16C1232.98 2123.16 1231.92 2122.97 1230.99 2122.66L1230.56 2126.51C1231.8 2126.76 1233.1 2126.88 1234.34 2126.88C1239.36 2126.88 1241.72 2123.97 1243.46 2119.5L1257.9 2082.98H1253.31L1244.32 2107.47H1244.2L1234.34 2082.98ZM1284.33 2087.76V2065.13H1280.11V2112H1284.33V2097.12C1284.33 2089.37 1288.67 2085.77 1293.13 2085.77C1299.21 2085.77 1301.01 2089.87 1301.01 2095.94V2112H1305.22V2094.21C1305.22 2087.01 1301.57 2082.24 1294.19 2082.24C1290.1 2082.24 1286 2084.41 1284.45 2087.76H1284.33ZM1318.49 2095.26C1318.87 2090.3 1323.02 2085.77 1328.66 2085.77C1334.68 2085.77 1338.02 2089.8 1338.27 2095.26H1318.49ZM1342.55 2096.62C1342.55 2088.69 1337.78 2082.24 1328.66 2082.24C1320.42 2082.24 1314.03 2088.75 1314.03 2097.49C1314.03 2106.23 1320.42 2112.74 1329.03 2112.74C1333.81 2112.74 1338.09 2110.95 1341.5 2106.61L1338.33 2104.13C1336.72 2106.73 1333.37 2109.15 1329.03 2109.15C1323.08 2109.15 1318.56 2104.44 1318.43 2098.61H1342.49C1342.55 2097.86 1342.55 2097.18 1342.55 2096.62ZM1351.74 2082.98H1347.03L1359.43 2111.94L1357.07 2118.01C1355.83 2121.3 1354.35 2123.16 1351.49 2123.16C1350.38 2123.16 1349.32 2122.97 1348.39 2122.66L1347.96 2126.51C1349.2 2126.76 1350.5 2126.88 1351.74 2126.88C1356.76 2126.88 1359.12 2123.97 1360.86 2119.5L1375.3 2082.98H1370.71L1361.72 2107.47H1361.6L1351.74 2082.98ZM1031.73 2170.76V2148.13H1027.51V2195H1031.73V2180.12C1031.73 2172.37 1036.07 2168.77 1040.53 2168.77C1046.61 2168.77 1048.41 2172.87 1048.41 2178.94V2195H1052.62V2177.21C1052.62 2170.01 1048.97 2165.24 1041.59 2165.24C1037.5 2165.24 1033.4 2167.41 1031.85 2170.76H1031.73ZM1065.89 2178.26C1066.26 2173.3 1070.42 2168.77 1076.06 2168.77C1082.07 2168.77 1085.42 2172.8 1085.67 2178.26H1065.89ZM1089.95 2179.62C1089.95 2171.69 1085.17 2165.24 1076.06 2165.24C1067.81 2165.24 1061.43 2171.75 1061.43 2180.49C1061.43 2189.23 1067.81 2195.74 1076.43 2195.74C1081.21 2195.74 1085.48 2193.95 1088.89 2189.61L1085.73 2187.13C1084.12 2189.73 1080.77 2192.15 1076.43 2192.15C1070.48 2192.15 1065.95 2187.44 1065.83 2181.61H1089.89C1089.95 2180.86 1089.95 2180.18 1089.95 2179.62ZM1099.14 2165.98H1094.43L1106.83 2194.94L1104.47 2201.01C1103.23 2204.3 1101.74 2206.16 1098.89 2206.16C1097.78 2206.16 1096.72 2205.97 1095.79 2205.66L1095.36 2209.51C1096.6 2209.76 1097.9 2209.88 1099.14 2209.88C1104.16 2209.88 1106.52 2206.97 1108.25 2202.5L1122.7 2165.98H1118.11L1109.12 2190.47H1109L1099.14 2165.98ZM1149.13 2170.76V2148.13H1144.91V2195H1149.13V2180.12C1149.13 2172.37 1153.47 2168.77 1157.93 2168.77C1164.01 2168.77 1165.81 2172.87 1165.81 2178.94V2195H1170.02V2177.21C1170.02 2170.01 1166.37 2165.24 1158.99 2165.24C1154.9 2165.24 1150.8 2167.41 1149.25 2170.76H1149.13ZM1183.29 2178.26C1183.66 2173.3 1187.82 2168.77 1193.46 2168.77C1199.47 2168.77 1202.82 2172.8 1203.07 2178.26H1183.29ZM1207.35 2179.62C1207.35 2171.69 1202.57 2165.24 1193.46 2165.24C1185.21 2165.24 1178.83 2171.75 1178.83 2180.49C1178.83 2189.23 1185.21 2195.74 1193.83 2195.74C1198.61 2195.74 1202.88 2193.95 1206.29 2189.61L1203.13 2187.13C1201.52 2189.73 1198.17 2192.15 1193.83 2192.15C1187.88 2192.15 1183.35 2187.44 1183.23 2181.61H1207.29C1207.35 2180.86 1207.35 2180.18 1207.35 2179.62ZM1234.34 2177.21C1223.74 2177.21 1213.88 2178.01 1213.88 2186.94C1213.88 2193.39 1219.53 2195.74 1223.93 2195.74C1228.58 2195.74 1231.8 2194.13 1234.47 2190.29H1234.59C1234.59 2191.84 1234.78 2193.57 1235.03 2195H1238.81C1238.5 2193.39 1238.31 2190.72 1238.31 2188.49V2175.78C1238.31 2168.71 1233.29 2165.24 1227.03 2165.24C1222.07 2165.24 1217.98 2167.04 1215.62 2169.39L1217.98 2172.18C1220.02 2170.14 1223.18 2168.77 1226.59 2168.77C1231.62 2168.77 1234.34 2171.25 1234.34 2176.28V2177.21ZM1234.34 2180.49V2182.66C1234.34 2187.81 1231 2192.27 1225.04 2192.27C1221.76 2192.27 1218.22 2190.91 1218.22 2186.75C1218.22 2181.24 1226.22 2180.49 1233.1 2180.49H1234.34ZM1253.51 2148.13H1249.3V2195H1253.51V2148.13ZM1283.08 2177.21C1272.48 2177.21 1262.62 2178.01 1262.62 2186.94C1262.62 2193.39 1268.27 2195.74 1272.67 2195.74C1277.32 2195.74 1280.54 2194.13 1283.21 2190.29H1283.33C1283.33 2191.84 1283.52 2193.57 1283.77 2195H1287.55C1287.24 2193.39 1287.05 2190.72 1287.05 2188.49V2175.78C1287.05 2168.71 1282.03 2165.24 1275.77 2165.24C1270.81 2165.24 1266.72 2167.04 1264.36 2169.39L1266.72 2172.18C1268.76 2170.14 1271.92 2168.77 1275.33 2168.77C1280.36 2168.77 1283.08 2171.25 1283.08 2176.28V2177.21ZM1283.08 2180.49V2182.66C1283.08 2187.81 1279.74 2192.27 1273.78 2192.27C1270.5 2192.27 1266.96 2190.91 1266.96 2186.75C1266.96 2181.24 1274.96 2180.49 1281.84 2180.49H1283.08ZM1310.19 2165.98H1303.37V2158.54C1303.37 2154.33 1304.3 2151.1 1308.82 2151.1C1309.94 2151.1 1310.87 2151.29 1311.74 2151.54L1312.48 2147.82C1311.43 2147.51 1310.06 2147.38 1309.01 2147.38C1302.38 2147.38 1299.15 2151.48 1299.15 2158.05V2165.98H1293.08V2169.52H1299.15V2195H1303.37V2169.52H1310.19V2165.98ZM1323.27 2168.96C1323.27 2167.22 1321.9 2165.61 1319.92 2165.61C1317.93 2165.61 1316.57 2167.22 1316.57 2168.96C1316.57 2170.7 1317.93 2172.31 1319.92 2172.31C1321.9 2172.31 1323.27 2170.7 1323.27 2168.96ZM1322.96 2189.11H1318.37L1314.21 2203.68H1317.93L1322.96 2189.11ZM1339.06 2165.98H1334.85V2195H1339.06V2165.98ZM1339.93 2154.82C1339.93 2153.09 1338.44 2151.85 1336.96 2151.85C1335.47 2151.85 1333.98 2153.09 1333.98 2154.82C1333.98 2156.56 1335.47 2157.8 1336.96 2157.8C1338.44 2157.8 1339.93 2156.56 1339.93 2154.82ZM1354.63 2148.13H1350.41V2195H1354.63V2179.75H1354.81L1369.57 2195H1375.77L1359.65 2179.25L1374.28 2165.98H1368.2L1354.81 2179.07H1354.63V2148.13Z" fill="black"/>
<path d="M58.2953 2246.98L67.4714 2276H72.0594L79.6854 2252.5H79.8094L87.5594 2276H92.1474L101.323 2246.98H96.8593L89.9154 2270.54H89.7914L81.8554 2246.98H77.7633L69.9514 2270.54H69.8274L62.8214 2246.98H58.2953ZM110.877 2259.26C111.249 2254.3 115.403 2249.77 121.045 2249.77C127.059 2249.77 130.407 2253.8 130.655 2259.26H110.877ZM134.933 2260.62C134.933 2252.69 130.159 2246.24 121.045 2246.24C112.799 2246.24 106.413 2252.75 106.413 2261.49C106.413 2270.23 112.799 2276.74 121.417 2276.74C126.191 2276.74 130.469 2274.95 133.879 2270.61L130.717 2268.13C129.105 2270.73 125.757 2273.15 121.417 2273.15C115.465 2273.15 110.939 2268.44 110.815 2262.61H134.871C134.933 2261.86 134.933 2261.18 134.933 2260.62ZM148.342 2229.13H144.126V2276H148.342V2229.13ZM163.963 2229.13H159.747V2276H163.963V2229.13ZM195.084 2229.13H190.868V2276H195.084V2229.13ZM235.195 2261.49C235.195 2252.75 228.747 2246.24 219.695 2246.24C210.705 2246.24 204.257 2252.75 204.257 2261.49C204.257 2270.23 210.705 2276.74 219.695 2276.74C228.747 2276.74 235.195 2270.23 235.195 2261.49ZM230.731 2261.49C230.731 2268 226.453 2273.15 219.695 2273.15C212.999 2273.15 208.721 2268 208.721 2261.49C208.721 2254.98 212.999 2249.77 219.695 2249.77C226.453 2249.77 230.731 2254.98 230.731 2261.49ZM273.097 2261.49C273.097 2252.75 266.649 2246.24 257.597 2246.24C248.607 2246.24 242.159 2252.75 242.159 2261.49C242.159 2270.23 248.607 2276.74 257.597 2276.74C266.649 2276.74 273.097 2270.23 273.097 2261.49ZM268.633 2261.49C268.633 2268 264.355 2273.15 257.597 2273.15C250.901 2273.15 246.623 2268 246.623 2261.49C246.623 2254.98 250.901 2249.77 257.597 2249.77C264.355 2249.77 268.633 2254.98 268.633 2261.49ZM286.51 2229.13H282.294V2276H286.51V2260.75H286.696L301.452 2276H307.652L291.532 2260.25L306.164 2246.98H300.088L286.696 2260.07H286.51V2229.13ZM332.074 2251.45C330.214 2248.16 325.936 2246.24 321.906 2246.24C316.636 2246.24 311.552 2248.78 311.552 2254.67C311.552 2260.19 316.45 2261.68 319.86 2262.48C325.378 2263.79 328.416 2265.03 328.416 2268.06C328.416 2271.85 325.192 2273.15 321.596 2273.15C318.186 2273.15 315.024 2271.16 313.536 2268.62L310.188 2271.1C312.854 2275.01 317.256 2276.74 321.658 2276.74C326.99 2276.74 332.57 2274.39 332.57 2267.75C332.57 2263.23 329.346 2260.69 322.526 2259.26C317.752 2258.27 315.582 2257.03 315.582 2254.3C315.582 2251.08 318.682 2249.77 321.72 2249.77C324.944 2249.77 327.61 2251.45 328.85 2253.87L332.074 2251.45ZM360.801 2229.13H356.585V2276H360.801V2229.13ZM376.36 2246.98H372.144V2276H376.36V2246.98ZM377.228 2235.82C377.228 2234.09 375.74 2232.85 374.252 2232.85C372.764 2232.85 371.276 2234.09 371.276 2235.82C371.276 2237.56 372.764 2238.8 374.252 2238.8C375.74 2238.8 377.228 2237.56 377.228 2235.82ZM391.922 2229.13H387.706V2276H391.922V2260.75H392.108L406.864 2276H413.064L396.944 2260.25L411.576 2246.98H405.5L392.108 2260.07H391.922V2229.13ZM420.453 2259.26C420.825 2254.3 424.979 2249.77 430.621 2249.77C436.635 2249.77 439.983 2253.8 440.231 2259.26H420.453ZM444.509 2260.62C444.509 2252.69 439.735 2246.24 430.621 2246.24C422.375 2246.24 415.989 2252.75 415.989 2261.49C415.989 2270.23 422.375 2276.74 430.993 2276.74C435.767 2276.74 440.045 2274.95 443.455 2270.61L440.293 2268.13C438.681 2270.73 435.333 2273.15 430.993 2273.15C425.041 2273.15 420.515 2268.44 420.391 2262.61H444.447C444.509 2261.86 444.509 2261.18 444.509 2260.62ZM473.356 2246.98H469.14V2276H473.356V2246.98ZM474.224 2235.82C474.224 2234.09 472.736 2232.85 471.248 2232.85C469.76 2232.85 468.272 2234.09 468.272 2235.82C468.272 2237.56 469.76 2238.8 471.248 2238.8C472.736 2238.8 474.224 2237.56 474.224 2235.82ZM497.66 2246.98H489.476V2238.8H485.26V2246.98H479.246V2250.52H485.26V2268.62C485.26 2275.01 489.6 2276.37 492.7 2276.37C494.622 2276.37 496.172 2276.06 497.66 2275.5L497.474 2271.85C496.358 2272.4 494.994 2272.78 493.816 2272.78C491.274 2272.78 489.476 2271.78 489.476 2267.44V2250.52H497.66V2246.98ZM522.918 2251.45C521.058 2248.16 516.78 2246.24 512.75 2246.24C507.48 2246.24 502.396 2248.78 502.396 2254.67C502.396 2260.19 507.294 2261.68 510.704 2262.48C516.222 2263.79 519.26 2265.03 519.26 2268.06C519.26 2271.85 516.036 2273.15 512.44 2273.15C509.03 2273.15 505.868 2271.16 504.38 2268.62L501.032 2271.1C503.698 2275.01 508.1 2276.74 512.502 2276.74C517.834 2276.74 523.414 2274.39 523.414 2267.75C523.414 2263.23 520.19 2260.69 513.37 2259.26C508.596 2258.27 506.426 2257.03 506.426 2254.3C506.426 2251.08 509.526 2249.77 512.564 2249.77C515.788 2249.77 518.454 2251.45 519.694 2253.87L522.918 2251.45ZM543.336 2246.98L552.512 2276H557.1L564.726 2252.5H564.85L572.6 2276H577.188L586.364 2246.98H581.9L574.956 2270.54H574.832L566.896 2246.98H562.804L554.992 2270.54H554.868L547.862 2246.98H543.336ZM622.392 2261.49C622.392 2252.75 615.944 2246.24 606.892 2246.24C597.902 2246.24 591.454 2252.75 591.454 2261.49C591.454 2270.23 597.902 2276.74 606.892 2276.74C615.944 2276.74 622.392 2270.23 622.392 2261.49ZM617.928 2261.49C617.928 2268 613.65 2273.15 606.892 2273.15C600.196 2273.15 595.918 2268 595.918 2261.49C595.918 2254.98 600.196 2249.77 606.892 2249.77C613.65 2249.77 617.928 2254.98 617.928 2261.49ZM631.465 2253.37V2276H635.681V2261.12C635.681 2253.37 639.711 2250.15 644.175 2250.15C645.291 2250.15 646.655 2250.33 647.151 2250.52L647.709 2246.55C646.841 2246.3 645.973 2246.24 644.919 2246.24C640.827 2246.24 637.231 2248.6 635.619 2251.94H635.495C635.495 2250.7 635.371 2248.53 635.247 2246.98H631.217C631.403 2248.97 631.465 2251.82 631.465 2253.37ZM658.146 2229.13H653.93V2276H658.146V2229.13ZM673.705 2246.98H669.489V2276H673.705V2246.98ZM674.573 2235.82C674.573 2234.09 673.085 2232.85 671.597 2232.85C670.109 2232.85 668.621 2234.09 668.621 2235.82C668.621 2237.56 670.109 2238.8 671.597 2238.8C673.085 2238.8 674.573 2237.56 674.573 2235.82ZM684.679 2246.98C684.865 2248.97 684.927 2251.82 684.927 2253.37V2276H689.143V2261.12C689.143 2253.37 693.483 2249.77 697.947 2249.77C704.023 2249.77 705.821 2253.87 705.821 2259.94V2276H710.037V2258.21C710.037 2251.01 706.379 2246.24 699.001 2246.24C694.909 2246.24 690.693 2248.6 689.081 2251.94H688.957C688.957 2250.7 688.833 2248.53 688.709 2246.98H684.679ZM719.465 2285.05C722.875 2288.65 728.083 2290.88 733.415 2290.88C746.249 2290.88 749.163 2282.08 749.163 2275.75V2246.98H744.947V2252.01H744.823C742.529 2248.29 738.065 2246.24 733.849 2246.24C724.797 2246.24 718.845 2253 718.845 2261.24C718.845 2269.74 724.797 2276 733.849 2276C738.065 2276 742.591 2273.89 744.823 2270.3H744.947V2275.75C744.947 2282.01 741.909 2287.16 733.601 2287.16C729.199 2287.16 724.797 2284.8 722.503 2281.83L719.465 2285.05ZM723.309 2261.12C723.309 2255.04 727.277 2249.77 734.283 2249.77C740.793 2249.77 745.443 2255.04 745.443 2261.12C745.443 2267.82 740.793 2272.4 734.283 2272.4C727.277 2272.4 723.309 2267.2 723.309 2261.12ZM775.379 2246.98C775.565 2248.97 775.627 2251.82 775.627 2253.37V2276H779.843V2261.12C779.843 2253.37 784.183 2249.77 788.647 2249.77C794.723 2249.77 796.521 2253.87 796.521 2259.94V2276H800.737V2258.21C800.737 2251.01 797.079 2246.24 789.701 2246.24C785.609 2246.24 781.393 2248.6 779.781 2251.94H779.657C779.657 2250.7 779.533 2248.53 779.409 2246.98H775.379ZM840.482 2261.49C840.482 2252.75 834.034 2246.24 824.982 2246.24C815.992 2246.24 809.544 2252.75 809.544 2261.49C809.544 2270.23 815.992 2276.74 824.982 2276.74C834.034 2276.74 840.482 2270.23 840.482 2261.49ZM836.018 2261.49C836.018 2268 831.74 2273.15 824.982 2273.15C818.286 2273.15 814.008 2268 814.008 2261.49C814.008 2254.98 818.286 2249.77 824.982 2249.77C831.74 2249.77 836.018 2254.98 836.018 2261.49ZM845.586 2246.98L854.762 2276H859.35L866.976 2252.5H867.1L874.85 2276H879.438L888.614 2246.98H884.15L877.206 2270.54H877.082L869.146 2246.98H865.054L857.242 2270.54H857.118L850.112 2246.98H845.586ZM58.2953 2329.98L67.4714 2359H72.0594L79.6854 2335.5H79.8094L87.5594 2359H92.1474L101.323 2329.98H96.8593L89.9154 2353.54H89.7914L81.8554 2329.98H77.7633L69.9514 2353.54H69.8274L62.8214 2329.98H58.2953ZM137.351 2344.49C137.351 2335.75 130.903 2329.24 121.851 2329.24C112.861 2329.24 106.413 2335.75 106.413 2344.49C106.413 2353.23 112.861 2359.74 121.851 2359.74C130.903 2359.74 137.351 2353.23 137.351 2344.49ZM132.887 2344.49C132.887 2351 128.609 2356.15 121.851 2356.15C115.155 2356.15 110.877 2351 110.877 2344.49C110.877 2337.98 115.155 2332.77 121.851 2332.77C128.609 2332.77 132.887 2337.98 132.887 2344.49ZM146.424 2336.37V2359H150.64V2344.12C150.64 2336.37 154.67 2333.15 159.134 2333.15C160.25 2333.15 161.614 2333.33 162.11 2333.52L162.668 2329.55C161.8 2329.3 160.932 2329.24 159.878 2329.24C155.786 2329.24 152.19 2331.6 150.578 2334.94H150.454C150.454 2333.7 150.33 2331.53 150.206 2329.98H146.176C146.362 2331.97 146.424 2334.82 146.424 2336.37ZM173.105 2312.13H168.889V2359H173.105V2343.75H173.291L188.047 2359H194.247L178.127 2343.25L192.759 2329.98H186.683L173.291 2343.07H173.105V2312.13ZM204.649 2329.98H200.433V2359H204.649V2329.98ZM205.517 2318.82C205.517 2317.09 204.029 2315.85 202.541 2315.85C201.053 2315.85 199.565 2317.09 199.565 2318.82C199.565 2320.56 201.053 2321.8 202.541 2321.8C204.029 2321.8 205.517 2320.56 205.517 2318.82ZM215.623 2329.98C215.809 2331.97 215.871 2334.82 215.871 2336.37V2359H220.087V2344.12C220.087 2336.37 224.427 2332.77 228.891 2332.77C234.967 2332.77 236.765 2336.87 236.765 2342.94V2359H240.981V2341.21C240.981 2334.01 237.323 2329.24 229.945 2329.24C225.853 2329.24 221.637 2331.6 220.025 2334.94H219.901C219.901 2333.7 219.777 2331.53 219.653 2329.98H215.623ZM261.94 2315.1H258.22V2323.97L249.54 2321.18L248.238 2324.65L256.98 2327.44L251.4 2334.94L254.376 2337.18L260.08 2329.49L265.784 2337.18L268.76 2334.94L263.18 2327.44L271.922 2324.65L270.62 2321.18L261.94 2323.97V2315.1ZM58.2953 2412.98L67.4714 2442H72.0594L79.6854 2418.5H79.8094L87.5594 2442H92.1474L101.323 2412.98H96.8593L89.9154 2436.54H89.7914L81.8554 2412.98H77.7633L69.9514 2436.54H69.8274L62.8214 2412.98H58.2953ZM137.351 2427.49C137.351 2418.75 130.903 2412.24 121.851 2412.24C112.861 2412.24 106.413 2418.75 106.413 2427.49C106.413 2436.23 112.861 2442.74 121.851 2442.74C130.903 2442.74 137.351 2436.23 137.351 2427.49ZM132.887 2427.49C132.887 2434 128.609 2439.15 121.851 2439.15C115.155 2439.15 110.877 2434 110.877 2427.49C110.877 2420.98 115.155 2415.77 121.851 2415.77C128.609 2415.77 132.887 2420.98 132.887 2427.49ZM146.424 2419.37V2442H150.64V2427.12C150.64 2419.37 154.67 2416.15 159.134 2416.15C160.25 2416.15 161.614 2416.33 162.11 2416.52L162.668 2412.55C161.8 2412.3 160.932 2412.24 159.878 2412.24C155.786 2412.24 152.19 2414.6 150.578 2417.94H150.454C150.454 2416.7 150.33 2414.53 150.206 2412.98H146.176C146.362 2414.97 146.424 2417.82 146.424 2419.37ZM173.105 2395.13H168.889V2442H173.105V2426.75H173.291L188.047 2442H194.247L178.127 2426.25L192.759 2412.98H186.683L173.291 2426.07H173.105V2395.13ZM204.649 2412.98H200.433V2442H204.649V2412.98ZM205.517 2401.82C205.517 2400.09 204.029 2398.85 202.541 2398.85C201.053 2398.85 199.565 2400.09 199.565 2401.82C199.565 2403.56 201.053 2404.8 202.541 2404.8C204.029 2404.8 205.517 2403.56 205.517 2401.82ZM215.623 2412.98C215.809 2414.97 215.871 2417.82 215.871 2419.37V2442H220.087V2427.12C220.087 2419.37 224.427 2415.77 228.891 2415.77C234.967 2415.77 236.765 2419.87 236.765 2425.94V2442H240.981V2424.21C240.981 2417.01 237.323 2412.24 229.945 2412.24C225.853 2412.24 221.637 2414.6 220.025 2417.94H219.901C219.901 2416.7 219.777 2414.53 219.653 2412.98H215.623ZM250.408 2451.05C253.818 2454.65 259.026 2456.88 264.358 2456.88C277.192 2456.88 280.106 2448.08 280.106 2441.75V2412.98H275.89V2418.01H275.766C273.472 2414.29 269.008 2412.24 264.792 2412.24C255.74 2412.24 249.788 2419 249.788 2427.24C249.788 2435.74 255.74 2442 264.792 2442C269.008 2442 273.534 2439.89 275.766 2436.3H275.89V2441.75C275.89 2448.01 272.852 2453.16 264.544 2453.16C260.142 2453.16 255.74 2450.8 253.446 2447.83L250.408 2451.05ZM254.252 2427.12C254.252 2421.04 258.22 2415.77 265.226 2415.77C271.736 2415.77 276.386 2421.04 276.386 2427.12C276.386 2433.82 271.736 2438.4 265.226 2438.4C258.22 2438.4 254.252 2433.2 254.252 2427.12ZM301.114 2398.1H297.394V2406.97L288.714 2404.18L287.412 2407.65L296.154 2410.44L290.574 2417.94L293.55 2420.18L299.254 2412.49L304.958 2420.18L307.934 2417.94L302.354 2410.44L311.096 2407.65L309.794 2404.18L301.114 2406.97V2398.1Z" fill="black"/>
<path d="M47.3376 2490.8C44.9856 2494.3 41.2416 2495.84 37.3536 2495.84C28.6176 2495.84 23.2416 2488.93 23.2416 2481.01C23.2416 2473.09 28.5696 2466.18 37.3536 2466.18C41.6736 2466.18 45.0816 2468.43 46.5216 2470.64L49.4016 2468.53C47.0496 2465.22 42.2976 2463.15 37.3056 2463.15C27.1776 2463.15 19.5936 2470.69 19.5936 2481.01C19.5936 2491.33 27.0336 2498.86 37.3056 2498.86C43.4016 2498.86 47.7696 2495.94 50.0256 2492.53L47.3376 2490.8ZM59.1325 2479.23V2461.71H55.8685V2498H59.1325V2486.48C59.1325 2480.48 62.4925 2477.7 65.9485 2477.7C70.6525 2477.7 72.0445 2480.86 72.0445 2485.57V2498H75.3085V2484.22C75.3085 2478.66 72.4765 2474.96 66.7645 2474.96C63.5965 2474.96 60.4285 2476.64 59.2285 2479.23H59.1325ZM97.9168 2484.22C89.7088 2484.22 82.0768 2484.85 82.0768 2491.76C82.0768 2496.75 86.4448 2498.58 89.8528 2498.58C93.4528 2498.58 95.9488 2497.33 98.0128 2494.35H98.1088C98.1088 2495.55 98.2528 2496.9 98.4448 2498H101.373C101.133 2496.75 100.989 2494.69 100.989 2492.96V2483.12C100.989 2477.65 97.1008 2474.96 92.2528 2474.96C88.4128 2474.96 85.2448 2476.35 83.4208 2478.18L85.2448 2480.34C86.8288 2478.75 89.2768 2477.7 91.9168 2477.7C95.8048 2477.7 97.9168 2479.62 97.9168 2483.5V2484.22ZM97.9168 2486.77V2488.45C97.9168 2492.43 95.3248 2495.89 90.7168 2495.89C88.1728 2495.89 85.4368 2494.83 85.4368 2491.62C85.4368 2487.34 91.6288 2486.77 96.9568 2486.77H97.9168ZM119.057 2475.54H112.721V2469.2H109.457V2475.54H104.801V2478.27H109.457V2492.29C109.457 2497.23 112.817 2498.29 115.217 2498.29C116.705 2498.29 117.905 2498.05 119.057 2497.62L118.913 2494.78C118.049 2495.22 116.993 2495.5 116.081 2495.5C114.113 2495.5 112.721 2494.74 112.721 2491.38V2478.27H119.057V2475.54Z" fill="#FA046B"/>
<path d="M15.9012 2641.37H1416.08" stroke="#FA046B" stroke-width="9"/>
<path d="M97.5975 41.5625C82.2772 41.5625 69.8475 53.9922 69.8475 69.3125C69.8475 84.6328 82.2772 97.0625 97.5975 97.0625C112.918 97.0625 125.347 84.6328 125.347 69.3125C125.347 53.9922 112.918 41.5625 97.5975 41.5625ZM97.5975 83.1875C89.7928 83.1875 83.7225 77.1172 83.7225 69.3125C83.7225 61.7969 89.7928 55.4375 97.5975 55.4375C105.113 55.4375 111.472 61.7969 111.472 69.3125C111.472 77.1172 105.113 83.1875 97.5975 83.1875ZM97.5975 13.8125C57.9959 13.8125 25.91 45.8984 25.91 85.5C25.91 125.102 57.9959 157.188 97.5975 157.188C137.199 157.188 169.285 125.102 169.285 85.5C169.285 45.8984 137.199 13.8125 97.5975 13.8125ZM97.5975 143.312C83.1443 143.312 69.8475 138.109 59.7303 129.438C64.0662 122.789 71.5818 118.164 79.9647 118.164C86.035 119.898 91.8162 120.766 97.5975 120.766C103.09 120.766 108.871 119.898 114.941 118.164C123.324 118.453 130.84 122.789 135.176 129.438C125.058 138.109 111.762 143.312 97.5975 143.312ZM144.426 119.031C137.488 110.07 126.504 104 114.074 104C111.183 104 106.558 106.891 97.5975 106.891C88.3475 106.891 83.7225 104 80.8318 104C68.4022 104 57.4178 110.07 50.4803 119.031C43.5428 109.781 39.785 98.2188 39.785 85.5C39.785 53.7031 65.5115 27.6875 97.5975 27.6875C129.394 27.6875 155.41 53.7031 155.41 85.5C155.41 98.2188 151.363 109.781 144.426 119.031Z" fill="black"/>
</svg>
