<svg width="2680" height="1432" viewBox="0 0 2680 1432" fill="none" xmlns="http://www.w3.org/2000/svg">
<rect width="2680" height="1432" fill="#E5E5E5"/>
<rect y="1432" width="1432" height="2680" transform="rotate(-90 0 1432)" fill="white"/>
<path d="M71.424 1137.63C71.208 1138.21 71.136 1139.22 71.136 1140.15C71.136 1144.54 73.728 1148.07 77.328 1149.87V1150.02H72.144V1161.39H108V1149.58H89.568C86.616 1149.58 81.432 1147.5 81.432 1141.16C81.432 1140.22 81.504 1139.22 81.792 1138.14L71.424 1137.63ZM93.6 1112.8C98.064 1112.8 100.944 1115.47 100.944 1120.22C100.944 1122.59 100.008 1125.33 97.272 1125.33C93.024 1125.33 92.376 1119.5 92.376 1114.31V1112.8H93.6ZM83.448 1128.5C81.432 1126.34 79.776 1123.03 79.776 1119.64C79.776 1115.97 81.432 1113.16 84.96 1113.16H85.536C85.536 1123.6 87.264 1136.2 97.632 1136.2C106.056 1136.2 108.864 1128.86 108.864 1123.17C108.864 1118.92 107.136 1114.82 104.184 1113.02V1112.8H108V1102H89.928C76.896 1102 70.992 1106.47 70.992 1118.49C70.992 1124.32 73.08 1130.3 77.04 1134.47L83.448 1128.5ZM108 1035.59H85.824C79.056 1035.59 71.136 1038.9 71.136 1048.62C71.136 1053.95 73.512 1057.69 77.256 1060.07C73.368 1062.08 71.136 1065.68 71.136 1070.87C71.136 1076.27 74.088 1079.94 77.112 1081.6V1081.74H72.144V1093.19H108V1081.31H88.56C84.24 1081.31 80.856 1079.15 80.856 1075.4C80.856 1071.88 83.448 1070.29 87.552 1070.29H108V1058.48H88.632C84.6 1058.48 80.856 1056.54 80.856 1052.51C80.856 1048.33 84.312 1047.4 88.416 1047.4H108V1035.59ZM93.6 1005.51C98.064 1005.51 100.944 1008.17 100.944 1012.92C100.944 1015.3 100.008 1018.03 97.272 1018.03C93.024 1018.03 92.376 1012.2 92.376 1007.02V1005.51H93.6ZM83.448 1021.2C81.432 1019.04 79.776 1015.73 79.776 1012.35C79.776 1008.67 81.432 1005.87 84.96 1005.87H85.536C85.536 1016.31 87.264 1028.91 97.632 1028.91C106.056 1028.91 108.864 1021.56 108.864 1015.87C108.864 1011.63 107.136 1007.52 104.184 1005.72V1005.51H108V994.705H89.928C76.896 994.705 70.992 999.169 70.992 1011.19C70.992 1017.03 73.08 1023 77.04 1027.18L83.448 1021.2ZM108 950.468H85.824C78.624 950.468 71.136 953.924 71.136 963.572C71.136 968.54 73.944 972.644 77.112 974.3V974.444H72.144V985.892H108V974.012H88.56C84.456 974.012 80.856 971.852 80.856 967.676C80.856 963.428 84.456 962.348 88.416 962.348H108V950.468ZM101.664 928.061C97.704 928.061 94.608 931.373 94.608 935.261C94.608 939.293 97.848 942.605 101.736 942.605C105.696 942.605 108.72 939.221 108.72 935.261C108.72 931.373 105.624 928.061 101.664 928.061ZM89.928 879.979C79.92 879.979 71.136 886.459 71.136 896.899C71.136 902.155 73.584 905.827 75.96 907.843V907.987H53.568V919.795H108V908.923H103.32V908.779C106.92 906.475 109.008 901.795 109.008 897.043C109.008 886.243 99.936 879.979 89.928 879.979ZM89.928 891.355C94.608 891.355 99.216 894.235 99.216 899.851C99.216 905.179 94.68 908.491 90 908.491C85.464 908.491 80.784 905.179 80.784 899.851C80.784 894.235 85.32 891.355 89.928 891.355ZM108 836.982H85.824C78.624 836.982 71.136 840.366 71.136 850.086C71.136 855.054 73.8 858.798 76.68 860.382V860.526H53.568L53.568 872.334H108V860.526H88.632C84.384 860.526 81 858.222 81 854.118C81 849.87 84.528 848.862 88.56 848.862H108V836.982ZM93.6 806.872C98.064 806.872 100.944 809.536 100.944 814.288C100.944 816.664 100.008 819.4 97.272 819.4C93.024 819.4 92.376 813.568 92.376 808.384V806.872H93.6ZM83.448 822.568C81.432 820.408 79.776 817.096 79.776 813.712C79.776 810.04 81.432 807.232 84.96 807.232H85.536C85.536 817.672 87.264 830.272 97.632 830.272C106.056 830.272 108.864 822.928 108.864 817.24C108.864 812.992 107.136 808.888 104.184 807.088V806.872H108V796.072H89.928C76.896 796.072 70.992 800.536 70.992 812.56C70.992 818.392 73.08 824.368 77.04 828.544L83.448 822.568ZM81 766.722H72.144V775.146H62.712V786.738H72.144V792.426H81V786.666H96.12C103.752 786.666 108.864 783.498 108.864 773.922C108.864 771.402 108.36 768.666 107.784 767.082L99.144 767.226C99.504 768.09 99.72 769.53 99.72 770.682C99.72 774.066 97.992 775.146 94.68 775.146H81V766.722ZM81 741.691H72.144V750.115H62.712V761.707H72.144V767.395H81V761.635H96.12C103.752 761.635 108.864 758.467 108.864 748.891C108.864 746.371 108.36 743.635 107.784 742.051L99.144 742.195C99.504 743.059 99.72 744.499 99.72 745.651C99.72 749.035 97.992 750.115 94.68 750.115H81V741.691ZM60.696 723.326C57.096 723.326 54.216 726.35 54.216 730.094C54.216 733.91 57.24 736.862 60.696 736.862C64.224 736.862 67.176 733.91 67.176 730.094C67.176 726.35 64.368 723.326 60.696 723.326ZM108 724.19H72.144V735.998H108V724.19Z" fill="black"/>
<path d="M2213 1432V0H2457V1432H2213Z" fill="#DBDBDB"/>
<path d="M1921.76 147.669H1899.13V151.885H1946V147.669H1931.12C1923.37 147.669 1919.77 143.329 1919.77 138.865C1919.77 132.789 1923.87 130.991 1929.94 130.991H1946V126.775H1928.21C1921.01 126.775 1916.24 130.433 1916.24 137.811C1916.24 141.903 1918.41 145.995 1921.76 147.545V147.669ZM1929.26 113.507C1924.3 113.135 1919.77 108.981 1919.77 103.339C1919.77 97.3248 1923.8 93.9768 1929.26 93.7288V113.507ZM1930.62 89.4508C1922.69 89.4508 1916.24 94.2248 1916.24 103.339C1916.24 111.585 1922.75 117.971 1931.49 117.971C1940.23 117.971 1946.74 111.585 1946.74 102.967C1946.74 98.1928 1944.95 93.9148 1940.61 90.5048L1938.13 93.6668C1940.73 95.2788 1943.15 98.6268 1943.15 102.967C1943.15 108.919 1938.44 113.445 1932.61 113.569V89.5128C1931.86 89.4508 1931.18 89.4508 1930.62 89.4508ZM1916.98 80.2583V84.9703L1945.94 72.5703L1952.01 74.9263C1955.3 76.1663 1957.16 77.6543 1957.16 80.5063C1957.16 81.6223 1956.97 82.6763 1956.66 83.6063L1960.51 84.0403C1960.76 82.8003 1960.88 81.4983 1960.88 80.2583C1960.88 75.2363 1957.97 72.8803 1953.5 71.1443L1916.98 56.6983V61.2863L1941.47 70.2763V70.4003L1916.98 80.2583ZM2004.76 564.898H1982.13V569.114H2029V564.898H2014.12C2006.37 564.898 2002.77 560.558 2002.77 556.094C2002.77 550.018 2006.87 548.22 2012.94 548.22H2029V544.004H2011.21C2004.01 544.004 1999.24 547.662 1999.24 555.04C1999.24 559.132 2001.41 563.224 2004.76 564.774V564.898ZM2012.26 530.735C2007.3 530.363 2002.77 526.209 2002.77 520.567C2002.77 514.553 2006.8 511.205 2012.26 510.957V530.735ZM2013.62 506.679C2005.69 506.679 1999.24 511.453 1999.24 520.567C1999.24 528.813 2005.75 535.199 2014.49 535.199C2023.23 535.199 2029.74 528.813 2029.74 520.195C2029.74 515.421 2027.95 511.143 2023.61 507.733L2021.13 510.895C2023.73 512.507 2026.15 515.855 2026.15 520.195C2026.15 526.147 2021.44 530.673 2015.61 530.797V506.741C2014.86 506.679 2014.18 506.679 2013.62 506.679ZM1999.98 497.487V502.199L2028.94 489.799L2035.01 492.155C2038.3 493.395 2040.16 494.883 2040.16 497.735C2040.16 498.851 2039.97 499.905 2039.66 500.835L2043.51 501.269C2043.76 500.029 2043.88 498.727 2043.88 497.487C2043.88 492.465 2040.97 490.109 2036.5 488.373L1999.98 473.927V478.515L2024.47 487.505V487.629L1999.98 497.487ZM1999.98 438.755V446.939H1991.8V451.155H1999.98V457.169H2003.52V451.155H2021.62C2028.01 451.155 2029.37 446.815 2029.37 443.715C2029.37 441.793 2029.06 440.243 2028.5 438.755L2024.85 438.941C2025.4 440.057 2025.78 441.421 2025.78 442.599C2025.78 445.141 2024.78 446.939 2020.44 446.939H2003.52V438.755H1999.98ZM2004.76 427.82H1982.13V432.036H2029V427.82H2014.12C2006.37 427.82 2002.77 423.48 2002.77 419.016C2002.77 412.94 2006.87 411.142 2012.94 411.142H2029V406.926H2011.21C2004.01 406.926 1999.24 410.584 1999.24 417.962C1999.24 422.054 2001.41 426.146 2004.76 427.696V427.82ZM1999.98 391.735V395.951H2029V391.735H1999.98ZM1988.82 390.867C1987.09 390.867 1985.85 392.355 1985.85 393.843C1985.85 395.331 1987.09 396.819 1988.82 396.819C1990.56 396.819 1991.8 395.331 1991.8 393.843C1991.8 392.355 1990.56 390.867 1988.82 390.867ZM2004.45 361.851C2001.16 363.711 1999.24 367.989 1999.24 372.019C1999.24 377.289 2001.78 382.373 2007.67 382.373C2013.19 382.373 2014.68 377.475 2015.48 374.065C2016.79 368.547 2018.03 365.509 2021.06 365.509C2024.85 365.509 2026.15 368.733 2026.15 372.329C2026.15 375.739 2024.16 378.901 2021.62 380.389L2024.1 383.737C2028.01 381.071 2029.74 376.669 2029.74 372.267C2029.74 366.935 2027.39 361.355 2020.75 361.355C2016.23 361.355 2013.69 364.579 2012.26 371.399C2011.27 376.173 2010.03 378.343 2007.3 378.343C2004.08 378.343 2002.77 375.243 2002.77 372.205C2002.77 368.981 2004.45 366.315 2006.87 365.075L2004.45 361.851ZM1999.98 333.186V337.402H2029V333.186H1999.98ZM1988.82 332.318C1987.09 332.318 1985.85 333.806 1985.85 335.294C1985.85 336.782 1987.09 338.27 1988.82 338.27C1990.56 338.27 1991.8 336.782 1991.8 335.294C1991.8 333.806 1990.56 332.318 1988.82 332.318ZM2004.45 303.302C2001.16 305.162 1999.24 309.44 1999.24 313.47C1999.24 318.74 2001.78 323.824 2007.67 323.824C2013.19 323.824 2014.68 318.926 2015.48 315.516C2016.79 309.998 2018.03 306.96 2021.06 306.96C2024.85 306.96 2026.15 310.184 2026.15 313.78C2026.15 317.19 2024.16 320.352 2021.62 321.84L2024.1 325.188C2028.01 322.522 2029.74 318.12 2029.74 313.718C2029.74 308.386 2027.39 302.806 2020.75 302.806C2016.23 302.806 2013.69 306.03 2012.26 312.85C2011.27 317.624 2010.03 319.794 2007.3 319.794C2004.08 319.794 2002.77 316.694 2002.77 313.656C2002.77 310.432 2004.45 307.766 2006.87 306.526L2004.45 303.302ZM1999.98 282.884L2029 273.708V269.12L2005.5 261.494V261.37L2029 253.62V249.032L1999.98 239.856V244.32L2023.54 251.264V251.388L1999.98 259.324V263.416L2023.54 271.228V271.352L1999.98 278.358V282.884ZM2014.49 203.828C2005.75 203.828 1999.24 210.276 1999.24 219.328C1999.24 228.318 2005.75 234.766 2014.49 234.766C2023.23 234.766 2029.74 228.318 2029.74 219.328C2029.74 210.276 2023.23 203.828 2014.49 203.828ZM2014.49 208.292C2021 208.292 2026.15 212.57 2026.15 219.328C2026.15 226.024 2021 230.302 2014.49 230.302C2007.98 230.302 2002.77 226.024 2002.77 219.328C2002.77 212.57 2007.98 208.292 2014.49 208.292ZM2006.37 194.755H2029V190.539H2014.12C2006.37 190.539 2003.15 186.509 2003.15 182.045C2003.15 180.929 2003.33 179.565 2003.52 179.069L1999.55 178.511C1999.3 179.379 1999.24 180.247 1999.24 181.301C1999.24 185.393 2001.6 188.989 2004.94 190.601V190.725C2003.7 190.725 2001.53 190.849 1999.98 190.973V195.003C2001.97 194.817 2004.82 194.755 2006.37 194.755ZM1982.13 168.074V172.29H2029V168.074H2013.75V167.888L2029 153.132V146.932L2013.25 163.052L1999.98 148.42V154.496L2013.07 167.888V168.074H1982.13ZM1999.98 136.53V140.746H2029V136.53H1999.98ZM1988.82 135.662C1987.09 135.662 1985.85 137.15 1985.85 138.638C1985.85 140.126 1987.09 141.614 1988.82 141.614C1990.56 141.614 1991.8 140.126 1991.8 138.638C1991.8 137.15 1990.56 135.662 1988.82 135.662ZM1999.98 125.556C2001.97 125.37 2004.82 125.308 2006.37 125.308H2029V121.092H2014.12C2006.37 121.092 2002.77 116.752 2002.77 112.288C2002.77 106.212 2006.87 104.414 2012.94 104.414H2029V100.198H2011.21C2004.01 100.198 1999.24 103.856 1999.24 111.234C1999.24 115.326 2001.6 119.542 2004.94 121.154V121.278C2003.7 121.278 2001.53 121.402 1999.98 121.526V125.556ZM2038.05 90.7707C2041.65 87.3607 2043.88 82.1527 2043.88 76.8207C2043.88 63.9867 2035.08 61.0727 2028.75 61.0727H1999.98V65.2887H2005.01V65.4127C2001.29 67.7067 1999.24 72.1707 1999.24 76.3867C1999.24 85.4387 2006 91.3907 2014.24 91.3907C2022.74 91.3907 2029 85.4387 2029 76.3867C2029 72.1707 2026.89 67.6447 2023.3 65.4127V65.2887H2028.75C2035.01 65.2887 2040.16 68.3267 2040.16 76.6347C2040.16 81.0367 2037.8 85.4387 2034.83 87.7327L2038.05 90.7707ZM2014.12 86.9267C2008.04 86.9267 2002.77 82.9587 2002.77 75.9527C2002.77 69.4427 2008.04 64.7927 2014.12 64.7927C2020.82 64.7927 2025.4 69.4427 2025.4 75.9527C2025.4 82.9587 2020.2 86.9267 2014.12 86.9267ZM2087.76 382.47H2065.13V386.686H2112V382.47H2097.12C2089.37 382.47 2085.77 378.13 2085.77 373.666C2085.77 367.59 2089.87 365.792 2095.94 365.792H2112V361.576H2094.21C2087.01 361.576 2082.24 365.234 2082.24 372.612C2082.24 376.704 2084.41 380.796 2087.76 382.346V382.47ZM2095.26 348.308C2090.3 347.936 2085.77 343.782 2085.77 338.14C2085.77 332.126 2089.8 328.778 2095.26 328.53V348.308ZM2096.62 324.252C2088.69 324.252 2082.24 329.026 2082.24 338.14C2082.24 346.386 2088.75 352.772 2097.49 352.772C2106.23 352.772 2112.74 346.386 2112.74 337.768C2112.74 332.994 2110.95 328.716 2106.61 325.306L2104.13 328.468C2106.73 330.08 2109.15 333.428 2109.15 337.768C2109.15 343.72 2104.44 348.246 2098.61 348.37V324.314C2097.86 324.252 2097.18 324.252 2096.62 324.252ZM2082.98 315.059V319.771L2111.94 307.371L2118.01 309.727C2121.3 310.967 2123.16 312.455 2123.16 315.307C2123.16 316.423 2122.97 317.477 2122.66 318.407L2126.51 318.841C2126.76 317.601 2126.88 316.299 2126.88 315.059C2126.88 310.037 2123.97 307.681 2119.5 305.945L2082.98 291.499V296.087L2107.47 305.077V305.201L2082.98 315.059ZM2087.76 265.07H2065.13V269.286H2112V265.07H2097.12C2089.37 265.07 2085.77 260.73 2085.77 256.266C2085.77 250.19 2089.87 248.392 2095.94 248.392H2112V244.176H2094.21C2087.01 244.176 2082.24 247.834 2082.24 255.212C2082.24 259.304 2084.41 263.396 2087.76 264.946V265.07ZM2095.26 230.907C2090.3 230.535 2085.77 226.381 2085.77 220.739C2085.77 214.725 2089.8 211.377 2095.26 211.129V230.907ZM2096.62 206.851C2088.69 206.851 2082.24 211.625 2082.24 220.739C2082.24 228.985 2088.75 235.371 2097.49 235.371C2106.23 235.371 2112.74 228.985 2112.74 220.367C2112.74 215.593 2110.95 211.315 2106.61 207.905L2104.13 211.067C2106.73 212.679 2109.15 216.027 2109.15 220.367C2109.15 226.319 2104.44 230.845 2098.61 230.969V206.913C2097.86 206.851 2097.18 206.851 2096.62 206.851ZM2082.98 197.659V202.371L2111.94 189.971L2118.01 192.327C2121.3 193.567 2123.16 195.055 2123.16 197.907C2123.16 199.023 2122.97 200.077 2122.66 201.007L2126.51 201.441C2126.76 200.201 2126.88 198.899 2126.88 197.659C2126.88 192.637 2123.97 190.281 2119.5 188.545L2082.98 174.099V178.687L2107.47 187.677V187.801L2082.98 197.659ZM2087.76 147.669H2065.13V151.885H2112V147.669H2097.12C2089.37 147.669 2085.77 143.329 2085.77 138.865C2085.77 132.789 2089.87 130.991 2095.94 130.991H2112V126.775H2094.21C2087.01 126.775 2082.24 130.433 2082.24 137.811C2082.24 141.903 2084.41 145.995 2087.76 147.545V147.669ZM2095.26 113.507C2090.3 113.135 2085.77 108.981 2085.77 103.339C2085.77 97.3248 2089.8 93.9768 2095.26 93.7288V113.507ZM2096.62 89.4508C2088.69 89.4508 2082.24 94.2248 2082.24 103.339C2082.24 111.585 2088.75 117.971 2097.49 117.971C2106.23 117.971 2112.74 111.585 2112.74 102.967C2112.74 98.1928 2110.95 93.9148 2106.61 90.5048L2104.13 93.6668C2106.73 95.2788 2109.15 98.6268 2109.15 102.967C2109.15 108.919 2104.44 113.445 2098.61 113.569V89.5128C2097.86 89.4508 2097.18 89.4508 2096.62 89.4508ZM2082.98 80.2583V84.9703L2111.94 72.5703L2118.01 74.9263C2121.3 76.1663 2123.16 77.6543 2123.16 80.5063C2123.16 81.6223 2122.97 82.6763 2122.66 83.6063L2126.51 84.0403C2126.76 82.8003 2126.88 81.4983 2126.88 80.2583C2126.88 75.2363 2123.97 72.8803 2119.5 71.1443L2082.98 56.6983V61.2863L2107.47 70.2763V70.4003L2082.98 80.2583ZM2170.76 400.271H2148.13V404.487H2195V400.271H2180.12C2172.37 400.271 2168.77 395.931 2168.77 391.467C2168.77 385.391 2172.87 383.593 2178.94 383.593H2195V379.377H2177.21C2170.01 379.377 2165.24 383.035 2165.24 390.413C2165.24 394.505 2167.41 398.597 2170.76 400.147V400.271ZM2178.26 366.108C2173.3 365.736 2168.77 361.582 2168.77 355.94C2168.77 349.926 2172.8 346.578 2178.26 346.33V366.108ZM2179.62 342.052C2171.69 342.052 2165.24 346.826 2165.24 355.94C2165.24 364.186 2171.75 370.572 2180.49 370.572C2189.23 370.572 2195.74 364.186 2195.74 355.568C2195.74 350.794 2193.95 346.516 2189.61 343.106L2187.13 346.268C2189.73 347.88 2192.15 351.228 2192.15 355.568C2192.15 361.52 2187.44 366.046 2181.61 366.17V342.114C2180.86 342.052 2180.18 342.052 2179.62 342.052ZM2165.98 332.86V337.572L2194.94 325.172L2201.01 327.528C2204.3 328.768 2206.16 330.256 2206.16 333.108C2206.16 334.224 2205.97 335.278 2205.66 336.208L2209.51 336.642C2209.76 335.402 2209.88 334.1 2209.88 332.86C2209.88 327.838 2206.97 325.482 2202.5 323.746L2165.98 309.3V313.888L2190.47 322.878V323.002L2165.98 332.86ZM2170.76 282.87H2148.13V287.086H2195V282.87H2180.12C2172.37 282.87 2168.77 278.53 2168.77 274.066C2168.77 267.99 2172.87 266.192 2178.94 266.192H2195V261.976H2177.21C2170.01 261.976 2165.24 265.634 2165.24 273.012C2165.24 277.104 2167.41 281.196 2170.76 282.746V282.87ZM2178.26 248.708C2173.3 248.336 2168.77 244.182 2168.77 238.54C2168.77 232.526 2172.8 229.178 2178.26 228.93V248.708ZM2179.62 224.652C2171.69 224.652 2165.24 229.426 2165.24 238.54C2165.24 246.786 2171.75 253.172 2180.49 253.172C2189.23 253.172 2195.74 246.786 2195.74 238.168C2195.74 233.394 2193.95 229.116 2189.61 225.706L2187.13 228.868C2189.73 230.48 2192.15 233.828 2192.15 238.168C2192.15 244.12 2187.44 248.646 2181.61 248.77V224.714C2180.86 224.652 2180.18 224.652 2179.62 224.652ZM2177.21 197.657C2177.21 208.259 2178.01 218.117 2186.94 218.117C2193.39 218.117 2195.74 212.475 2195.74 208.073C2195.74 203.423 2194.13 200.199 2190.29 197.533V197.409C2191.84 197.409 2193.57 197.223 2195 196.975V193.193C2193.39 193.503 2190.72 193.689 2188.49 193.689H2175.78C2168.71 193.689 2165.24 198.711 2165.24 204.973C2165.24 209.933 2167.04 214.025 2169.39 216.381L2172.18 214.025C2170.14 211.979 2168.77 208.817 2168.77 205.407C2168.77 200.385 2171.25 197.657 2176.28 197.657H2177.21ZM2180.49 197.657H2182.66C2187.81 197.657 2192.27 201.005 2192.27 206.957C2192.27 210.243 2190.91 213.777 2186.75 213.777C2181.24 213.777 2180.49 205.779 2180.49 198.897V197.657ZM2148.13 178.488V182.704H2195V178.488H2148.13ZM2177.21 148.917C2177.21 159.519 2178.01 169.377 2186.94 169.377C2193.39 169.377 2195.74 163.735 2195.74 159.333C2195.74 154.683 2194.13 151.459 2190.29 148.793V148.669C2191.84 148.669 2193.57 148.483 2195 148.235V144.453C2193.39 144.763 2190.72 144.949 2188.49 144.949H2175.78C2168.71 144.949 2165.24 149.971 2165.24 156.233C2165.24 161.193 2167.04 165.285 2169.39 167.641L2172.18 165.285C2170.14 163.239 2168.77 160.077 2168.77 156.667C2168.77 151.645 2171.25 148.917 2176.28 148.917H2177.21ZM2180.49 148.917H2182.66C2187.81 148.917 2192.27 152.265 2192.27 158.217C2192.27 161.503 2190.91 165.037 2186.75 165.037C2181.24 165.037 2180.49 157.039 2180.49 150.157V148.917ZM2165.98 121.811V128.631H2158.54C2154.33 128.631 2151.1 127.701 2151.1 123.175C2151.1 122.059 2151.29 121.129 2151.54 120.261L2147.82 119.517C2147.51 120.571 2147.38 121.935 2147.38 122.989C2147.38 129.623 2151.48 132.847 2158.05 132.847H2165.98V138.923H2169.52V132.847H2195V128.631H2169.52V121.811H2165.98ZM2168.96 108.734C2167.22 108.734 2165.61 110.098 2165.61 112.082C2165.61 114.066 2167.22 115.43 2168.96 115.43C2170.7 115.43 2172.31 114.066 2172.31 112.082C2172.31 110.098 2170.7 108.734 2168.96 108.734ZM2189.11 109.044V113.632L2203.68 117.786V114.066L2189.11 109.044ZM2165.98 92.9364V97.1524H2195V92.9364H2165.98ZM2154.82 92.0684C2153.09 92.0684 2151.85 93.5564 2151.85 95.0444C2151.85 96.5324 2153.09 98.0204 2154.82 98.0204C2156.56 98.0204 2157.8 96.5324 2157.8 95.0444C2157.8 93.5564 2156.56 92.0684 2154.82 92.0684ZM2148.13 77.3744V81.5904H2195V77.3744H2179.75V77.1884L2195 62.4324V56.2324L2179.25 72.3524L2165.98 57.7204V63.7964L2179.07 77.1884V77.3744H2148.13Z" fill="black"/>
<path d="M2246.98 1373.7L2276 1364.53V1359.94L2252.5 1352.31V1352.19L2276 1344.44V1339.85L2246.98 1330.68V1335.14L2270.54 1342.08V1342.21L2246.98 1350.14V1354.24L2270.54 1362.05V1362.17L2246.98 1369.18V1373.7ZM2259.26 1321.12C2254.3 1320.75 2249.77 1316.6 2249.77 1310.95C2249.77 1304.94 2253.8 1301.59 2259.26 1301.34V1321.12ZM2260.62 1297.07C2252.69 1297.07 2246.24 1301.84 2246.24 1310.95C2246.24 1319.2 2252.75 1325.59 2261.49 1325.59C2270.23 1325.59 2276.74 1319.2 2276.74 1310.58C2276.74 1305.81 2274.95 1301.53 2270.61 1298.12L2268.13 1301.28C2270.73 1302.89 2273.15 1306.24 2273.15 1310.58C2273.15 1316.53 2268.44 1321.06 2262.61 1321.18V1297.13C2261.86 1297.07 2261.18 1297.07 2260.62 1297.07ZM2229.13 1283.66V1287.87H2276V1283.66H2229.13ZM2229.13 1268.04V1272.25H2276V1268.04H2229.13ZM2229.13 1236.92V1241.13H2276V1236.92H2229.13ZM2261.49 1196.81C2252.75 1196.81 2246.24 1203.25 2246.24 1212.31C2246.24 1221.3 2252.75 1227.74 2261.49 1227.74C2270.23 1227.74 2276.74 1221.3 2276.74 1212.31C2276.74 1203.25 2270.23 1196.81 2261.49 1196.81ZM2261.49 1201.27C2268 1201.27 2273.15 1205.55 2273.15 1212.31C2273.15 1219 2268 1223.28 2261.49 1223.28C2254.98 1223.28 2249.77 1219 2249.77 1212.31C2249.77 1205.55 2254.98 1201.27 2261.49 1201.27ZM2261.49 1158.9C2252.75 1158.9 2246.24 1165.35 2246.24 1174.4C2246.24 1183.39 2252.75 1189.84 2261.49 1189.84C2270.23 1189.84 2276.74 1183.39 2276.74 1174.4C2276.74 1165.35 2270.23 1158.9 2261.49 1158.9ZM2261.49 1163.37C2268 1163.37 2273.15 1167.64 2273.15 1174.4C2273.15 1181.1 2268 1185.38 2261.49 1185.38C2254.98 1185.38 2249.77 1181.1 2249.77 1174.4C2249.77 1167.64 2254.98 1163.37 2261.49 1163.37ZM2229.13 1145.49V1149.71H2276V1145.49H2260.75V1145.3L2276 1130.55V1124.35L2260.25 1140.47L2246.98 1125.84V1131.91L2260.07 1145.3V1145.49H2229.13ZM2251.45 1099.93C2248.16 1101.79 2246.24 1106.06 2246.24 1110.09C2246.24 1115.36 2248.78 1120.45 2254.67 1120.45C2260.19 1120.45 2261.68 1115.55 2262.48 1112.14C2263.79 1106.62 2265.03 1103.58 2268.06 1103.58C2271.85 1103.58 2273.15 1106.81 2273.15 1110.4C2273.15 1113.81 2271.16 1116.98 2268.62 1118.46L2271.1 1121.81C2275.01 1119.15 2276.74 1114.74 2276.74 1110.34C2276.74 1105.01 2274.39 1099.43 2267.75 1099.43C2263.23 1099.43 2260.69 1102.65 2259.26 1109.47C2258.27 1114.25 2257.03 1116.42 2254.3 1116.42C2251.08 1116.42 2249.77 1113.32 2249.77 1110.28C2249.77 1107.06 2251.45 1104.39 2253.87 1103.15L2251.45 1099.93ZM2229.13 1071.2V1075.42H2276V1071.2H2229.13ZM2246.98 1055.64V1059.86H2276V1055.64H2246.98ZM2235.82 1054.77C2234.09 1054.77 2232.85 1056.26 2232.85 1057.75C2232.85 1059.24 2234.09 1060.72 2235.82 1060.72C2237.56 1060.72 2238.8 1059.24 2238.8 1057.75C2238.8 1056.26 2237.56 1054.77 2235.82 1054.77ZM2229.13 1040.08V1044.29H2276V1040.08H2260.75V1039.89L2276 1025.14V1018.94L2260.25 1035.06L2246.98 1020.42V1026.5L2260.07 1039.89V1040.08H2229.13ZM2259.26 1011.55C2254.3 1011.17 2249.77 1007.02 2249.77 1001.38C2249.77 995.365 2253.8 992.017 2259.26 991.769V1011.55ZM2260.62 987.491C2252.69 987.491 2246.24 992.265 2246.24 1001.38C2246.24 1009.62 2252.75 1016.01 2261.49 1016.01C2270.23 1016.01 2276.74 1009.62 2276.74 1001.01C2276.74 996.233 2274.95 991.955 2270.61 988.545L2268.13 991.707C2270.73 993.319 2273.15 996.667 2273.15 1001.01C2273.15 1006.96 2268.44 1011.48 2262.61 1011.61V987.553C2261.86 987.491 2261.18 987.491 2260.62 987.491ZM2246.98 958.644V962.86H2276V958.644H2246.98ZM2235.82 957.776C2234.09 957.776 2232.85 959.264 2232.85 960.752C2232.85 962.24 2234.09 963.728 2235.82 963.728C2237.56 963.728 2238.8 962.24 2238.8 960.752C2238.8 959.264 2237.56 957.776 2235.82 957.776ZM2246.98 934.34V942.524H2238.8V946.74H2246.98V952.754H2250.52V946.74H2268.62C2275.01 946.74 2276.37 942.4 2276.37 939.3C2276.37 937.378 2276.06 935.828 2275.5 934.34L2271.85 934.526C2272.4 935.642 2272.78 937.006 2272.78 938.184C2272.78 940.726 2271.78 942.524 2267.44 942.524H2250.52V934.34H2246.98ZM2251.45 909.082C2248.16 910.942 2246.24 915.22 2246.24 919.25C2246.24 924.52 2248.78 929.604 2254.67 929.604C2260.19 929.604 2261.68 924.706 2262.48 921.296C2263.79 915.778 2265.03 912.74 2268.06 912.74C2271.85 912.74 2273.15 915.964 2273.15 919.56C2273.15 922.97 2271.16 926.132 2268.62 927.62L2271.1 930.968C2275.01 928.302 2276.74 923.9 2276.74 919.498C2276.74 914.166 2274.39 908.586 2267.75 908.586C2263.23 908.586 2260.69 911.81 2259.26 918.63C2258.27 923.404 2257.03 925.574 2254.3 925.574C2251.08 925.574 2249.77 922.474 2249.77 919.436C2249.77 916.212 2251.45 913.546 2253.87 912.306L2251.45 909.082ZM2246.98 888.664L2276 879.488V874.9L2252.5 867.274V867.15L2276 859.4V854.812L2246.98 845.636V850.1L2270.54 857.044V857.168L2246.98 865.104V869.196L2270.54 877.008V877.132L2246.98 884.138V888.664ZM2261.49 809.608C2252.75 809.608 2246.24 816.056 2246.24 825.108C2246.24 834.098 2252.75 840.546 2261.49 840.546C2270.23 840.546 2276.74 834.098 2276.74 825.108C2276.74 816.056 2270.23 809.608 2261.49 809.608ZM2261.49 814.072C2268 814.072 2273.15 818.35 2273.15 825.108C2273.15 831.804 2268 836.082 2261.49 836.082C2254.98 836.082 2249.77 831.804 2249.77 825.108C2249.77 818.35 2254.98 814.072 2261.49 814.072ZM2253.37 800.536H2276V796.32H2261.12C2253.37 796.32 2250.15 792.29 2250.15 787.826C2250.15 786.71 2250.33 785.346 2250.52 784.85L2246.55 784.292C2246.3 785.16 2246.24 786.028 2246.24 787.082C2246.24 791.174 2248.6 794.77 2251.94 796.382V796.506C2250.7 796.506 2248.53 796.63 2246.98 796.754V800.784C2248.97 800.598 2251.82 800.536 2253.37 800.536ZM2229.13 773.854V778.07H2276V773.854H2229.13ZM2246.98 758.295V762.511H2276V758.295H2246.98ZM2235.82 757.427C2234.09 757.427 2232.85 758.915 2232.85 760.403C2232.85 761.891 2234.09 763.379 2235.82 763.379C2237.56 763.379 2238.8 761.891 2238.8 760.403C2238.8 758.915 2237.56 757.427 2235.82 757.427ZM2246.98 747.321C2248.97 747.135 2251.82 747.073 2253.37 747.073H2276V742.857H2261.12C2253.37 742.857 2249.77 738.517 2249.77 734.053C2249.77 727.977 2253.87 726.179 2259.94 726.179H2276V721.963H2258.21C2251.01 721.963 2246.24 725.621 2246.24 732.999C2246.24 737.091 2248.6 741.307 2251.94 742.919V743.043C2250.7 743.043 2248.53 743.167 2246.98 743.291V747.321ZM2285.05 712.535C2288.65 709.125 2290.88 703.917 2290.88 698.585C2290.88 685.751 2282.08 682.837 2275.75 682.837H2246.98V687.053H2252.01V687.177C2248.29 689.471 2246.24 693.935 2246.24 698.151C2246.24 707.203 2253 713.155 2261.24 713.155C2269.74 713.155 2276 707.203 2276 698.151C2276 693.935 2273.89 689.409 2270.3 687.177V687.053H2275.75C2282.01 687.053 2287.16 690.091 2287.16 698.399C2287.16 702.801 2284.8 707.203 2281.83 709.497L2285.05 712.535ZM2261.12 708.691C2255.04 708.691 2249.77 704.723 2249.77 697.717C2249.77 691.207 2255.04 686.557 2261.12 686.557C2267.82 686.557 2272.4 691.207 2272.4 697.717C2272.4 704.723 2267.2 708.691 2261.12 708.691ZM2246.98 656.621C2248.97 656.435 2251.82 656.373 2253.37 656.373H2276V652.157H2261.12C2253.37 652.157 2249.77 647.817 2249.77 643.353C2249.77 637.277 2253.87 635.479 2259.94 635.479H2276V631.263H2258.21C2251.01 631.263 2246.24 634.921 2246.24 642.299C2246.24 646.391 2248.6 650.607 2251.94 652.219V652.343C2250.7 652.343 2248.53 652.467 2246.98 652.591V656.621ZM2261.49 591.518C2252.75 591.518 2246.24 597.966 2246.24 607.018C2246.24 616.008 2252.75 622.456 2261.49 622.456C2270.23 622.456 2276.74 616.008 2276.74 607.018C2276.74 597.966 2270.23 591.518 2261.49 591.518ZM2261.49 595.982C2268 595.982 2273.15 600.26 2273.15 607.018C2273.15 613.714 2268 617.992 2261.49 617.992C2254.98 617.992 2249.77 613.714 2249.77 607.018C2249.77 600.26 2254.98 595.982 2261.49 595.982ZM2246.98 586.414L2276 577.238V572.65L2252.5 565.024V564.9L2276 557.15V552.562L2246.98 543.386V547.85L2270.54 554.794V554.918L2246.98 562.854V566.946L2270.54 574.758V574.882L2246.98 581.888V586.414ZM2329.98 1373.7L2359 1364.53V1359.94L2335.5 1352.31V1352.19L2359 1344.44V1339.85L2329.98 1330.68V1335.14L2353.54 1342.08V1342.21L2329.98 1350.14V1354.24L2353.54 1362.05V1362.17L2329.98 1369.18V1373.7ZM2344.49 1294.65C2335.75 1294.65 2329.24 1301.1 2329.24 1310.15C2329.24 1319.14 2335.75 1325.59 2344.49 1325.59C2353.23 1325.59 2359.74 1319.14 2359.74 1310.15C2359.74 1301.1 2353.23 1294.65 2344.49 1294.65ZM2344.49 1299.11C2351 1299.11 2356.15 1303.39 2356.15 1310.15C2356.15 1316.84 2351 1321.12 2344.49 1321.12C2337.98 1321.12 2332.77 1316.84 2332.77 1310.15C2332.77 1303.39 2337.98 1299.11 2344.49 1299.11ZM2336.37 1285.58H2359V1281.36H2344.12C2336.37 1281.36 2333.15 1277.33 2333.15 1272.87C2333.15 1271.75 2333.33 1270.39 2333.52 1269.89L2329.55 1269.33C2329.3 1270.2 2329.24 1271.07 2329.24 1272.12C2329.24 1276.21 2331.6 1279.81 2334.94 1281.42V1281.55C2333.7 1281.55 2331.53 1281.67 2329.98 1281.79V1285.82C2331.97 1285.64 2334.82 1285.58 2336.37 1285.58ZM2312.13 1258.89V1263.11H2359V1258.89H2343.75V1258.71L2359 1243.95V1237.75L2343.25 1253.87L2329.98 1239.24V1245.32L2343.07 1258.71V1258.89H2312.13ZM2329.98 1227.35V1231.57H2359V1227.35H2329.98ZM2318.82 1226.48C2317.09 1226.48 2315.85 1227.97 2315.85 1229.46C2315.85 1230.95 2317.09 1232.44 2318.82 1232.44C2320.56 1232.44 2321.8 1230.95 2321.8 1229.46C2321.8 1227.97 2320.56 1226.48 2318.82 1226.48ZM2329.98 1216.38C2331.97 1216.19 2334.82 1216.13 2336.37 1216.13H2359V1211.91H2344.12C2336.37 1211.91 2332.77 1207.57 2332.77 1203.11C2332.77 1197.03 2336.87 1195.24 2342.94 1195.24H2359V1191.02H2341.21C2334.01 1191.02 2329.24 1194.68 2329.24 1202.06C2329.24 1206.15 2331.6 1210.36 2334.94 1211.98V1212.1C2333.7 1212.1 2331.53 1212.22 2329.98 1212.35V1216.38ZM2315.1 1170.06V1173.78H2323.97L2321.18 1182.46L2324.65 1183.76L2327.44 1175.02L2334.94 1180.6L2337.18 1177.62L2329.49 1171.92L2337.18 1166.22L2334.94 1163.24L2327.44 1168.82L2324.65 1160.08L2321.18 1161.38L2323.97 1170.06H2315.1ZM2412.98 1373.7L2442 1364.53V1359.94L2418.5 1352.31V1352.19L2442 1344.44V1339.85L2412.98 1330.68V1335.14L2436.54 1342.08V1342.21L2412.98 1350.14V1354.24L2436.54 1362.05V1362.17L2412.98 1369.18V1373.7ZM2427.49 1294.65C2418.75 1294.65 2412.24 1301.1 2412.24 1310.15C2412.24 1319.14 2418.75 1325.59 2427.49 1325.59C2436.23 1325.59 2442.74 1319.14 2442.74 1310.15C2442.74 1301.1 2436.23 1294.65 2427.49 1294.65ZM2427.49 1299.11C2434 1299.11 2439.15 1303.39 2439.15 1310.15C2439.15 1316.84 2434 1321.12 2427.49 1321.12C2420.98 1321.12 2415.77 1316.84 2415.77 1310.15C2415.77 1303.39 2420.98 1299.11 2427.49 1299.11ZM2419.37 1285.58H2442V1281.36H2427.12C2419.37 1281.36 2416.15 1277.33 2416.15 1272.87C2416.15 1271.75 2416.33 1270.39 2416.52 1269.89L2412.55 1269.33C2412.3 1270.2 2412.24 1271.07 2412.24 1272.12C2412.24 1276.21 2414.6 1279.81 2417.94 1281.42V1281.55C2416.7 1281.55 2414.53 1281.67 2412.98 1281.79V1285.82C2414.97 1285.64 2417.82 1285.58 2419.37 1285.58ZM2395.13 1258.89V1263.11H2442V1258.89H2426.75V1258.71L2442 1243.95V1237.75L2426.25 1253.87L2412.98 1239.24V1245.32L2426.07 1258.71V1258.89H2395.13ZM2412.98 1227.35V1231.57H2442V1227.35H2412.98ZM2401.82 1226.48C2400.09 1226.48 2398.85 1227.97 2398.85 1229.46C2398.85 1230.95 2400.09 1232.44 2401.82 1232.44C2403.56 1232.44 2404.8 1230.95 2404.8 1229.46C2404.8 1227.97 2403.56 1226.48 2401.82 1226.48ZM2412.98 1216.38C2414.97 1216.19 2417.82 1216.13 2419.37 1216.13H2442V1211.91H2427.12C2419.37 1211.91 2415.77 1207.57 2415.77 1203.11C2415.77 1197.03 2419.87 1195.24 2425.94 1195.24H2442V1191.02H2424.21C2417.01 1191.02 2412.24 1194.68 2412.24 1202.06C2412.24 1206.15 2414.6 1210.36 2417.94 1211.98V1212.1C2416.7 1212.1 2414.53 1212.22 2412.98 1212.35V1216.38ZM2451.05 1181.59C2454.65 1178.18 2456.88 1172.97 2456.88 1167.64C2456.88 1154.81 2448.08 1151.89 2441.75 1151.89H2412.98V1156.11H2418.01V1156.23C2414.29 1158.53 2412.24 1162.99 2412.24 1167.21C2412.24 1176.26 2419 1182.21 2427.24 1182.21C2435.74 1182.21 2442 1176.26 2442 1167.21C2442 1162.99 2439.89 1158.47 2436.3 1156.23V1156.11H2441.75C2448.01 1156.11 2453.16 1159.15 2453.16 1167.46C2453.16 1171.86 2450.8 1176.26 2447.83 1178.55L2451.05 1181.59ZM2427.12 1177.75C2421.04 1177.75 2415.77 1173.78 2415.77 1166.77C2415.77 1160.26 2421.04 1155.61 2427.12 1155.61C2433.82 1155.61 2438.4 1160.26 2438.4 1166.77C2438.4 1173.78 2433.2 1177.75 2427.12 1177.75ZM2398.1 1130.89V1134.61H2406.97L2404.18 1143.29L2407.65 1144.59L2410.44 1135.85L2417.94 1141.43L2420.18 1138.45L2412.49 1132.75L2420.18 1127.04L2417.94 1124.07L2410.44 1129.65L2407.65 1120.9L2404.18 1122.21L2406.97 1130.89H2398.1Z" fill="black"/>
<path d="M2490.8 1384.66C2494.3 1387.01 2495.84 1390.76 2495.84 1394.65C2495.84 1403.38 2488.93 1408.76 2481.01 1408.76C2473.09 1408.76 2466.18 1403.43 2466.18 1394.65C2466.18 1390.33 2468.43 1386.92 2470.64 1385.48L2468.53 1382.6C2465.22 1384.95 2463.15 1389.7 2463.15 1394.69C2463.15 1404.82 2470.69 1412.41 2481.01 1412.41C2491.33 1412.41 2498.86 1404.97 2498.86 1394.69C2498.86 1388.6 2495.94 1384.23 2492.53 1381.97L2490.8 1384.66ZM2479.23 1372.87H2461.71V1376.13H2498V1372.87H2486.48C2480.48 1372.87 2477.7 1369.51 2477.7 1366.05C2477.7 1361.35 2480.86 1359.96 2485.57 1359.96H2498V1356.69H2484.22C2478.66 1356.69 2474.96 1359.52 2474.96 1365.24C2474.96 1368.4 2476.64 1371.57 2479.23 1372.77V1372.87ZM2484.22 1334.08C2484.22 1342.29 2484.85 1349.92 2491.76 1349.92C2496.75 1349.92 2498.58 1345.56 2498.58 1342.15C2498.58 1338.55 2497.33 1336.05 2494.35 1333.99V1333.89C2495.55 1333.89 2496.9 1333.75 2498 1333.56V1330.63C2496.75 1330.87 2494.69 1331.01 2492.96 1331.01H2483.12C2477.65 1331.01 2474.96 1334.9 2474.96 1339.75C2474.96 1343.59 2476.35 1346.76 2478.18 1348.58L2480.34 1346.76C2478.75 1345.17 2477.7 1342.72 2477.7 1340.08C2477.7 1336.2 2479.62 1334.08 2483.5 1334.08H2484.22ZM2486.77 1334.08H2488.45C2492.43 1334.08 2495.89 1336.68 2495.89 1341.28C2495.89 1343.83 2494.83 1346.56 2491.62 1346.56C2487.34 1346.56 2486.77 1340.37 2486.77 1335.04V1334.08ZM2475.54 1312.94V1319.28H2469.2V1322.54H2475.54V1327.2H2478.27V1322.54H2492.29C2497.23 1322.54 2498.29 1319.18 2498.29 1316.78C2498.29 1315.3 2498.05 1314.1 2497.62 1312.94L2494.78 1313.09C2495.22 1313.95 2495.5 1315.01 2495.5 1315.92C2495.5 1317.89 2494.74 1319.28 2491.38 1319.28H2478.27V1312.94H2475.54Z" fill="#FA046B"/>
<path d="M2641.37 1416.1V15.9211" stroke="#FA046B" stroke-width="9"/>
<path d="M41.5625 1334.4C41.5625 1349.72 53.9922 1362.15 69.3125 1362.15C84.6328 1362.15 97.0625 1349.72 97.0625 1334.4C97.0625 1319.08 84.6328 1306.65 69.3125 1306.65C53.9922 1306.65 41.5625 1319.08 41.5625 1334.4ZM83.1875 1334.4C83.1875 1342.21 77.1172 1348.28 69.3125 1348.28C61.7969 1348.28 55.4375 1342.21 55.4375 1334.4C55.4375 1326.89 61.7969 1320.53 69.3125 1320.53C77.1172 1320.53 83.1875 1326.89 83.1875 1334.4ZM13.8125 1334.4C13.8125 1374 45.8984 1406.09 85.5 1406.09C125.102 1406.09 157.188 1374 157.188 1334.4C157.188 1294.8 125.102 1262.71 85.5 1262.71C45.8984 1262.71 13.8125 1294.8 13.8125 1334.4ZM143.312 1334.4C143.312 1348.86 138.109 1362.15 129.438 1372.27C122.789 1367.93 118.164 1360.42 118.164 1352.04C119.898 1345.96 120.766 1340.18 120.766 1334.4C120.766 1328.91 119.898 1323.13 118.164 1317.06C118.453 1308.68 122.789 1301.16 129.438 1296.82C138.109 1306.94 143.312 1320.24 143.312 1334.4ZM119.031 1287.57C110.07 1294.51 104 1305.5 104 1317.93C104 1320.82 106.891 1325.44 106.891 1334.4C106.891 1343.65 104 1348.28 104 1351.17C104 1363.6 110.07 1374.58 119.031 1381.52C109.781 1388.46 98.2188 1392.21 85.5 1392.21C53.7031 1392.21 27.6875 1366.49 27.6875 1334.4C27.6875 1302.61 53.7031 1276.59 85.5 1276.59C98.2188 1276.59 109.781 1280.64 119.031 1287.57Z" fill="black"/>
</svg>
