<svg width="1440" height="2680" viewBox="0 0 1440 2680" fill="none" xmlns="http://www.w3.org/2000/svg">
<rect width="1440" height="2680" fill="#E5E5E5"/>
<rect width="1440" height="2680" fill="white"/>
<path d="M549.912 695.544H540.408V789H593.472V780.552H549.912V695.544ZM666.229 758.112C666.229 739.5 652.501 725.64 633.229 725.64C614.089 725.64 600.361 739.5 600.361 758.112C600.361 776.724 614.089 790.584 633.229 790.584C652.501 790.584 666.229 776.724 666.229 758.112ZM656.725 758.112C656.725 771.972 647.617 782.928 633.229 782.928C618.973 782.928 609.865 771.972 609.865 758.112C609.865 744.252 618.973 733.164 633.229 733.164C647.617 733.164 656.725 744.252 656.725 758.112ZM682.376 808.272C689.636 815.928 700.724 820.68 712.076 820.68C739.4 820.68 745.604 801.936 745.604 788.472V727.224H736.628V737.916H736.364C731.48 729.996 721.976 725.64 713 725.64C693.728 725.64 681.056 740.028 681.056 757.584C681.056 775.668 693.728 789 713 789C721.976 789 731.612 784.512 736.364 776.856H736.628V788.472C736.628 801.804 730.16 812.76 712.472 812.76C703.1 812.76 693.728 807.744 688.844 801.408L682.376 808.272ZM690.56 757.32C690.56 744.384 699.008 733.164 713.924 733.164C727.784 733.164 737.684 744.384 737.684 757.32C737.684 771.576 727.784 781.344 713.924 781.344C699.008 781.344 690.56 770.256 690.56 757.32ZM811.978 695.544H802.474V789H811.978V695.544ZM835.707 727.224C836.103 731.448 836.235 737.52 836.235 740.82V789H845.211V757.32C845.211 740.82 854.451 733.164 863.955 733.164C876.891 733.164 880.719 741.876 880.719 754.812V789H889.695V751.116C889.695 735.804 881.907 725.64 866.199 725.64C857.487 725.64 848.511 730.656 845.079 737.784H844.815C844.815 735.144 844.551 730.524 844.287 727.224H835.707Z" fill="black"/>
<path d="M321.952 1346.74H346.648V1342.2H321.952V1324.63H348.376V1320.02H316.768V1371H349.24V1366.39H321.952V1346.74ZM363.913 1343.06H363.769C363.769 1341.62 363.625 1339.1 363.481 1337.3H358.801C359.017 1339.61 359.089 1342.92 359.089 1344.72V1371H363.985V1353.72C363.985 1344.72 369.097 1340.54 373.777 1340.54C380.329 1340.54 381.913 1344.79 381.913 1351.34V1371H386.809V1353.07C386.809 1346.81 389.329 1340.54 396.385 1340.54C402.721 1340.54 405.097 1345.3 405.097 1352.35V1371H409.993V1350.34C409.993 1341.98 405.745 1336.44 397.177 1336.44C391.777 1336.44 387.673 1338.96 385.369 1343.57C383.137 1337.81 378.673 1336.44 375.001 1336.44C370.177 1336.44 365.857 1339.18 363.913 1343.06ZM443.892 1350.34C431.58 1350.34 420.132 1351.27 420.132 1361.64C420.132 1369.13 426.684 1371.86 431.796 1371.86C437.196 1371.86 440.94 1369.99 444.036 1365.53H444.18C444.18 1367.33 444.396 1369.34 444.684 1371H449.076C448.716 1369.13 448.5 1366.03 448.5 1363.44V1348.68C448.5 1340.47 442.668 1336.44 435.396 1336.44C429.636 1336.44 424.884 1338.53 422.148 1341.26L424.884 1344.5C427.26 1342.13 430.932 1340.54 434.892 1340.54C440.724 1340.54 443.892 1343.42 443.892 1349.26V1350.34ZM443.892 1354.15V1356.67C443.892 1362.65 440.004 1367.83 433.092 1367.83C429.276 1367.83 425.172 1366.25 425.172 1361.42C425.172 1355.02 434.46 1354.15 442.452 1354.15H443.892ZM466.081 1337.3H461.185V1371H466.081V1337.3ZM467.089 1324.34C467.089 1322.33 465.361 1320.89 463.633 1320.89C461.905 1320.89 460.177 1322.33 460.177 1324.34C460.177 1326.36 461.905 1327.8 463.633 1327.8C465.361 1327.8 467.089 1326.36 467.089 1324.34ZM484.153 1316.57H479.257V1371H484.153V1316.57Z" fill="#A7A7A7"/>
<path d="M316.768 1672H321.952V1648.31H331.024C341.392 1648.31 348.376 1643.78 348.376 1634.63C348.376 1625.49 341.536 1621.02 331.168 1621.02H316.768V1672ZM321.952 1625.49H330.736C338.584 1625.49 343.192 1628.37 343.192 1634.63C343.192 1640.68 338.8 1643.92 330.736 1643.92H321.952V1625.49ZM375.197 1651.34C362.885 1651.34 351.437 1652.27 351.437 1662.64C351.437 1670.13 357.989 1672.86 363.101 1672.86C368.501 1672.86 372.245 1670.99 375.341 1666.53H375.485C375.485 1668.33 375.701 1670.34 375.989 1672H380.381C380.021 1670.13 379.805 1667.03 379.805 1664.44V1649.68C379.805 1641.47 373.973 1637.44 366.701 1637.44C360.941 1637.44 356.189 1639.53 353.453 1642.26L356.189 1645.5C358.565 1643.13 362.237 1641.54 366.197 1641.54C372.029 1641.54 375.197 1644.42 375.197 1650.26V1651.34ZM375.197 1655.15V1657.67C375.197 1663.65 371.309 1668.83 364.397 1668.83C360.581 1668.83 356.477 1667.25 356.477 1662.42C356.477 1656.02 365.765 1655.15 373.757 1655.15H375.197ZM414.09 1643.49C411.93 1639.67 406.962 1637.44 402.282 1637.44C396.162 1637.44 390.258 1640.39 390.258 1647.23C390.258 1653.64 395.946 1655.37 399.906 1656.3C406.314 1657.82 409.842 1659.26 409.842 1662.78C409.842 1667.18 406.098 1668.69 401.922 1668.69C397.962 1668.69 394.29 1666.38 392.562 1663.43L388.674 1666.31C391.77 1670.85 396.882 1672.86 401.994 1672.86C408.186 1672.86 414.666 1670.13 414.666 1662.42C414.666 1657.17 410.922 1654.22 403.002 1652.56C397.458 1651.41 394.938 1649.97 394.938 1646.8C394.938 1643.06 398.538 1641.54 402.066 1641.54C405.81 1641.54 408.906 1643.49 410.346 1646.3L414.09 1643.49ZM446.082 1643.49C443.922 1639.67 438.954 1637.44 434.274 1637.44C428.154 1637.44 422.25 1640.39 422.25 1647.23C422.25 1653.64 427.938 1655.37 431.898 1656.3C438.306 1657.82 441.834 1659.26 441.834 1662.78C441.834 1667.18 438.09 1668.69 433.914 1668.69C429.954 1668.69 426.282 1666.38 424.554 1663.43L420.666 1666.31C423.762 1670.85 428.874 1672.86 433.986 1672.86C440.178 1672.86 446.658 1670.13 446.658 1662.42C446.658 1657.17 442.914 1654.22 434.994 1652.56C429.45 1651.41 426.93 1649.97 426.93 1646.8C426.93 1643.06 430.53 1641.54 434.058 1641.54C437.802 1641.54 440.898 1643.49 442.338 1646.3L446.082 1643.49ZM451.794 1638.3L462.45 1672H467.778L476.634 1644.71H476.778L485.778 1672H491.106L501.762 1638.3H496.578L488.514 1665.66H488.37L479.154 1638.3H474.402L465.33 1665.66H465.186L457.05 1638.3H451.794ZM543.601 1655.15C543.601 1645 536.113 1637.44 525.601 1637.44C515.161 1637.44 507.673 1645 507.673 1655.15C507.673 1665.3 515.161 1672.86 525.601 1672.86C536.113 1672.86 543.601 1665.3 543.601 1655.15ZM538.417 1655.15C538.417 1662.71 533.449 1668.69 525.601 1668.69C517.825 1668.69 512.857 1662.71 512.857 1655.15C512.857 1647.59 517.825 1641.54 525.601 1641.54C533.449 1641.54 538.417 1647.59 538.417 1655.15ZM554.136 1645.72V1672H559.032V1654.72C559.032 1645.72 563.712 1641.98 568.896 1641.98C570.192 1641.98 571.776 1642.19 572.352 1642.41L573 1637.8C571.992 1637.51 570.984 1637.44 569.76 1637.44C565.008 1637.44 560.832 1640.18 558.96 1644.06H558.816C558.816 1642.62 558.672 1640.1 558.528 1638.3H553.848C554.064 1640.61 554.136 1643.92 554.136 1645.72ZM606.536 1666.31H606.68V1672H611.576V1617.57H606.68V1644.14H606.536C603.656 1639.74 598.616 1637.44 593.792 1637.44C583.28 1637.44 576.368 1645.22 576.368 1655.15C576.368 1665.09 583.28 1672.86 593.792 1672.86C598.616 1672.86 603.656 1670.56 606.536 1666.31ZM581.552 1655.15C581.552 1647.66 586.16 1641.54 594.296 1641.54C601.856 1641.54 607.256 1647.45 607.256 1655.15C607.256 1662.86 601.856 1668.69 594.296 1668.69C586.16 1668.69 581.552 1662.64 581.552 1655.15Z" fill="#A7A7A7"/>
<path d="M321.408 1792.1H315.828V1836H320.292V1798.24H320.416L345.96 1836H351.54V1792.1H347.076V1829.49H346.952L321.408 1792.1ZM365.284 1819.26C365.656 1814.3 369.81 1809.77 375.452 1809.77C381.466 1809.77 384.814 1813.8 385.062 1819.26H365.284ZM389.34 1820.62C389.34 1812.69 384.566 1806.24 375.452 1806.24C367.206 1806.24 360.82 1812.75 360.82 1821.49C360.82 1830.23 367.206 1836.74 375.824 1836.74C380.598 1836.74 384.876 1834.95 388.286 1830.61L385.124 1828.13C383.512 1830.73 380.164 1833.15 375.824 1833.15C369.872 1833.15 365.346 1828.44 365.222 1822.61H389.278C389.34 1821.86 389.34 1821.18 389.34 1820.62ZM394.44 1806.98L403.616 1836H408.204L415.83 1812.5H415.954L423.704 1836H428.292L437.468 1806.98H433.004L426.06 1830.54H425.936L418 1806.98H413.908L406.096 1830.54H405.972L398.966 1806.98H394.44ZM460.414 1836H464.878V1815.23H488.81V1836H493.274V1792.1H488.81V1811.14H464.878V1792.1H460.414V1836ZM507.024 1819.26C507.396 1814.3 511.55 1809.77 517.192 1809.77C523.206 1809.77 526.554 1813.8 526.802 1819.26H507.024ZM531.08 1820.62C531.08 1812.69 526.306 1806.24 517.192 1806.24C508.946 1806.24 502.56 1812.75 502.56 1821.49C502.56 1830.23 508.946 1836.74 517.564 1836.74C522.338 1836.74 526.616 1834.95 530.026 1830.61L526.864 1828.13C525.252 1830.73 521.904 1833.15 517.564 1833.15C511.612 1833.15 507.086 1828.44 506.962 1822.61H531.018C531.08 1821.86 531.08 1821.18 531.08 1820.62ZM540.148 1813.37V1836H544.364V1821.12C544.364 1813.37 548.394 1810.15 552.858 1810.15C553.974 1810.15 555.338 1810.33 555.834 1810.52L556.392 1806.55C555.524 1806.3 554.656 1806.24 553.602 1806.24C549.51 1806.24 545.914 1808.6 544.302 1811.94H544.178C544.178 1810.7 544.054 1808.53 543.93 1806.98H539.9C540.086 1808.97 540.148 1811.82 540.148 1813.37ZM563.756 1819.26C564.128 1814.3 568.282 1809.77 573.924 1809.77C579.938 1809.77 583.286 1813.8 583.534 1819.26H563.756ZM587.812 1820.62C587.812 1812.69 583.038 1806.24 573.924 1806.24C565.678 1806.24 559.292 1812.75 559.292 1821.49C559.292 1830.23 565.678 1836.74 574.296 1836.74C579.07 1836.74 583.348 1834.95 586.758 1830.61L583.596 1828.13C581.984 1830.73 578.636 1833.15 574.296 1833.15C568.344 1833.15 563.818 1828.44 563.694 1822.61H587.75C587.812 1821.86 587.812 1821.18 587.812 1820.62ZM608.289 1821.24C608.289 1816.72 609.529 1815.35 613.001 1812.5C616.163 1809.9 618.705 1807.6 618.705 1802.27C618.705 1795.27 613.311 1791.36 606.677 1791.36C600.291 1791.36 595.517 1795.33 594.277 1801.71L598.493 1802.46C599.113 1798.24 602.089 1795.2 606.491 1795.2C610.769 1795.2 614.241 1797.87 614.241 1802.52C614.241 1805.74 612.691 1807.73 610.645 1809.4L608.909 1810.95C606.367 1813.18 603.949 1815.66 603.949 1820.38V1824.1H608.289V1821.24ZM609.901 1833.02C609.901 1831.29 608.537 1829.68 606.553 1829.68C604.569 1829.68 603.205 1831.29 603.205 1833.02C603.205 1834.76 604.569 1836.37 606.553 1836.37C608.537 1836.37 609.901 1834.76 609.901 1833.02Z" fill="black"/>
<line x1="310" y1="1719.5" x2="1131" y2="1719.5" stroke="black"/>
<line x1="310" y1="1414.5" x2="1131" y2="1414.5" stroke="black"/>
<path d="M667.308 1826.7C664.27 1831.23 659.434 1833.21 654.412 1833.21C643.128 1833.21 636.184 1824.28 636.184 1814.05C636.184 1803.82 643.066 1794.89 654.412 1794.89C659.992 1794.89 664.394 1797.81 666.254 1800.66L669.974 1797.93C666.936 1793.65 660.798 1790.99 654.35 1790.99C641.268 1790.99 631.472 1800.72 631.472 1814.05C631.472 1827.38 641.082 1837.12 654.35 1837.12C662.224 1837.12 667.866 1833.33 670.78 1828.93L667.308 1826.7ZM678.203 1813.37V1836H682.419V1821.12C682.419 1813.37 686.449 1810.15 690.913 1810.15C692.029 1810.15 693.393 1810.33 693.889 1810.52L694.447 1806.55C693.579 1806.3 692.711 1806.24 691.657 1806.24C687.565 1806.24 683.969 1808.6 682.357 1811.94H682.233C682.233 1810.7 682.109 1808.53 681.985 1806.98H677.955C678.141 1808.97 678.203 1811.82 678.203 1813.37ZM701.811 1819.26C702.183 1814.3 706.337 1809.77 711.979 1809.77C717.993 1809.77 721.341 1813.8 721.589 1819.26H701.811ZM725.867 1820.62C725.867 1812.69 721.093 1806.24 711.979 1806.24C703.733 1806.24 697.347 1812.75 697.347 1821.49C697.347 1830.23 703.733 1836.74 712.351 1836.74C717.125 1836.74 721.403 1834.95 724.813 1830.61L721.651 1828.13C720.039 1830.73 716.691 1833.15 712.351 1833.15C706.399 1833.15 701.873 1828.44 701.749 1822.61H725.805C725.867 1821.86 725.867 1821.18 725.867 1820.62ZM752.862 1818.21C742.26 1818.21 732.402 1819.01 732.402 1827.94C732.402 1834.39 738.044 1836.74 742.446 1836.74C747.096 1836.74 750.32 1835.13 752.986 1831.29H753.11C753.11 1832.84 753.296 1834.57 753.544 1836H757.326C757.016 1834.39 756.83 1831.72 756.83 1829.49V1816.78C756.83 1809.71 751.808 1806.24 745.546 1806.24C740.586 1806.24 736.494 1808.04 734.138 1810.39L736.494 1813.18C738.54 1811.14 741.702 1809.77 745.112 1809.77C750.134 1809.77 752.862 1812.25 752.862 1817.28V1818.21ZM752.862 1821.49V1823.66C752.862 1828.81 749.514 1833.27 743.562 1833.27C740.276 1833.27 736.742 1831.91 736.742 1827.75C736.742 1822.24 744.74 1821.49 751.622 1821.49H752.862ZM780.168 1806.98H771.984V1798.8H767.768V1806.98H761.754V1810.52H767.768V1828.62C767.768 1835.01 772.108 1836.37 775.208 1836.37C777.13 1836.37 778.68 1836.06 780.168 1835.5L779.982 1831.85C778.866 1832.4 777.502 1832.78 776.324 1832.78C773.782 1832.78 771.984 1831.78 771.984 1827.44V1810.52H780.168V1806.98ZM789.12 1819.26C789.492 1814.3 793.646 1809.77 799.288 1809.77C805.302 1809.77 808.65 1813.8 808.898 1819.26H789.12ZM813.176 1820.62C813.176 1812.69 808.402 1806.24 799.288 1806.24C791.042 1806.24 784.656 1812.75 784.656 1821.49C784.656 1830.23 791.042 1836.74 799.66 1836.74C804.434 1836.74 808.712 1834.95 812.122 1830.61L808.96 1828.13C807.348 1830.73 804 1833.15 799.66 1833.15C793.708 1833.15 789.182 1828.44 789.058 1822.61H813.114C813.176 1821.86 813.176 1821.18 813.176 1820.62ZM841.366 1824.47H864.058L868.894 1836H873.854L855.006 1792.1H850.666L831.694 1836H836.592L841.366 1824.47ZM852.712 1797.06L862.384 1820.38H843.04L852.712 1797.06ZM904.246 1811.26C901.766 1807.91 897.364 1806.24 893.458 1806.24C884.096 1806.24 877.958 1812.75 877.958 1821.49C877.958 1830.23 884.096 1836.74 893.458 1836.74C898.48 1836.74 902.014 1834.76 904.494 1831.72L901.332 1829.37C899.658 1831.6 897.116 1833.15 893.458 1833.15C886.7 1833.15 882.422 1828.06 882.422 1821.49C882.422 1814.86 886.762 1809.77 893.52 1809.77C896.682 1809.77 899.596 1811.39 900.96 1813.62L904.246 1811.26ZM935.246 1811.26C932.766 1807.91 928.364 1806.24 924.458 1806.24C915.096 1806.24 908.958 1812.75 908.958 1821.49C908.958 1830.23 915.096 1836.74 924.458 1836.74C929.48 1836.74 933.014 1834.76 935.494 1831.72L932.332 1829.37C930.658 1831.6 928.116 1833.15 924.458 1833.15C917.7 1833.15 913.422 1828.06 913.422 1821.49C913.422 1814.86 917.762 1809.77 924.52 1809.77C927.682 1809.77 930.596 1811.39 931.96 1813.62L935.246 1811.26ZM970.896 1821.49C970.896 1812.75 964.448 1806.24 955.396 1806.24C946.406 1806.24 939.958 1812.75 939.958 1821.49C939.958 1830.23 946.406 1836.74 955.396 1836.74C964.448 1836.74 970.896 1830.23 970.896 1821.49ZM966.432 1821.49C966.432 1828 962.154 1833.15 955.396 1833.15C948.7 1833.15 944.422 1828 944.422 1821.49C944.422 1814.98 948.7 1809.77 955.396 1809.77C962.154 1809.77 966.432 1814.98 966.432 1821.49ZM1005.08 1836C1004.89 1834.02 1004.83 1831.16 1004.83 1829.61V1806.98H1000.61V1821.86C1000.61 1829.61 996.275 1833.21 991.811 1833.21C985.735 1833.21 983.937 1829.12 983.937 1823.04V1806.98H979.721V1824.78C979.721 1831.97 983.379 1836.74 990.757 1836.74C994.849 1836.74 999.065 1834.39 1000.68 1831.04H1000.8C1000.8 1832.28 1000.92 1834.45 1001.05 1836H1005.08ZM1015.75 1806.98C1015.93 1808.97 1015.99 1811.82 1015.99 1813.37V1836H1020.21V1821.12C1020.21 1813.37 1024.55 1809.77 1029.01 1809.77C1035.09 1809.77 1036.89 1813.87 1036.89 1819.94V1836H1041.1V1818.21C1041.1 1811.01 1037.45 1806.24 1030.07 1806.24C1025.98 1806.24 1021.76 1808.6 1020.15 1811.94H1020.02C1020.02 1810.7 1019.9 1808.53 1019.78 1806.98H1015.75ZM1065.1 1806.98H1056.92V1798.8H1052.7V1806.98H1046.69V1810.52H1052.7V1828.62C1052.7 1835.01 1057.04 1836.37 1060.14 1836.37C1062.06 1836.37 1063.61 1836.06 1065.1 1835.5L1064.92 1831.85C1063.8 1832.4 1062.44 1832.78 1061.26 1832.78C1058.72 1832.78 1056.92 1831.78 1056.92 1827.44V1810.52H1065.1V1806.98Z" fill="#FF003D"/>
<path d="M628 1842.2H1066.09V1845.3H628V1842.2Z" fill="#FF003D"/>
<rect x="282" y="2164" width="874" height="194" rx="97" fill="#D9D9D9"/>
<path d="M618.046 2234.1H613.582V2278H638.506V2274.03H618.046V2234.1ZM686.71 2256.05C686.71 2242.72 676.914 2232.99 663.832 2232.99C650.75 2232.99 640.954 2242.72 640.954 2256.05C640.954 2269.38 650.75 2279.12 663.832 2279.12C676.914 2279.12 686.71 2269.38 686.71 2256.05ZM681.998 2256.05C681.998 2266.28 675.116 2275.15 663.832 2275.15C652.548 2275.15 645.666 2266.28 645.666 2256.05C645.666 2245.82 652.548 2236.89 663.832 2236.89C675.116 2236.89 681.998 2245.82 681.998 2256.05ZM732.38 2238.88C728.66 2235.22 723.452 2232.99 716.508 2232.99C703.426 2232.99 693.63 2242.72 693.63 2256.05C693.63 2269.38 703.24 2279.12 716.508 2279.12C722.46 2279.12 728.102 2277.69 732.876 2274.84V2255.06H718.182V2258.97H728.412V2272.3C725.87 2273.97 721.53 2275.15 716.57 2275.15C705.286 2275.15 698.342 2266.28 698.342 2256.05C698.342 2245.82 705.286 2236.89 716.57 2236.89C722.026 2236.89 726.242 2238.75 729.28 2241.98L732.38 2238.88ZM764.267 2234.1H759.803V2278H764.267V2234.1ZM781.488 2234.1H775.908V2278H780.372V2240.24H780.496L806.04 2278H811.62V2234.1H807.156V2271.49H807.032L781.488 2234.1Z" fill="black"/>
<path d="M618.046 2234.1H619.046V2233.1H618.046V2234.1ZM613.582 2234.1V2233.1H612.582V2234.1H613.582ZM613.582 2278H612.582V2279H613.582V2278ZM638.506 2278V2279H639.506V2278H638.506ZM638.506 2274.03H639.506V2273.03H638.506V2274.03ZM618.046 2274.03H617.046V2275.03H618.046V2274.03ZM618.046 2233.1H613.582V2235.1H618.046V2233.1ZM612.582 2234.1V2278H614.582V2234.1H612.582ZM613.582 2279H638.506V2277H613.582V2279ZM639.506 2278V2274.03H637.506V2278H639.506ZM638.506 2273.03H618.046V2275.03H638.506V2273.03ZM619.046 2274.03V2234.1H617.046V2274.03H619.046ZM687.71 2256.05C687.71 2242.17 677.47 2231.99 663.832 2231.99V2233.99C676.359 2233.99 685.71 2243.27 685.71 2256.05H687.71ZM663.832 2231.99C650.195 2231.99 639.954 2242.17 639.954 2256.05H641.954C641.954 2243.27 651.306 2233.99 663.832 2233.99V2231.99ZM639.954 2256.05C639.954 2269.93 650.195 2280.12 663.832 2280.12V2278.12C651.306 2278.12 641.954 2268.83 641.954 2256.05H639.954ZM663.832 2280.12C677.47 2280.12 687.71 2269.93 687.71 2256.05H685.71C685.71 2268.83 676.359 2278.12 663.832 2278.12V2280.12ZM680.998 2256.05C680.998 2265.84 674.464 2274.15 663.832 2274.15V2276.15C675.769 2276.15 682.998 2266.73 682.998 2256.05H680.998ZM663.832 2274.15C653.201 2274.15 646.666 2265.84 646.666 2256.05H644.666C644.666 2266.73 651.896 2276.15 663.832 2276.15V2274.15ZM646.666 2256.05C646.666 2246.26 653.205 2237.89 663.832 2237.89V2235.89C651.892 2235.89 644.666 2245.38 644.666 2256.05H646.666ZM663.832 2237.89C674.46 2237.89 680.998 2246.26 680.998 2256.05H682.998C682.998 2245.38 675.773 2235.89 663.832 2235.89V2237.89ZM732.38 2238.88L733.087 2239.59L733.8 2238.87L733.081 2238.16L732.38 2238.88ZM732.876 2274.84L733.389 2275.7L733.876 2275.41V2274.84H732.876ZM732.876 2255.06H733.876V2254.06H732.876V2255.06ZM718.182 2255.06V2254.06H717.182V2255.06H718.182ZM718.182 2258.97H717.182V2259.97H718.182V2258.97ZM728.412 2258.97H729.412V2257.97H728.412V2258.97ZM728.412 2272.3L728.962 2273.13L729.412 2272.83V2272.3H728.412ZM729.28 2241.98L728.552 2242.66L729.259 2243.41L729.987 2242.69L729.28 2241.98ZM733.081 2238.16C729.154 2234.3 723.684 2231.99 716.508 2231.99V2233.99C723.221 2233.99 728.167 2236.14 731.679 2239.59L733.081 2238.16ZM716.508 2231.99C702.87 2231.99 692.63 2242.17 692.63 2256.05H694.63C694.63 2243.27 703.982 2233.99 716.508 2233.99V2231.99ZM692.63 2256.05C692.63 2269.93 702.679 2280.12 716.508 2280.12V2278.12C703.801 2278.12 694.63 2268.84 694.63 2256.05H692.63ZM716.508 2280.12C722.619 2280.12 728.442 2278.65 733.389 2275.7L732.363 2273.98C727.763 2276.73 722.302 2278.12 716.508 2278.12V2280.12ZM733.876 2274.84V2255.06H731.876V2274.84H733.876ZM732.876 2254.06H718.182V2256.06H732.876V2254.06ZM717.182 2255.06V2258.97H719.182V2255.06H717.182ZM718.182 2259.97H728.412V2257.97H718.182V2259.97ZM727.412 2258.97V2272.3H729.412V2258.97H727.412ZM727.862 2271.46C725.534 2272.99 721.405 2274.15 716.57 2274.15V2276.15C721.655 2276.15 726.207 2274.95 728.962 2273.13L727.862 2271.46ZM716.57 2274.15C705.935 2274.15 699.342 2265.83 699.342 2256.05H697.342C697.342 2266.73 704.638 2276.15 716.57 2276.15V2274.15ZM699.342 2256.05C699.342 2246.27 705.939 2237.89 716.57 2237.89V2235.89C704.634 2235.89 697.342 2245.38 697.342 2256.05H699.342ZM716.57 2237.89C721.778 2237.89 725.721 2239.66 728.552 2242.66L730.008 2241.29C726.763 2237.85 722.275 2235.89 716.57 2235.89V2237.89ZM729.987 2242.69L733.087 2239.59L731.673 2238.17L728.573 2241.27L729.987 2242.69ZM764.267 2234.1H765.267V2233.1H764.267V2234.1ZM759.803 2234.1V2233.1H758.803V2234.1H759.803ZM759.803 2278H758.803V2279H759.803V2278ZM764.267 2278V2279H765.267V2278H764.267ZM764.267 2233.1H759.803V2235.1H764.267V2233.1ZM758.803 2234.1V2278H760.803V2234.1H758.803ZM759.803 2279H764.267V2277H759.803V2279ZM765.267 2278V2234.1H763.267V2278H765.267ZM781.488 2234.1L782.314 2233.54L782.016 2233.1H781.488V2234.1ZM775.908 2234.1V2233.1H774.908V2234.1H775.908ZM775.908 2278H774.908V2279H775.908V2278ZM780.372 2278V2279H781.372V2278H780.372ZM780.372 2240.24V2239.24H779.372V2240.24H780.372ZM780.496 2240.24L781.324 2239.68L781.027 2239.24H780.496V2240.24ZM806.04 2278L805.212 2278.56L805.509 2279H806.04V2278ZM811.62 2278V2279H812.62V2278H811.62ZM811.62 2234.1H812.62V2233.1H811.62V2234.1ZM807.156 2234.1V2233.1H806.156V2234.1H807.156ZM807.156 2271.49V2272.49H808.156V2271.49H807.156ZM807.032 2271.49L806.206 2272.05L806.504 2272.49H807.032V2271.49ZM781.488 2233.1H775.908V2235.1H781.488V2233.1ZM774.908 2234.1V2278H776.908V2234.1H774.908ZM775.908 2279H780.372V2277H775.908V2279ZM781.372 2278V2240.24H779.372V2278H781.372ZM780.372 2241.24H780.496V2239.24H780.372V2241.24ZM779.668 2240.8L805.212 2278.56L806.868 2277.44L781.324 2239.68L779.668 2240.8ZM806.04 2279H811.62V2277H806.04V2279ZM812.62 2278V2234.1H810.62V2278H812.62ZM811.62 2233.1H807.156V2235.1H811.62V2233.1ZM806.156 2234.1V2271.49H808.156V2234.1H806.156ZM807.156 2270.49H807.032V2272.49H807.156V2270.49ZM807.858 2270.93L782.314 2233.54L780.662 2234.67L806.206 2272.05L807.858 2270.93Z" fill="black"/>
</svg>
