<svg width="1430" height="2680" viewBox="0 0 1430 2680" fill="none" xmlns="http://www.w3.org/2000/svg">
<rect width="1430" height="2680" fill="#E5E5E5"/>
<rect width="1430" height="2680" fill="white"/>
<rect x="193.646" y="2282" width="1020.86" height="194" rx="97" fill="#D9D9D9"/>
<path d="M586.739 2356.32C584.631 2353.47 580.229 2350.99 574.339 2350.99C567.891 2350.99 560.327 2354.58 560.327 2363.08C560.327 2371.01 566.279 2373.56 572.107 2375.35C577.687 2377.09 582.833 2378.64 582.833 2384.78C582.833 2390.42 577.625 2393.27 573.099 2393.27C568.511 2393.27 564.977 2390.85 563.055 2387.75L559.211 2390.61C562.373 2394.95 567.705 2397.12 573.037 2397.12C579.981 2397.12 587.359 2393.27 587.359 2384.47C587.359 2375.66 580.539 2373.68 574.339 2371.63C569.441 2370.02 564.791 2368.6 564.791 2363.02C564.791 2357.37 569.813 2354.77 574.153 2354.77C578.307 2354.77 581.345 2356.51 583.205 2359.17L586.739 2356.32ZM601.399 2352.1H596.935V2396H601.399V2352.1ZM649.435 2356.88C645.715 2353.22 640.507 2350.99 633.563 2350.99C620.481 2350.99 610.685 2360.72 610.685 2374.05C610.685 2387.38 620.295 2397.12 633.563 2397.12C639.515 2397.12 645.157 2395.69 649.931 2392.84V2373.06H635.237V2376.97H645.467V2390.3C642.925 2391.97 638.585 2393.15 633.625 2393.15C622.341 2393.15 615.397 2384.28 615.397 2374.05C615.397 2363.82 622.341 2354.89 633.625 2354.89C639.081 2354.89 643.297 2356.75 646.335 2359.98L649.435 2356.88ZM666.937 2352.1H661.357V2396H665.821V2358.24H665.945L691.489 2396H697.069V2352.1H692.605V2389.49H692.481L666.937 2352.1ZM767.605 2374.05C767.605 2360.72 757.809 2350.99 744.727 2350.99C731.645 2350.99 721.849 2360.72 721.849 2374.05C721.849 2387.38 731.645 2397.12 744.727 2397.12C757.809 2397.12 767.605 2387.38 767.605 2374.05ZM762.893 2374.05C762.893 2384.28 756.011 2393.15 744.727 2393.15C733.443 2393.15 726.561 2384.28 726.561 2374.05C726.561 2363.82 733.443 2354.89 744.727 2354.89C756.011 2354.89 762.893 2363.82 762.893 2374.05ZM793.062 2397.12C806.206 2397.12 809.492 2386.95 809.492 2379.63V2352.1H805.028V2379.14C805.028 2386.2 801.99 2393.15 793.062 2393.15C784.134 2393.15 781.096 2386.2 781.096 2379.14V2352.1H776.632V2379.63C776.632 2386.95 779.918 2397.12 793.062 2397.12ZM834.972 2356.07H849.666V2352.1H815.814V2356.07H830.508V2396H834.972V2356.07Z" fill="black"/>
<path d="M586.739 2356.32L587.367 2357.1L588.113 2356.5L587.543 2355.73L586.739 2356.32ZM572.107 2375.35L572.404 2374.4L572.402 2374.4L572.107 2375.35ZM563.055 2387.75L563.905 2387.23L563.332 2386.3L562.459 2386.95L563.055 2387.75ZM559.211 2390.61L558.615 2389.8L557.819 2390.39L558.403 2391.19L559.211 2390.61ZM574.339 2371.63L574.652 2370.68L574.652 2370.68L574.339 2371.63ZM583.205 2359.17L582.385 2359.74L582.999 2360.62L583.833 2359.95L583.205 2359.17ZM587.543 2355.73C585.219 2352.58 580.497 2349.99 574.339 2349.99V2351.99C579.961 2351.99 584.043 2354.35 585.935 2356.91L587.543 2355.73ZM574.339 2349.99C570.95 2349.99 567.229 2350.93 564.327 2353.04C561.39 2355.17 559.327 2358.49 559.327 2363.08H561.327C561.327 2359.17 563.046 2356.44 565.503 2354.66C567.995 2352.84 571.28 2351.99 574.339 2351.99V2349.99ZM559.327 2363.08C559.327 2367.34 560.948 2370.24 563.39 2372.29C565.774 2374.28 568.892 2375.41 571.812 2376.31L572.402 2374.4C569.494 2373.5 566.722 2372.46 564.673 2370.75C562.682 2369.09 561.327 2366.75 561.327 2363.08H559.327ZM571.81 2376.31C574.648 2377.19 577.162 2377.97 578.994 2379.24C579.888 2379.86 580.586 2380.57 581.066 2381.44C581.543 2382.31 581.833 2383.39 581.833 2384.78H583.833C583.833 2383.1 583.479 2381.68 582.818 2380.48C582.158 2379.28 581.221 2378.35 580.131 2377.59C577.995 2376.12 575.146 2375.25 572.404 2374.4L571.81 2376.31ZM581.833 2384.78C581.833 2387.25 580.707 2389.09 579.059 2390.34C577.385 2391.62 575.171 2392.27 573.099 2392.27V2394.27C575.554 2394.27 578.206 2393.5 580.268 2391.94C582.355 2390.35 583.833 2387.95 583.833 2384.78H581.833ZM573.099 2392.27C568.889 2392.27 565.662 2390.06 563.905 2387.23L562.205 2388.28C564.292 2391.65 568.134 2394.27 573.099 2394.27V2392.27ZM562.459 2386.95L558.615 2389.8L559.807 2391.41L563.651 2388.56L562.459 2386.95ZM558.403 2391.19C561.791 2395.85 567.456 2398.12 573.037 2398.12V2396.12C567.954 2396.12 562.955 2394.05 560.019 2390.02L558.403 2391.19ZM573.037 2398.12C576.676 2398.12 580.484 2397.11 583.407 2394.89C586.364 2392.64 588.359 2389.19 588.359 2384.47H586.359C586.359 2388.55 584.665 2391.42 582.197 2393.3C579.696 2395.2 576.342 2396.12 573.037 2396.12V2398.12ZM588.359 2384.47C588.359 2379.75 586.501 2376.75 583.772 2374.72C581.133 2372.74 577.696 2371.69 574.652 2370.68L574.026 2372.58C577.182 2373.63 580.255 2374.58 582.576 2376.32C584.807 2377.98 586.359 2380.39 586.359 2384.47H588.359ZM574.652 2370.68C572.151 2369.86 569.931 2369.15 568.306 2368C566.771 2366.91 565.791 2365.45 565.791 2363.02H563.791C563.791 2366.16 565.136 2368.2 567.151 2369.63C569.075 2370.99 571.629 2371.79 574.026 2372.58L574.652 2370.68ZM565.791 2363.02C565.791 2360.53 566.879 2358.76 568.447 2357.58C570.044 2356.37 572.164 2355.77 574.153 2355.77V2353.77C571.802 2353.77 569.241 2354.47 567.242 2355.98C565.214 2357.51 563.791 2359.86 563.791 2363.02H565.791ZM574.153 2355.77C577.997 2355.77 580.721 2357.36 582.385 2359.74L584.025 2358.6C581.969 2355.65 578.617 2353.77 574.153 2353.77V2355.77ZM583.833 2359.95L587.367 2357.1L586.111 2355.54L582.577 2358.39L583.833 2359.95ZM601.399 2352.1H602.399V2351.1H601.399V2352.1ZM596.935 2352.1V2351.1H595.935V2352.1H596.935ZM596.935 2396H595.935V2397H596.935V2396ZM601.399 2396V2397H602.399V2396H601.399ZM601.399 2351.1H596.935V2353.1H601.399V2351.1ZM595.935 2352.1V2396H597.935V2352.1H595.935ZM596.935 2397H601.399V2395H596.935V2397ZM602.399 2396V2352.1H600.399V2396H602.399ZM649.435 2356.88L650.142 2357.59L650.855 2356.87L650.136 2356.16L649.435 2356.88ZM649.931 2392.84L650.444 2393.7L650.931 2393.41V2392.84H649.931ZM649.931 2373.06H650.931V2372.06H649.931V2373.06ZM635.237 2373.06V2372.06H634.237V2373.06H635.237ZM635.237 2376.97H634.237V2377.97H635.237V2376.97ZM645.467 2376.97H646.467V2375.97H645.467V2376.97ZM645.467 2390.3L646.017 2391.13L646.467 2390.83V2390.3H645.467ZM646.335 2359.98L645.607 2360.66L646.313 2361.41L647.042 2360.69L646.335 2359.98ZM650.136 2356.16C646.208 2352.3 640.738 2349.99 633.563 2349.99V2351.99C640.275 2351.99 645.221 2354.14 648.734 2357.59L650.136 2356.16ZM633.563 2349.99C619.925 2349.99 609.685 2360.17 609.685 2374.05H611.685C611.685 2361.27 621.037 2351.99 633.563 2351.99V2349.99ZM609.685 2374.05C609.685 2387.93 619.733 2398.12 633.563 2398.12V2396.12C620.856 2396.12 611.685 2386.84 611.685 2374.05H609.685ZM633.563 2398.12C639.673 2398.12 645.496 2396.65 650.444 2393.7L649.418 2391.98C644.817 2394.73 639.356 2396.12 633.563 2396.12V2398.12ZM650.931 2392.84V2373.06H648.931V2392.84H650.931ZM649.931 2372.06H635.237V2374.06H649.931V2372.06ZM634.237 2373.06V2376.97H636.237V2373.06H634.237ZM635.237 2377.97H645.467V2375.97H635.237V2377.97ZM644.467 2376.97V2390.3H646.467V2376.97H644.467ZM644.917 2389.46C642.588 2390.99 638.46 2392.15 633.625 2392.15V2394.15C638.709 2394.15 643.261 2392.95 646.017 2391.13L644.917 2389.46ZM633.625 2392.15C622.989 2392.15 616.397 2383.83 616.397 2374.05H614.397C614.397 2384.73 621.692 2394.15 633.625 2394.15V2392.15ZM616.397 2374.05C616.397 2364.27 622.993 2355.89 633.625 2355.89V2353.89C621.688 2353.89 614.397 2363.38 614.397 2374.05H616.397ZM633.625 2355.89C638.832 2355.89 642.776 2357.66 645.607 2360.66L647.062 2359.29C643.818 2355.85 639.329 2353.89 633.625 2353.89V2355.89ZM647.042 2360.69L650.142 2357.59L648.728 2356.17L645.628 2359.27L647.042 2360.69ZM666.937 2352.1L667.763 2351.54L667.465 2351.1H666.937V2352.1ZM661.357 2352.1V2351.1H660.357V2352.1H661.357ZM661.357 2396H660.357V2397H661.357V2396ZM665.821 2396V2397H666.821V2396H665.821ZM665.821 2358.24V2357.24H664.821V2358.24H665.821ZM665.945 2358.24L666.773 2357.68L666.476 2357.24H665.945V2358.24ZM691.489 2396L690.661 2396.56L690.958 2397H691.489V2396ZM697.069 2396V2397H698.069V2396H697.069ZM697.069 2352.1H698.069V2351.1H697.069V2352.1ZM692.605 2352.1V2351.1H691.605V2352.1H692.605ZM692.605 2389.49V2390.49H693.605V2389.49H692.605ZM692.481 2389.49L691.655 2390.05L691.953 2390.49H692.481V2389.49ZM666.937 2351.1H661.357V2353.1H666.937V2351.1ZM660.357 2352.1V2396H662.357V2352.1H660.357ZM661.357 2397H665.821V2395H661.357V2397ZM666.821 2396V2358.24H664.821V2396H666.821ZM665.821 2359.24H665.945V2357.24H665.821V2359.24ZM665.117 2358.8L690.661 2396.56L692.317 2395.44L666.773 2357.68L665.117 2358.8ZM691.489 2397H697.069V2395H691.489V2397ZM698.069 2396V2352.1H696.069V2396H698.069ZM697.069 2351.1H692.605V2353.1H697.069V2351.1ZM691.605 2352.1V2389.49H693.605V2352.1H691.605ZM692.605 2388.49H692.481V2390.49H692.605V2388.49ZM693.307 2388.93L667.763 2351.54L666.111 2352.67L691.655 2390.05L693.307 2388.93ZM768.605 2374.05C768.605 2360.17 758.365 2349.99 744.727 2349.99V2351.99C757.253 2351.99 766.605 2361.27 766.605 2374.05H768.605ZM744.727 2349.99C731.089 2349.99 720.849 2360.17 720.849 2374.05H722.849C722.849 2361.27 732.201 2351.99 744.727 2351.99V2349.99ZM720.849 2374.05C720.849 2387.93 731.089 2398.12 744.727 2398.12V2396.12C732.201 2396.12 722.849 2386.83 722.849 2374.05H720.849ZM744.727 2398.12C758.365 2398.12 768.605 2387.93 768.605 2374.05H766.605C766.605 2386.83 757.253 2396.12 744.727 2396.12V2398.12ZM761.893 2374.05C761.893 2383.84 755.358 2392.15 744.727 2392.15V2394.15C756.664 2394.15 763.893 2384.73 763.893 2374.05H761.893ZM744.727 2392.15C734.096 2392.15 727.561 2383.84 727.561 2374.05H725.561C725.561 2384.73 732.79 2394.15 744.727 2394.15V2392.15ZM727.561 2374.05C727.561 2364.26 734.1 2355.89 744.727 2355.89V2353.89C732.786 2353.89 725.561 2363.38 725.561 2374.05H727.561ZM744.727 2355.89C755.354 2355.89 761.893 2364.26 761.893 2374.05H763.893C763.893 2363.38 756.668 2353.89 744.727 2353.89V2355.89ZM809.492 2352.1H810.492V2351.1H809.492V2352.1ZM805.028 2352.1V2351.1H804.028V2352.1H805.028ZM781.096 2352.1H782.096V2351.1H781.096V2352.1ZM776.632 2352.1V2351.1H775.632V2352.1H776.632ZM793.062 2398.12C799.933 2398.12 804.355 2395.44 807.021 2391.7C809.648 2388.01 810.492 2383.41 810.492 2379.63H808.492C808.492 2383.17 807.694 2387.31 805.392 2390.54C803.129 2393.71 799.336 2396.12 793.062 2396.12V2398.12ZM810.492 2379.63V2352.1H808.492V2379.63H810.492ZM809.492 2351.1H805.028V2353.1H809.492V2351.1ZM804.028 2352.1V2379.14H806.028V2352.1H804.028ZM804.028 2379.14C804.028 2382.55 803.291 2385.82 801.58 2388.21C799.906 2390.55 797.228 2392.15 793.062 2392.15V2394.15C797.825 2394.15 801.13 2392.28 803.207 2389.37C805.247 2386.53 806.028 2382.79 806.028 2379.14H804.028ZM793.062 2392.15C788.897 2392.15 786.219 2390.55 784.545 2388.21C782.834 2385.82 782.096 2382.55 782.096 2379.14H780.096C780.096 2382.79 780.878 2386.53 782.918 2389.37C784.995 2392.28 788.3 2394.15 793.062 2394.15V2392.15ZM782.096 2379.14V2352.1H780.096V2379.14H782.096ZM781.096 2351.1H776.632V2353.1H781.096V2351.1ZM775.632 2352.1V2379.63H777.632V2352.1H775.632ZM775.632 2379.63C775.632 2383.41 776.477 2388.01 779.104 2391.7C781.77 2395.44 786.192 2398.12 793.062 2398.12V2396.12C786.789 2396.12 782.996 2393.71 780.733 2390.54C778.431 2387.31 777.632 2383.17 777.632 2379.63H775.632ZM834.972 2356.07V2355.07H833.972V2356.07H834.972ZM849.666 2356.07V2357.07H850.666V2356.07H849.666ZM849.666 2352.1H850.666V2351.1H849.666V2352.1ZM815.814 2352.1V2351.1H814.814V2352.1H815.814ZM815.814 2356.07H814.814V2357.07H815.814V2356.07ZM830.508 2356.07H831.508V2355.07H830.508V2356.07ZM830.508 2396H829.508V2397H830.508V2396ZM834.972 2396V2397H835.972V2396H834.972ZM834.972 2357.07H849.666V2355.07H834.972V2357.07ZM850.666 2356.07V2352.1H848.666V2356.07H850.666ZM849.666 2351.1H815.814V2353.1H849.666V2351.1ZM814.814 2352.1V2356.07H816.814V2352.1H814.814ZM815.814 2357.07H830.508V2355.07H815.814V2357.07ZM829.508 2356.07V2396H831.508V2356.07H829.508ZM830.508 2397H834.972V2395H830.508V2397ZM835.972 2396V2356.07H833.972V2396H835.972Z" fill="black"/>
<line x1="54" y1="888" x2="1366" y2="888" stroke="#E7E7E7" stroke-width="4"/>
<rect x="534.5" y="345.5" width="348" height="317" rx="31.5" fill="white" stroke="black"/>
<path d="M569.977 755.02V774H573.513V761.52C573.513 755.02 576.893 752.316 580.637 752.316C581.573 752.316 582.717 752.472 583.133 752.628L583.601 749.3C582.873 749.092 582.145 749.04 581.261 749.04C577.829 749.04 574.813 751.016 573.461 753.824H573.357C573.357 752.784 573.253 750.964 573.149 749.664H569.769C569.925 751.328 569.977 753.72 569.977 755.02ZM603.446 759.076C594.554 759.076 586.286 759.752 586.286 767.24C586.286 772.648 591.018 774.624 594.71 774.624C598.61 774.624 601.314 773.272 603.55 770.048H603.654C603.654 771.348 603.81 772.804 604.018 774H607.19C606.93 772.648 606.774 770.412 606.774 768.54V757.88C606.774 751.952 602.562 749.04 597.31 749.04C593.15 749.04 589.718 750.548 587.742 752.524L589.718 754.864C591.434 753.148 594.086 752.004 596.946 752.004C601.158 752.004 603.446 754.084 603.446 758.296V759.076ZM603.446 761.832V763.652C603.446 767.968 600.638 771.712 595.646 771.712C592.89 771.712 589.926 770.568 589.926 767.084C589.926 762.456 596.634 761.832 602.406 761.832H603.446ZM619.367 753.824H619.263C619.263 752.784 619.159 750.964 619.055 749.664H615.675C615.831 751.328 615.883 753.72 615.883 755.02V774H619.419V761.52C619.419 755.02 623.111 752.004 626.491 752.004C631.223 752.004 632.367 755.072 632.367 759.804V774H635.903V761.052C635.903 756.528 637.723 752.004 642.819 752.004C647.395 752.004 649.111 755.436 649.111 760.532V774H652.647V759.076C652.647 753.044 649.579 749.04 643.391 749.04C639.491 749.04 636.527 750.86 634.863 754.188C633.251 750.028 630.027 749.04 627.375 749.04C623.891 749.04 620.771 751.016 619.367 753.824ZM677.129 759.076C668.237 759.076 659.969 759.752 659.969 767.24C659.969 772.648 664.701 774.624 668.393 774.624C672.293 774.624 674.997 773.272 677.233 770.048H677.337C677.337 771.348 677.493 772.804 677.701 774H680.873C680.613 772.648 680.457 770.412 680.457 768.54V757.88C680.457 751.952 676.245 749.04 670.993 749.04C666.833 749.04 663.401 750.548 661.425 752.524L663.401 754.864C665.117 753.148 667.769 752.004 670.629 752.004C674.841 752.004 677.129 754.084 677.129 758.296V759.076ZM677.129 761.832V763.652C677.129 767.968 674.321 771.712 669.329 771.712C666.573 771.712 663.609 770.568 663.609 767.084C663.609 762.456 670.317 761.832 676.089 761.832H677.129ZM689.359 749.664C689.515 751.328 689.567 753.72 689.567 755.02V774H693.103V761.52C693.103 755.02 696.743 752.004 700.487 752.004C705.583 752.004 707.091 755.436 707.091 760.532V774H710.627V759.076C710.627 753.044 707.559 749.04 701.371 749.04C697.939 749.04 694.403 751.016 693.051 753.824H692.947C692.947 752.784 692.843 750.964 692.739 749.664H689.359ZM724.67 771.504C724.67 770.048 723.526 768.696 721.862 768.696C720.198 768.696 719.054 770.048 719.054 771.504C719.054 772.96 720.198 774.312 721.862 774.312C723.526 774.312 724.67 772.96 724.67 771.504ZM737.033 769.892C739.113 772.96 742.753 774.624 746.237 774.624C753.829 774.624 758.821 769.008 758.821 761.832C758.821 754.656 753.829 749.04 746.237 749.04C742.753 749.04 739.113 750.704 737.033 753.876H736.929V734.688H733.393V774H736.929V769.892H737.033ZM755.077 761.832C755.077 767.24 751.749 771.608 745.873 771.608C740.413 771.608 736.513 767.396 736.513 761.832C736.513 756.268 740.413 752.004 745.873 752.004C751.749 752.004 755.077 756.424 755.077 761.832ZM770.039 753.668V734.688H766.503V774H770.039V761.52C770.039 755.02 773.679 752.004 777.423 752.004C782.519 752.004 784.027 755.436 784.027 760.532V774H787.563V759.076C787.563 753.044 784.495 749.04 778.307 749.04C774.875 749.04 771.443 750.86 770.143 753.668H770.039ZM812.055 759.076C803.163 759.076 794.895 759.752 794.895 767.24C794.895 772.648 799.627 774.624 803.319 774.624C807.219 774.624 809.923 773.272 812.159 770.048H812.263C812.263 771.348 812.419 772.804 812.627 774H815.799C815.539 772.648 815.383 770.412 815.383 768.54V757.88C815.383 751.952 811.171 749.04 805.919 749.04C801.759 749.04 798.327 750.548 796.351 752.524L798.327 754.864C800.043 753.148 802.695 752.004 805.555 752.004C809.767 752.004 812.055 754.084 812.055 758.296V759.076ZM812.055 761.832V763.652C812.055 767.968 809.247 771.712 804.255 771.712C801.499 771.712 798.535 770.568 798.535 767.084C798.535 762.456 805.243 761.832 811.015 761.832H812.055ZM834.957 749.664H828.093V742.8H824.557V749.664H819.513V752.628H824.557V767.812C824.557 773.168 828.197 774.312 830.797 774.312C832.409 774.312 833.709 774.052 834.957 773.584L834.801 770.516C833.865 770.984 832.721 771.296 831.733 771.296C829.601 771.296 828.093 770.464 828.093 766.824V752.628H834.957V749.664ZM850.851 749.664H843.987V742.8H840.451V749.664H835.407V752.628H840.451V767.812C840.451 773.168 844.091 774.312 846.691 774.312C848.303 774.312 849.603 774.052 850.851 773.584L850.695 770.516C849.759 770.984 848.615 771.296 847.627 771.296C845.495 771.296 843.987 770.464 843.987 766.824V752.628H850.851V749.664ZM859.971 749.664H856.435V774H859.971V749.664ZM860.699 740.304C860.699 738.848 859.451 737.808 858.203 737.808C856.955 737.808 855.707 738.848 855.707 740.304C855.707 741.76 856.955 742.8 858.203 742.8C859.451 742.8 860.699 741.76 860.699 740.304Z" fill="black"/>
<path d="M709 368C640.5 368 585 423.5 585 492C585 560.5 640.5 616 709 616C777.5 616 833 560.5 833 492C833 423.5 777.5 368 709 368ZM709 416C733 416 753 436 753 460C753 484.5 733 504 709 504C684.5 504 665 484.5 665 460C665 436 684.5 416 709 416ZM709 588C679.5 588 653 575 635.5 554C645 536.5 663.5 524 685 524C686 524 687 524.5 688.5 525C695 527 701.5 528 709 528C716 528 723 527 729 525C730.5 524.5 731.5 524 733 524C754 524 772.5 536.5 782 554C764.5 575 738 588 709 588Z" fill="#474747"/>
<rect x="54.5" y="1019.5" width="1311" height="218" rx="31.5" fill="white" stroke="black"/>
<path d="M156.824 1126.21H181.244V1121.55H156.824V1103.34H183.094V1098.61H151.496V1151H156.824V1126.21ZM189.645 1123.99V1151H194.677V1133.24C194.677 1123.99 199.487 1120.14 204.815 1120.14C206.147 1120.14 207.775 1120.36 208.367 1120.59L209.033 1115.85C207.997 1115.55 206.961 1115.48 205.703 1115.48C200.819 1115.48 196.527 1118.29 194.603 1122.29H194.455C194.455 1120.81 194.307 1118.22 194.159 1116.37H189.349C189.571 1118.74 189.645 1122.14 189.645 1123.99ZM221.417 1116.37H216.385V1151H221.417V1116.37ZM222.453 1103.05C222.453 1100.98 220.677 1099.5 218.901 1099.5C217.125 1099.5 215.349 1100.98 215.349 1103.05C215.349 1105.12 217.125 1106.6 218.901 1106.6C220.677 1106.6 222.453 1105.12 222.453 1103.05ZM237.623 1131.02C238.067 1125.1 243.025 1119.7 249.759 1119.7C256.937 1119.7 260.933 1124.51 261.229 1131.02H237.623ZM266.335 1132.65C266.335 1123.18 260.637 1115.48 249.759 1115.48C239.917 1115.48 232.295 1123.25 232.295 1133.68C232.295 1144.12 239.917 1151.89 250.203 1151.89C255.901 1151.89 261.007 1149.74 265.077 1144.56L261.303 1141.6C259.379 1144.71 255.383 1147.6 250.203 1147.6C243.099 1147.6 237.697 1141.97 237.549 1135.02H266.261C266.335 1134.13 266.335 1133.31 266.335 1132.65ZM276.863 1116.37C277.085 1118.74 277.159 1122.14 277.159 1123.99V1151H282.191V1133.24C282.191 1123.99 287.371 1119.7 292.699 1119.7C299.951 1119.7 302.097 1124.58 302.097 1131.83V1151H307.129V1129.76C307.129 1121.18 302.763 1115.48 293.957 1115.48C289.073 1115.48 284.041 1118.29 282.117 1122.29H281.969C281.969 1120.81 281.821 1118.22 281.673 1116.37H276.863ZM348.647 1145.15H348.795V1151H353.827V1095.06H348.795V1122.36H348.647C345.687 1117.85 340.507 1115.48 335.549 1115.48C324.745 1115.48 317.641 1123.47 317.641 1133.68C317.641 1143.9 324.745 1151.89 335.549 1151.89C340.507 1151.89 345.687 1149.52 348.647 1145.15ZM322.969 1133.68C322.969 1125.99 327.705 1119.7 336.067 1119.7C343.837 1119.7 349.387 1125.77 349.387 1133.68C349.387 1141.6 343.837 1147.6 336.067 1147.6C327.705 1147.6 322.969 1141.38 322.969 1133.68ZM391.398 1126.51H400.278L414.782 1151H421.294L405.976 1126.06C413.598 1125.25 419.37 1120.36 419.37 1112.59C419.37 1102.38 411.822 1098.61 401.462 1098.61H386.07V1151H391.398V1126.51ZM391.398 1103.2H400.87C408.788 1103.2 414.042 1105.71 414.042 1112.59C414.042 1118.81 409.158 1121.92 400.648 1121.92H391.398V1103.2ZM432.018 1131.02C432.462 1125.1 437.42 1119.7 444.154 1119.7C451.332 1119.7 455.328 1124.51 455.624 1131.02H432.018ZM460.73 1132.65C460.73 1123.18 455.032 1115.48 444.154 1115.48C434.312 1115.48 426.69 1123.25 426.69 1133.68C426.69 1144.12 434.312 1151.89 444.598 1151.89C450.296 1151.89 455.402 1149.74 459.472 1144.56L455.698 1141.6C453.774 1144.71 449.778 1147.6 444.598 1147.6C437.494 1147.6 432.092 1141.97 431.944 1135.02H460.656C460.73 1134.13 460.73 1133.31 460.73 1132.65ZM500.192 1145.15V1168.76H505.224V1116.37H500.192V1122.36H499.97C497.084 1117.85 491.904 1115.48 486.946 1115.48C476.142 1115.48 469.038 1123.47 469.038 1133.68C469.038 1143.9 476.142 1151.89 486.946 1151.89C491.904 1151.89 497.084 1149.45 499.97 1145.15H500.192ZM474.366 1133.68C474.366 1125.99 479.102 1119.7 487.464 1119.7C495.234 1119.7 500.784 1125.77 500.784 1133.68C500.784 1141.6 495.234 1147.6 487.464 1147.6C479.102 1147.6 474.366 1141.38 474.366 1133.68ZM548.496 1151C548.274 1148.63 548.2 1145.23 548.2 1143.38V1116.37H543.168V1134.13C543.168 1143.38 537.988 1147.67 532.66 1147.67C525.408 1147.67 523.262 1142.79 523.262 1135.53V1116.37H518.23V1137.61C518.23 1146.19 522.596 1151.89 531.402 1151.89C536.286 1151.89 541.318 1149.08 543.242 1145.08H543.39C543.39 1146.56 543.538 1149.15 543.686 1151H548.496ZM564.336 1131.02C564.78 1125.1 569.738 1119.7 576.472 1119.7C583.65 1119.7 587.646 1124.51 587.942 1131.02H564.336ZM593.048 1132.65C593.048 1123.18 587.35 1115.48 576.472 1115.48C566.63 1115.48 559.008 1123.25 559.008 1133.68C559.008 1144.12 566.63 1151.89 576.916 1151.89C582.614 1151.89 587.72 1149.74 591.79 1144.56L588.016 1141.6C586.092 1144.71 582.096 1147.6 576.916 1147.6C569.812 1147.6 564.41 1141.97 564.262 1135.02H592.974C593.048 1134.13 593.048 1133.31 593.048 1132.65ZM626.146 1121.7C623.926 1117.77 618.82 1115.48 614.01 1115.48C607.72 1115.48 601.652 1118.51 601.652 1125.54C601.652 1132.13 607.498 1133.91 611.568 1134.87C618.154 1136.42 621.78 1137.9 621.78 1141.53C621.78 1146.04 617.932 1147.6 613.64 1147.6C609.57 1147.6 605.796 1145.23 604.02 1142.19L600.024 1145.15C603.206 1149.82 608.46 1151.89 613.714 1151.89C620.078 1151.89 626.738 1149.08 626.738 1141.16C626.738 1135.76 622.89 1132.72 614.75 1131.02C609.052 1129.84 606.462 1128.36 606.462 1125.1C606.462 1121.25 610.162 1119.7 613.788 1119.7C617.636 1119.7 620.818 1121.7 622.298 1124.58L626.146 1121.7ZM652.367 1116.37H642.599V1106.6H637.567V1116.37H630.389V1120.59H637.567V1142.19C637.567 1149.82 642.747 1151.44 646.447 1151.44C648.741 1151.44 650.591 1151.07 652.367 1150.41L652.145 1146.04C650.813 1146.71 649.185 1147.15 647.779 1147.15C644.745 1147.15 642.599 1145.97 642.599 1140.79V1120.59H652.367V1116.37ZM682.513 1121.7C680.293 1117.77 675.187 1115.48 670.377 1115.48C664.087 1115.48 658.019 1118.51 658.019 1125.54C658.019 1132.13 663.865 1133.91 667.935 1134.87C674.521 1136.42 678.147 1137.9 678.147 1141.53C678.147 1146.04 674.299 1147.6 670.007 1147.6C665.937 1147.6 662.163 1145.23 660.387 1142.19L656.391 1145.15C659.573 1149.82 664.827 1151.89 670.081 1151.89C676.445 1151.89 683.105 1149.08 683.105 1141.16C683.105 1135.76 679.257 1132.72 671.117 1131.02C665.419 1129.84 662.829 1128.36 662.829 1125.1C662.829 1121.25 666.529 1119.7 670.155 1119.7C674.003 1119.7 677.185 1121.7 678.665 1124.58L682.513 1121.7Z" fill="black"/>
<path d="M1247 1097.28C1233.83 1097.28 1229.83 1111.26 1229.83 1124.88C1229.83 1138.49 1233.83 1152.33 1247 1152.33C1260.02 1152.33 1264.17 1138.49 1264.17 1124.88C1264.17 1111.26 1260.02 1097.28 1247 1097.28ZM1247 1101.79C1256.17 1101.79 1258.76 1114.44 1258.76 1124.88C1258.76 1135.31 1256.17 1147.74 1247 1147.74C1237.67 1147.74 1235.23 1135.31 1235.23 1124.88C1235.23 1114.44 1237.67 1101.79 1247 1101.79Z" fill="black"/>
<path d="M100.641 112.781C101.625 113.766 103.266 113.766 104.25 112.781L125.578 91.5625C126.562 90.4688 126.562 88.8281 125.578 87.8438L123.062 85.3281C122.078 84.3438 120.438 84.3438 119.344 85.3281L102.5 102.172L85.5469 85.3281C84.4531 84.3438 82.8125 84.3438 81.8281 85.3281L79.3125 87.8438C78.3281 88.8281 78.3281 90.4688 79.3125 91.5625L100.641 112.781Z" fill="#474747"/>
</svg>
