<svg width="1435" height="2634" viewBox="0 0 1435 2634" fill="none" xmlns="http://www.w3.org/2000/svg">
<rect width="1435" height="2634" fill="#E5E5E5"/>
<rect width="1432" height="2628" fill="white"/>
<rect x="37" y="30" width="1362" height="192" rx="96" fill="#D9D9D9"/>
<path d="M101.48 125.72V152H106.376V134.72C106.376 125.72 111.056 121.976 116.24 121.976C117.536 121.976 119.12 122.192 119.696 122.408L120.344 117.8C119.336 117.512 118.328 117.44 117.104 117.44C112.352 117.44 108.176 120.176 106.304 124.064H106.16C106.16 122.624 106.016 120.104 105.872 118.304H101.192C101.408 120.608 101.48 123.92 101.48 125.72ZM147.822 131.336C135.51 131.336 124.062 132.272 124.062 142.64C124.062 150.128 130.614 152.864 135.726 152.864C141.126 152.864 144.87 150.992 147.966 146.528H148.11C148.11 148.328 148.326 150.344 148.614 152H153.006C152.646 150.128 152.43 147.032 152.43 144.44V129.68C152.43 121.472 146.598 117.44 139.326 117.44C133.566 117.44 128.814 119.528 126.078 122.264L128.814 125.504C131.19 123.128 134.862 121.544 138.822 121.544C144.654 121.544 147.822 124.424 147.822 130.256V131.336ZM147.822 135.152V137.672C147.822 143.648 143.934 148.832 137.022 148.832C133.206 148.832 129.102 147.248 129.102 142.424C129.102 136.016 138.39 135.152 146.382 135.152H147.822ZM169.867 124.064H169.723C169.723 122.624 169.579 120.104 169.435 118.304H164.755C164.971 120.608 165.043 123.92 165.043 125.72V152H169.939V134.72C169.939 125.72 175.051 121.544 179.73 121.544C186.283 121.544 187.867 125.792 187.867 132.344V152H192.763V134.072C192.763 127.808 195.283 121.544 202.339 121.544C208.675 121.544 211.051 126.296 211.051 133.352V152H215.947V131.336C215.947 122.984 211.699 117.44 203.131 117.44C197.731 117.44 193.627 119.96 191.323 124.568C189.091 118.808 184.627 117.44 180.955 117.44C176.131 117.44 171.811 120.176 169.867 124.064ZM249.845 131.336C237.533 131.336 226.085 132.272 226.085 142.64C226.085 150.128 232.637 152.864 237.749 152.864C243.149 152.864 246.893 150.992 249.989 146.528H250.133C250.133 148.328 250.349 150.344 250.637 152H255.029C254.669 150.128 254.453 147.032 254.453 144.44V129.68C254.453 121.472 248.621 117.44 241.349 117.44C235.589 117.44 230.837 119.528 228.101 122.264L230.837 125.504C233.213 123.128 236.885 121.544 240.845 121.544C246.677 121.544 249.845 124.424 249.845 130.256V131.336ZM249.845 135.152V137.672C249.845 143.648 245.957 148.832 239.045 148.832C235.229 148.832 231.125 147.248 231.125 142.424C231.125 136.016 240.413 135.152 248.405 135.152H249.845ZM266.778 118.304C266.994 120.608 267.066 123.92 267.066 125.72V152H271.962V134.72C271.962 125.72 277.002 121.544 282.186 121.544C289.242 121.544 291.33 126.296 291.33 133.352V152H296.226V131.336C296.226 122.984 291.978 117.44 283.41 117.44C278.658 117.44 273.762 120.176 271.89 124.064H271.746C271.746 122.624 271.602 120.104 271.458 118.304H266.778Z" fill="black"/>
<path d="M101.48 152H100.48V153H101.48V152ZM106.376 152V153H107.376V152H106.376ZM119.696 122.408L119.345 123.344L120.513 123.782L120.686 122.547L119.696 122.408ZM120.344 117.8L121.334 117.939L121.455 117.078L120.619 116.838L120.344 117.8ZM106.304 124.064V125.064H106.932L107.205 124.498L106.304 124.064ZM106.16 124.064H105.16V125.064H106.16V124.064ZM105.872 118.304L106.869 118.224L106.795 117.304H105.872V118.304ZM101.192 118.304V117.304H100.094L100.196 118.397L101.192 118.304ZM100.48 125.72V152H102.48V125.72H100.48ZM101.48 153H106.376V151H101.48V153ZM107.376 152V134.72H105.376V152H107.376ZM107.376 134.72C107.376 130.387 108.501 127.463 110.114 125.635C111.718 123.816 113.897 122.976 116.24 122.976V120.976C113.399 120.976 110.646 122.008 108.614 124.311C106.591 126.605 105.376 130.053 105.376 134.72H107.376ZM116.24 122.976C116.838 122.976 117.515 123.026 118.11 123.103C118.732 123.183 119.173 123.28 119.345 123.344L120.047 121.472C119.643 121.32 119.004 121.201 118.366 121.119C117.701 121.034 116.938 120.976 116.24 120.976V122.976ZM120.686 122.547L121.334 117.939L119.354 117.661L118.706 122.269L120.686 122.547ZM120.619 116.838C119.479 116.513 118.363 116.44 117.104 116.44V118.44C118.293 118.44 119.193 118.511 120.069 118.762L120.619 116.838ZM117.104 116.44C111.972 116.44 107.443 119.393 105.403 123.63L107.205 124.498C108.909 120.959 112.732 118.44 117.104 118.44V116.44ZM106.304 123.064H106.16V125.064H106.304V123.064ZM107.16 124.064C107.16 122.584 107.013 120.032 106.869 118.224L104.875 118.384C105.019 120.176 105.16 122.664 105.16 124.064H107.16ZM105.872 117.304H101.192V119.304H105.872V117.304ZM100.196 118.397C100.408 120.655 100.48 123.931 100.48 125.72H102.48C102.48 123.909 102.408 120.561 102.188 118.211L100.196 118.397ZM147.822 131.336V132.336H148.822V131.336H147.822ZM147.966 146.528V145.528H147.442L147.144 145.958L147.966 146.528ZM148.11 146.528H149.11V145.528H148.11V146.528ZM148.614 152L147.628 152.171L147.772 153H148.614V152ZM153.006 152V153H154.216L153.988 151.811L153.006 152ZM126.078 122.264L125.37 121.557L124.72 122.207L125.314 122.909L126.078 122.264ZM128.814 125.504L128.05 126.149L128.751 126.98L129.521 126.211L128.814 125.504ZM147.822 135.152H148.822V134.152H147.822V135.152ZM147.822 130.336C141.684 130.336 135.58 130.562 130.996 132.155C128.686 132.959 126.688 134.133 125.269 135.866C123.837 137.615 123.062 139.851 123.062 142.64H125.062C125.062 140.245 125.717 138.476 126.816 137.133C127.928 135.775 129.562 134.771 131.653 134.045C135.871 132.578 141.647 132.336 147.822 132.336V130.336ZM123.062 142.64C123.062 146.724 124.87 149.577 127.397 151.375C129.882 153.143 133.015 153.864 135.726 153.864V151.864C133.324 151.864 130.625 151.217 128.556 149.745C126.529 148.303 125.062 146.044 125.062 142.64H123.062ZM135.726 153.864C138.543 153.864 140.994 153.375 143.166 152.26C145.34 151.143 147.167 149.434 148.787 147.098L147.144 145.958C145.668 148.086 144.075 149.545 142.253 150.48C140.429 151.417 138.308 151.864 135.726 151.864V153.864ZM147.966 147.528H148.11V145.528H147.966V147.528ZM147.11 146.528C147.11 148.398 147.333 150.472 147.628 152.171L149.599 151.829C149.318 150.216 149.11 148.258 149.11 146.528H147.11ZM148.614 153H153.006V151H148.614V153ZM153.988 151.811C153.644 150.026 153.43 147 153.43 144.44H151.43C151.43 147.064 151.647 150.23 152.024 152.189L153.988 151.811ZM153.43 144.44V129.68H151.43V144.44H153.43ZM153.43 129.68C153.43 125.32 151.87 121.969 149.256 119.724C146.664 117.496 143.136 116.44 139.326 116.44V118.44C142.787 118.44 145.811 119.4 147.953 121.24C150.073 123.063 151.43 125.832 151.43 129.68H153.43ZM139.326 116.44C133.339 116.44 128.32 118.608 125.37 121.557L126.785 122.971C129.307 120.448 133.792 118.44 139.326 118.44V116.44ZM125.314 122.909L128.05 126.149L129.578 124.859L126.842 121.619L125.314 122.909ZM129.521 126.211C131.701 124.03 135.116 122.544 138.822 122.544V120.544C134.608 120.544 130.678 122.226 128.106 124.797L129.521 126.211ZM138.822 122.544C141.586 122.544 143.548 123.227 144.819 124.437C146.081 125.639 146.822 127.516 146.822 130.256H148.822C148.822 127.164 147.979 124.685 146.198 122.989C144.427 121.301 141.889 120.544 138.822 120.544V122.544ZM146.822 130.256V131.336H148.822V130.256H146.822ZM146.822 135.152V137.672H148.822V135.152H146.822ZM146.822 137.672C146.822 140.448 145.919 142.99 144.27 144.825C142.633 146.645 140.209 147.832 137.022 147.832V149.832C140.746 149.832 143.722 148.427 145.757 146.161C147.78 143.91 148.822 140.872 148.822 137.672H146.822ZM137.022 147.832C135.227 147.832 133.465 147.456 132.184 146.604C130.959 145.79 130.102 144.5 130.102 142.424H128.102C128.102 145.172 129.296 147.086 131.077 148.27C132.802 149.416 135 149.832 137.022 149.832V147.832ZM130.102 142.424C130.102 141.096 130.57 140.095 131.38 139.296C132.217 138.471 133.459 137.824 135.037 137.341C138.203 136.372 142.391 136.152 146.382 136.152V134.152C142.38 134.152 137.928 134.364 134.452 135.429C132.709 135.963 131.13 136.734 129.975 137.872C128.794 139.038 128.102 140.548 128.102 142.424H130.102ZM146.382 136.152H147.822V134.152H146.382V136.152ZM169.867 124.064V125.064H170.485L170.761 124.511L169.867 124.064ZM169.723 124.064H168.723V125.064H169.723V124.064ZM169.435 118.304L170.431 118.224L170.358 117.304H169.435V118.304ZM164.755 118.304V117.304H163.656L163.759 118.397L164.755 118.304ZM165.043 152H164.043V153H165.043V152ZM169.939 152V153H170.939V152H169.939ZM187.867 152H186.867V153H187.867V152ZM192.763 152V153H193.763V152H192.763ZM211.051 152H210.051V153H211.051V152ZM215.947 152V153H216.947V152H215.947ZM191.323 124.568L190.39 124.929L191.206 127.036L192.217 125.015L191.323 124.568ZM169.867 123.064H169.723V125.064H169.867V123.064ZM170.723 124.064C170.723 122.584 170.576 120.032 170.431 118.224L168.438 118.384C168.581 120.176 168.723 122.664 168.723 124.064H170.723ZM169.435 117.304H164.755V119.304H169.435V117.304ZM163.759 118.397C163.971 120.655 164.043 123.931 164.043 125.72H166.043C166.043 123.909 165.97 120.561 165.75 118.211L163.759 118.397ZM164.043 125.72V152H166.043V125.72H164.043ZM165.043 153H169.939V151H165.043V153ZM170.939 152V134.72H168.939V152H170.939ZM170.939 134.72C170.939 126.124 175.74 122.544 179.73 122.544V120.544C174.361 120.544 168.939 125.316 168.939 134.72H170.939ZM179.73 122.544C182.765 122.544 184.432 123.507 185.415 125.03C186.464 126.653 186.867 129.1 186.867 132.344H188.867C188.867 129.036 188.477 126.083 187.096 123.944C185.649 121.705 183.248 120.544 179.73 120.544V122.544ZM186.867 132.344V152H188.867V132.344H186.867ZM187.867 153H192.763V151H187.867V153ZM193.763 152V134.072H191.763V152H193.763ZM193.763 134.072C193.763 131.05 194.374 128.13 195.745 126C197.081 123.925 199.165 122.544 202.339 122.544V120.544C198.456 120.544 195.752 122.295 194.064 124.918C192.411 127.486 191.763 130.83 191.763 134.072H193.763ZM202.339 122.544C205.216 122.544 207.062 123.599 208.24 125.358C209.465 127.188 210.051 129.905 210.051 133.352H212.051C212.051 129.743 211.448 126.556 209.901 124.246C208.307 121.865 205.797 120.544 202.339 120.544V122.544ZM210.051 133.352V152H212.051V133.352H210.051ZM211.051 153H215.947V151H211.051V153ZM216.947 152V131.336H214.947V152H216.947ZM216.947 131.336C216.947 127.003 215.845 123.264 213.503 120.596C211.143 117.908 207.641 116.44 203.131 116.44V118.44C207.188 118.44 210.094 119.744 212 121.916C213.924 124.108 214.947 127.317 214.947 131.336H216.947ZM203.131 116.44C197.365 116.44 192.907 119.162 190.428 124.121L192.217 125.015C194.346 120.758 198.096 118.44 203.131 118.44V116.44ZM192.255 124.207C191.062 121.127 189.241 119.159 187.176 117.976C185.127 116.803 182.908 116.44 180.955 116.44V118.44C182.673 118.44 184.522 118.761 186.181 119.712C187.824 120.653 189.351 122.249 190.39 124.929L192.255 124.207ZM180.955 116.44C175.764 116.44 171.091 119.379 168.972 123.617L170.761 124.511C172.53 120.973 176.497 118.44 180.955 118.44V116.44ZM249.845 131.336V132.336H250.845V131.336H249.845ZM249.989 146.528V145.528H249.466L249.167 145.958L249.989 146.528ZM250.133 146.528H251.133V145.528H250.133V146.528ZM250.637 152L249.652 152.171L249.796 153H250.637V152ZM255.029 152V153H256.24L256.011 151.811L255.029 152ZM228.101 122.264L227.394 121.557L226.744 122.207L227.337 122.909L228.101 122.264ZM230.837 125.504L230.073 126.149L230.775 126.98L231.544 126.211L230.837 125.504ZM249.845 135.152H250.845V134.152H249.845V135.152ZM249.845 130.336C243.708 130.336 237.603 130.562 233.02 132.155C230.709 132.959 228.712 134.133 227.292 135.866C225.86 137.615 225.085 139.851 225.085 142.64H227.085C227.085 140.245 227.741 138.476 228.84 137.133C229.952 135.775 231.586 134.771 233.676 134.045C237.895 132.578 243.67 132.336 249.845 132.336V130.336ZM225.085 142.64C225.085 146.724 226.893 149.577 229.42 151.375C231.905 153.143 235.038 153.864 237.749 153.864V151.864C235.348 151.864 232.649 151.217 230.58 149.745C228.553 148.303 227.085 146.044 227.085 142.64H225.085ZM237.749 153.864C240.566 153.864 243.018 153.375 245.19 152.26C247.364 151.143 249.19 149.434 250.811 147.098L249.167 145.958C247.692 148.086 246.098 149.545 244.276 150.48C242.452 151.417 240.332 151.864 237.749 151.864V153.864ZM249.989 147.528H250.133V145.528H249.989V147.528ZM249.133 146.528C249.133 148.398 249.356 150.472 249.652 152.171L251.622 151.829C251.342 150.216 251.133 148.258 251.133 146.528H249.133ZM250.637 153H255.029V151H250.637V153ZM256.011 151.811C255.668 150.026 255.453 147 255.453 144.44H253.453C253.453 147.064 253.67 150.23 254.047 152.189L256.011 151.811ZM255.453 144.44V129.68H253.453V144.44H255.453ZM255.453 129.68C255.453 125.32 253.893 121.969 251.28 119.724C248.688 117.496 245.16 116.44 241.349 116.44V118.44C244.81 118.44 247.834 119.4 249.976 121.24C252.097 123.063 253.453 125.832 253.453 129.68H255.453ZM241.349 116.44C235.363 116.44 230.343 118.608 227.394 121.557L228.808 122.971C231.331 120.448 235.815 118.44 241.349 118.44V116.44ZM227.337 122.909L230.073 126.149L231.601 124.859L228.865 121.619L227.337 122.909ZM231.544 126.211C233.725 124.03 237.139 122.544 240.845 122.544V120.544C236.631 120.544 232.701 122.226 230.13 124.797L231.544 126.211ZM240.845 122.544C243.61 122.544 245.572 123.227 246.842 124.437C248.104 125.639 248.845 127.516 248.845 130.256H250.845C250.845 127.164 250.002 124.685 248.222 122.989C246.45 121.301 243.912 120.544 240.845 120.544V122.544ZM248.845 130.256V131.336H250.845V130.256H248.845ZM248.845 135.152V137.672H250.845V135.152H248.845ZM248.845 137.672C248.845 140.448 247.942 142.99 246.293 144.825C244.657 146.645 242.232 147.832 239.045 147.832V149.832C242.77 149.832 245.745 148.427 247.781 146.161C249.804 143.91 250.845 140.872 250.845 137.672H248.845ZM239.045 147.832C237.25 147.832 235.489 147.456 234.208 146.604C232.982 145.79 232.125 144.5 232.125 142.424H230.125C230.125 145.172 231.32 147.086 233.1 148.27C234.825 149.416 237.024 149.832 239.045 149.832V147.832ZM232.125 142.424C232.125 141.096 232.594 140.095 233.403 139.296C234.241 138.471 235.483 137.824 237.061 137.341C240.227 136.372 244.415 136.152 248.405 136.152V134.152C244.403 134.152 239.951 134.364 236.475 135.429C234.732 135.963 233.153 136.734 231.999 137.872C230.817 139.038 230.125 140.548 230.125 142.424H232.125ZM248.405 136.152H249.845V134.152H248.405V136.152ZM266.778 118.304V117.304H265.68L265.782 118.397L266.778 118.304ZM267.066 152H266.066V153H267.066V152ZM271.962 152V153H272.962V152H271.962ZM291.33 152H290.33V153H291.33V152ZM296.226 152V153H297.226V152H296.226ZM271.89 124.064V125.064H272.518L272.791 124.498L271.89 124.064ZM271.746 124.064H270.746V125.064H271.746V124.064ZM271.458 118.304L272.455 118.224L272.381 117.304H271.458V118.304ZM265.782 118.397C265.994 120.655 266.066 123.931 266.066 125.72H268.066C268.066 123.909 267.994 120.561 267.774 118.211L265.782 118.397ZM266.066 125.72V152H268.066V125.72H266.066ZM267.066 153H271.962V151H267.066V153ZM272.962 152V134.72H270.962V152H272.962ZM272.962 134.72C272.962 130.406 274.168 127.365 275.881 125.417C277.592 123.473 279.87 122.544 282.186 122.544V120.544C279.318 120.544 276.484 121.703 274.379 124.097C272.276 126.487 270.962 130.034 270.962 134.72H272.962ZM282.186 122.544C285.461 122.544 287.399 123.627 288.576 125.363C289.809 127.181 290.33 129.883 290.33 133.352H292.33C292.33 129.765 291.807 126.563 290.232 124.241C288.601 121.837 285.967 120.544 282.186 120.544V122.544ZM290.33 133.352V152H292.33V133.352H290.33ZM291.33 153H296.226V151H291.33V153ZM297.226 152V131.336H295.226V152H297.226ZM297.226 131.336C297.226 127.003 296.124 123.264 293.782 120.596C291.423 117.908 287.921 116.44 283.41 116.44V118.44C287.467 118.44 290.373 119.744 292.279 121.916C294.204 124.108 295.226 127.317 295.226 131.336H297.226ZM283.41 116.44C278.344 116.44 273.056 119.337 270.989 123.63L272.791 124.498C274.468 121.015 278.972 118.44 283.41 118.44V116.44ZM271.89 123.064H271.746V125.064H271.89V123.064ZM272.746 124.064C272.746 122.584 272.599 120.032 272.455 118.224L270.461 118.384C270.604 120.176 270.746 122.664 270.746 124.064H272.746ZM271.458 117.304H266.778V119.304H271.458V117.304Z" fill="black"/>
<line x1="1268.97" y1="101.02" x2="1319.22" y2="151.274" stroke="black" stroke-width="7"/>
<line x1="1269.02" y1="151.274" x2="1319.27" y2="101.02" stroke="black" stroke-width="7"/>
<line x1="304" y1="82" x2="304" y2="171" stroke="#E3006D" stroke-width="8"/>
<ellipse cx="304.125" cy="226.109" rx="38.4553" ry="39.5404" transform="rotate(-90 304.125 226.109)" fill="#E3006D"/>
<path d="M304.5 169L340.44 211H268.56L304.5 169Z" fill="#E3006D"/>
<path d="M209.4 352.1V374H213.48V359.6C213.48 352.1 217.38 348.98 221.7 348.98C222.78 348.98 224.1 349.16 224.58 349.34L225.12 345.5C224.28 345.26 223.44 345.2 222.42 345.2C218.46 345.2 214.98 347.48 213.42 350.72H213.3C213.3 349.52 213.18 347.42 213.06 345.92H209.16C209.34 347.84 209.4 350.6 209.4 352.1ZM248.018 356.78C237.758 356.78 228.218 357.56 228.218 366.2C228.218 372.44 233.678 374.72 237.938 374.72C242.438 374.72 245.558 373.16 248.138 369.44H248.258C248.258 370.94 248.438 372.62 248.678 374H252.338C252.038 372.44 251.858 369.86 251.858 367.7V355.4C251.858 348.56 246.998 345.2 240.938 345.2C236.138 345.2 232.178 346.94 229.898 349.22L232.178 351.92C234.158 349.94 237.218 348.62 240.518 348.62C245.378 348.62 248.018 351.02 248.018 355.88V356.78ZM248.018 359.96V362.06C248.018 367.04 244.778 371.36 239.018 371.36C235.838 371.36 232.418 370.04 232.418 366.02C232.418 360.68 240.158 359.96 246.818 359.96H248.018ZM266.389 350.72H266.269C266.269 349.52 266.149 347.42 266.029 345.92H262.129C262.309 347.84 262.369 350.6 262.369 352.1V374H266.449V359.6C266.449 352.1 270.709 348.62 274.609 348.62C280.069 348.62 281.389 352.16 281.389 357.62V374H285.469V359.06C285.469 353.84 287.569 348.62 293.449 348.62C298.729 348.62 300.709 352.58 300.709 358.46V374H304.789V356.78C304.789 349.82 301.249 345.2 294.109 345.2C289.609 345.2 286.189 347.3 284.269 351.14C282.409 346.34 278.689 345.2 275.629 345.2C271.609 345.2 268.009 347.48 266.389 350.72ZM333.038 356.78C322.778 356.78 313.238 357.56 313.238 366.2C313.238 372.44 318.698 374.72 322.958 374.72C327.458 374.72 330.578 373.16 333.158 369.44H333.278C333.278 370.94 333.458 372.62 333.698 374H337.358C337.058 372.44 336.878 369.86 336.878 367.7V355.4C336.878 348.56 332.018 345.2 325.958 345.2C321.158 345.2 317.198 346.94 314.918 349.22L317.198 351.92C319.178 349.94 322.238 348.62 325.538 348.62C330.398 348.62 333.038 351.02 333.038 355.88V356.78ZM333.038 359.96V362.06C333.038 367.04 329.798 371.36 324.038 371.36C320.858 371.36 317.438 370.04 317.438 366.02C317.438 360.68 325.178 359.96 331.838 359.96H333.038ZM347.148 345.92C347.328 347.84 347.388 350.6 347.388 352.1V374H351.468V359.6C351.468 352.1 355.668 348.62 359.988 348.62C365.868 348.62 367.608 352.58 367.608 358.46V374H371.688V356.78C371.688 349.82 368.148 345.2 361.008 345.2C357.048 345.2 352.968 347.48 351.408 350.72H351.288C351.288 349.52 351.168 347.42 351.048 345.92H347.148ZM387.892 371.12C387.892 369.44 386.572 367.88 384.652 367.88C382.732 367.88 381.412 369.44 381.412 371.12C381.412 372.8 382.732 374.36 384.652 374.36C386.572 374.36 387.892 372.8 387.892 371.12ZM402.158 369.26C404.558 372.8 408.758 374.72 412.778 374.72C421.538 374.72 427.298 368.24 427.298 359.96C427.298 351.68 421.538 345.2 412.778 345.2C408.758 345.2 404.558 347.12 402.158 350.78H402.038V328.64H397.958V374H402.038V369.26H402.158ZM422.978 359.96C422.978 366.2 419.138 371.24 412.358 371.24C406.058 371.24 401.558 366.38 401.558 359.96C401.558 353.54 406.058 348.62 412.358 348.62C419.138 348.62 422.978 353.72 422.978 359.96ZM440.241 350.54V328.64H436.161V374H440.241V359.6C440.241 352.1 444.441 348.62 448.761 348.62C454.641 348.62 456.381 352.58 456.381 358.46V374H460.461V356.78C460.461 349.82 456.921 345.2 449.781 345.2C445.821 345.2 441.861 347.3 440.361 350.54H440.241ZM488.721 356.78C478.461 356.78 468.921 357.56 468.921 366.2C468.921 372.44 474.381 374.72 478.641 374.72C483.141 374.72 486.261 373.16 488.841 369.44H488.961C488.961 370.94 489.141 372.62 489.381 374H493.041C492.741 372.44 492.561 369.86 492.561 367.7V355.4C492.561 348.56 487.701 345.2 481.641 345.2C476.841 345.2 472.881 346.94 470.601 349.22L472.881 351.92C474.861 349.94 477.921 348.62 481.221 348.62C486.081 348.62 488.721 351.02 488.721 355.88V356.78ZM488.721 359.96V362.06C488.721 367.04 485.481 371.36 479.721 371.36C476.541 371.36 473.121 370.04 473.121 366.02C473.121 360.68 480.861 359.96 487.521 359.96H488.721ZM515.146 345.92H507.226V338H503.146V345.92H497.326V349.34H503.146V366.86C503.146 373.04 507.346 374.36 510.346 374.36C512.206 374.36 513.706 374.06 515.146 373.52L514.966 369.98C513.886 370.52 512.566 370.88 511.426 370.88C508.966 370.88 507.226 369.92 507.226 365.72V349.34H515.146V345.92ZM533.486 345.92H525.566V338H521.486V345.92H515.666V349.34H521.486V366.86C521.486 373.04 525.686 374.36 528.686 374.36C530.546 374.36 532.046 374.06 533.486 373.52L533.306 369.98C532.226 370.52 530.906 370.88 529.766 370.88C527.306 370.88 525.566 369.92 525.566 365.72V349.34H533.486V345.92ZM544.009 345.92H539.929V374H544.009V345.92ZM544.849 335.12C544.849 333.44 543.409 332.24 541.969 332.24C540.529 332.24 539.089 333.44 539.089 335.12C539.089 336.8 540.529 338 541.969 338C543.409 338 544.849 336.8 544.849 335.12Z" fill="black"/>
<path d="M103 298C68.75 298 41 325.75 41 360C41 394.25 68.75 422 103 422C137.25 422 165 394.25 165 360C165 325.75 137.25 298 103 298ZM103 322C115 322 125 332 125 344C125 356.25 115 366 103 366C90.75 366 81 356.25 81 344C81 332 90.75 322 103 322ZM103 408C88.25 408 75 401.5 66.25 391C71 382.25 80.25 376 91 376C91.5 376 92 376.25 92.75 376.5C96 377.5 99.25 378 103 378C106.5 378 110 377.5 113 376.5C113.75 376.25 114.25 376 115 376C125.5 376 134.75 382.25 139.5 391C130.75 401.5 117.5 408 103 408Z" fill="#B7B7B7"/>
<line x1="1.99841" y1="432.494" x2="1434" y2="432.494" stroke="#E7E7E7" stroke-width="6"/>
<rect x="2" y="1624" width="1432" height="1010" fill="#DBDBDB"/>
<rect x="589" y="1654" width="118" height="140" rx="20" fill="#F7F7F7"/>
<path d="M641.498 1725.04L636.295 1723.71L638.861 1698.22H665.123V1704.23H644.381L642.834 1718.15C643.771 1717.61 644.955 1717.11 646.385 1716.64C647.838 1716.17 649.502 1715.94 651.377 1715.94C653.744 1715.94 655.865 1716.35 657.74 1717.17C659.615 1717.96 661.209 1719.11 662.521 1720.61C663.857 1722.11 664.877 1723.92 665.58 1726.03C666.283 1728.14 666.635 1730.49 666.635 1733.09C666.635 1735.55 666.295 1737.82 665.615 1739.88C664.959 1741.94 663.963 1743.75 662.627 1745.29C661.291 1746.82 659.603 1748 657.564 1748.84C655.549 1749.69 653.17 1750.11 650.427 1750.11C648.365 1750.11 646.408 1749.83 644.556 1749.27C642.728 1748.68 641.088 1747.8 639.635 1746.63C638.205 1745.43 637.033 1743.96 636.119 1742.2C635.228 1740.42 634.666 1738.33 634.431 1735.94H640.619C640.9 1737.86 641.463 1739.48 642.306 1740.79C643.15 1742.1 644.252 1743.1 645.611 1743.78C646.994 1744.44 648.599 1744.77 650.427 1744.77C651.974 1744.77 653.345 1744.5 654.541 1743.96C655.736 1743.42 656.744 1742.64 657.564 1741.64C658.385 1740.63 659.006 1739.41 659.427 1737.98C659.873 1736.55 660.095 1734.94 660.095 1733.16C660.095 1731.55 659.873 1730.05 659.427 1728.66C658.982 1727.28 658.314 1726.07 657.424 1725.04C656.556 1724.01 655.49 1723.21 654.224 1722.65C652.959 1722.07 651.506 1721.77 649.865 1721.77C647.685 1721.77 646.033 1722.07 644.908 1722.65C643.806 1723.24 642.67 1724.03 641.498 1725.04Z" fill="black"/>
<rect x="449" y="1654" width="118" height="140" rx="20" fill="#F7F7F7"/>
<path d="M527.865 1732.18V1737.52H490.881V1733.69L513.802 1698.22H519.111L513.416 1708.48L498.263 1732.18H527.865ZM520.728 1698.22V1749.41H514.224V1698.22H520.728Z" fill="black"/>
<rect x="309" y="1654" width="118" height="140" rx="20" fill="#F7F7F7"/>
<path d="M362.763 1720.61H367.404C369.677 1720.61 371.552 1720.24 373.029 1719.49C374.529 1718.71 375.642 1717.67 376.369 1716.36C377.119 1715.02 377.494 1713.52 377.494 1711.86C377.494 1709.89 377.166 1708.24 376.51 1706.9C375.853 1705.57 374.869 1704.56 373.556 1703.88C372.244 1703.2 370.58 1702.86 368.564 1702.86C366.736 1702.86 365.119 1703.22 363.713 1703.95C362.33 1704.65 361.24 1705.66 360.443 1706.97C359.67 1708.28 359.283 1709.83 359.283 1711.61H352.779C352.779 1709.01 353.435 1706.64 354.748 1704.51C356.06 1702.38 357.9 1700.68 360.267 1699.41C362.658 1698.15 365.424 1697.52 368.564 1697.52C371.658 1697.52 374.365 1698.07 376.685 1699.17C379.006 1700.25 380.81 1701.86 382.099 1704.02C383.388 1706.15 384.033 1708.81 384.033 1712C384.033 1713.29 383.728 1714.67 383.119 1716.15C382.533 1717.6 381.607 1718.96 380.342 1720.23C379.099 1721.49 377.482 1722.53 375.49 1723.35C373.498 1724.15 371.107 1724.55 368.318 1724.55H362.763V1720.61ZM362.763 1725.96V1722.05H368.318C371.576 1722.05 374.271 1722.44 376.404 1723.21C378.537 1723.99 380.213 1725.02 381.431 1726.31C382.674 1727.6 383.541 1729.02 384.033 1730.56C384.549 1732.09 384.806 1733.61 384.806 1735.13C384.806 1737.52 384.396 1739.64 383.576 1741.5C382.779 1743.35 381.642 1744.92 380.166 1746.21C378.713 1747.5 377.002 1748.47 375.033 1749.12C373.064 1749.78 370.92 1750.11 368.599 1750.11C366.373 1750.11 364.275 1749.79 362.306 1749.16C360.361 1748.53 358.638 1747.61 357.138 1746.42C355.638 1745.2 354.467 1743.71 353.623 1741.95C352.779 1740.17 352.357 1738.14 352.357 1735.87H358.861C358.861 1737.65 359.248 1739.21 360.021 1740.55C360.818 1741.88 361.943 1742.93 363.396 1743.68C364.873 1744.4 366.607 1744.77 368.599 1744.77C370.592 1744.77 372.302 1744.43 373.732 1743.75C375.185 1743.04 376.299 1741.99 377.072 1740.58C377.869 1739.18 378.267 1737.41 378.267 1735.27C378.267 1733.14 377.822 1731.39 376.931 1730.03C376.041 1728.65 374.775 1727.63 373.135 1726.98C371.517 1726.3 369.607 1725.96 367.404 1725.96H362.763Z" fill="black"/>
<rect x="169" y="1654" width="118" height="140" rx="20" fill="#F7F7F7"/>
<path d="M246.81 1744.06V1749.41H213.306V1744.73L230.076 1726.06C232.138 1723.77 233.732 1721.82 234.857 1720.23C236.006 1718.61 236.802 1717.17 237.248 1715.9C237.717 1714.61 237.951 1713.3 237.951 1711.96C237.951 1710.28 237.599 1708.75 236.896 1707.39C236.217 1706.01 235.209 1704.91 233.873 1704.09C232.537 1703.27 230.92 1702.86 229.021 1702.86C226.748 1702.86 224.849 1703.3 223.326 1704.19C221.826 1705.06 220.701 1706.28 219.951 1707.85C219.201 1709.42 218.826 1711.23 218.826 1713.27H212.322C212.322 1710.38 212.955 1707.75 214.22 1705.35C215.486 1702.96 217.361 1701.07 219.845 1699.66C222.33 1698.23 225.388 1697.52 229.021 1697.52C232.256 1697.52 235.021 1698.09 237.318 1699.24C239.615 1700.36 241.373 1701.96 242.592 1704.02C243.834 1706.06 244.455 1708.45 244.455 1711.19C244.455 1712.69 244.197 1714.21 243.681 1715.76C243.189 1717.28 242.498 1718.81 241.607 1720.33C240.74 1721.85 239.72 1723.35 238.549 1724.83C237.4 1726.31 236.17 1727.76 234.857 1729.19L221.146 1744.06H246.81Z" fill="black"/>
<rect x="29" y="1652" width="118" height="140" rx="20" fill="#F7F7F7"/>
<path d="M94.6462 1695.94V1747.41H88.1423V1704.06L75.0291 1708.84V1702.97L93.6267 1695.94H94.6462Z" fill="black"/>
<rect x="1149" y="1654" width="118" height="140" rx="20" fill="#F7F7F7"/>
<path d="M1199.74 1743.96H1200.41C1204.16 1743.96 1207.2 1743.43 1209.55 1742.37C1211.89 1741.32 1213.7 1739.9 1214.96 1738.12C1216.23 1736.34 1217.1 1734.34 1217.56 1732.11C1218.03 1729.86 1218.27 1727.55 1218.27 1725.18V1717.34C1218.27 1715.02 1218 1712.96 1217.46 1711.16C1216.94 1709.35 1216.22 1707.84 1215.28 1706.62C1214.36 1705.4 1213.32 1704.48 1212.15 1703.84C1210.98 1703.21 1209.74 1702.89 1208.42 1702.89C1206.92 1702.89 1205.58 1703.2 1204.38 1703.81C1203.21 1704.39 1202.21 1705.23 1201.39 1706.3C1200.6 1707.38 1199.99 1708.65 1199.56 1710.1C1199.14 1711.55 1198.93 1713.14 1198.93 1714.85C1198.93 1716.37 1199.12 1717.85 1199.49 1719.28C1199.87 1720.71 1200.44 1722 1201.22 1723.14C1201.99 1724.29 1202.95 1725.21 1204.1 1725.89C1205.27 1726.54 1206.64 1726.87 1208.21 1726.87C1209.67 1726.87 1211.03 1726.59 1212.29 1726.03C1213.58 1725.44 1214.72 1724.66 1215.7 1723.67C1216.71 1722.66 1217.51 1721.53 1218.09 1720.26C1218.7 1719 1219.05 1717.67 1219.15 1716.29H1222.24C1222.24 1718.23 1221.85 1720.16 1221.08 1722.05C1220.33 1723.93 1219.28 1725.64 1217.92 1727.19C1216.56 1728.73 1214.96 1729.98 1213.13 1730.91C1211.31 1731.83 1209.31 1732.28 1207.16 1732.28C1204.63 1732.28 1202.44 1731.79 1200.58 1730.81C1198.73 1729.82 1197.21 1728.51 1196.01 1726.87C1194.84 1725.23 1193.96 1723.4 1193.38 1721.39C1192.81 1719.35 1192.53 1717.28 1192.53 1715.2C1192.53 1712.76 1192.87 1710.48 1193.55 1708.34C1194.23 1706.21 1195.24 1704.34 1196.58 1702.72C1197.91 1701.08 1199.56 1699.8 1201.53 1698.89C1203.53 1697.97 1205.82 1697.52 1208.42 1697.52C1211.35 1697.52 1213.85 1698.1 1215.91 1699.27C1217.97 1700.44 1219.65 1702.02 1220.94 1703.98C1222.25 1705.95 1223.21 1708.17 1223.82 1710.63C1224.43 1713.09 1224.74 1715.62 1224.74 1718.22V1720.58C1224.74 1723.23 1224.56 1725.92 1224.21 1728.66C1223.88 1731.38 1223.24 1733.98 1222.28 1736.47C1221.34 1738.95 1219.97 1741.18 1218.16 1743.15C1216.36 1745.09 1214 1746.64 1211.1 1747.79C1208.21 1748.91 1204.65 1749.48 1200.41 1749.48H1199.74V1743.96Z" fill="black"/>
<rect x="1289" y="1654" width="118" height="140" rx="20" fill="#F7F7F7"/>
<path d="M1365.4 1719.73V1727.54C1365.4 1731.73 1365.03 1735.27 1364.28 1738.16C1363.53 1741.04 1362.45 1743.36 1361.04 1745.12C1359.64 1746.87 1357.94 1748.15 1355.95 1748.95C1353.98 1749.72 1351.75 1750.11 1349.27 1750.11C1347.3 1750.11 1345.48 1749.86 1343.82 1749.37C1342.15 1748.88 1340.65 1748.09 1339.32 1747.02C1338.01 1745.91 1336.88 1744.48 1335.94 1742.73C1335.01 1740.97 1334.29 1738.84 1333.8 1736.33C1333.31 1733.82 1333.06 1730.89 1333.06 1727.54V1719.73C1333.06 1715.54 1333.44 1712.02 1334.19 1709.19C1334.96 1706.35 1336.05 1704.08 1337.45 1702.37C1338.86 1700.63 1340.55 1699.39 1342.52 1698.64C1344.51 1697.89 1346.74 1697.52 1349.2 1697.52C1351.19 1697.52 1353.02 1697.76 1354.68 1698.25C1356.37 1698.72 1357.87 1699.48 1359.18 1700.54C1360.49 1701.57 1361.61 1702.95 1362.52 1704.69C1363.46 1706.4 1364.17 1708.5 1364.67 1710.98C1365.16 1713.46 1365.4 1716.38 1365.4 1719.73ZM1358.86 1728.59V1718.64C1358.86 1716.35 1358.72 1714.33 1358.44 1712.6C1358.19 1710.84 1357.8 1709.34 1357.28 1708.1C1356.77 1706.85 1356.11 1705.85 1355.31 1705.07C1354.54 1704.3 1353.64 1703.74 1352.61 1703.39C1351.6 1703.01 1350.46 1702.82 1349.2 1702.82C1347.65 1702.82 1346.28 1703.12 1345.08 1703.7C1343.89 1704.27 1342.88 1705.17 1342.06 1706.41C1341.26 1707.65 1340.65 1709.28 1340.23 1711.3C1339.81 1713.31 1339.6 1715.76 1339.6 1718.64V1728.59C1339.6 1730.89 1339.73 1732.92 1339.99 1734.68C1340.27 1736.43 1340.68 1737.96 1341.22 1739.25C1341.76 1740.51 1342.41 1741.55 1343.19 1742.37C1343.96 1743.19 1344.85 1743.8 1345.86 1744.2C1346.89 1744.58 1348.03 1744.77 1349.27 1744.77C1350.86 1744.77 1352.26 1744.46 1353.45 1743.85C1354.65 1743.24 1355.64 1742.29 1356.44 1741C1357.26 1739.69 1357.87 1738.02 1358.27 1735.98C1358.67 1733.91 1358.86 1731.45 1358.86 1728.59Z" fill="black"/>
<rect x="1009" y="1654" width="118" height="140" rx="20" fill="#F7F7F7"/>
<path d="M1085.54 1735.55C1085.54 1738.67 1084.82 1741.32 1083.36 1743.5C1081.94 1745.66 1079.99 1747.3 1077.53 1748.42C1075.09 1749.55 1072.34 1750.11 1069.27 1750.11C1066.2 1750.11 1063.43 1749.55 1060.97 1748.42C1058.51 1747.3 1056.56 1745.66 1055.13 1743.5C1053.7 1741.32 1052.99 1738.67 1052.99 1735.55C1052.99 1733.52 1053.38 1731.65 1054.15 1729.96C1054.95 1728.25 1056.06 1726.77 1057.49 1725.5C1058.94 1724.23 1060.65 1723.26 1062.62 1722.58C1064.61 1721.88 1066.81 1721.53 1069.2 1721.53C1072.34 1721.53 1075.14 1722.14 1077.6 1723.35C1080.06 1724.55 1081.99 1726.2 1083.4 1728.31C1084.83 1730.42 1085.54 1732.84 1085.54 1735.55ZM1079.01 1735.41C1079.01 1733.52 1078.6 1731.84 1077.78 1730.39C1076.95 1728.91 1075.81 1727.76 1074.33 1726.94C1072.85 1726.12 1071.14 1725.71 1069.2 1725.71C1067.2 1725.71 1065.48 1726.12 1064.03 1726.94C1062.6 1727.76 1061.49 1728.91 1060.69 1730.39C1059.89 1731.84 1059.49 1733.52 1059.49 1735.41C1059.49 1737.38 1059.88 1739.07 1060.65 1740.48C1061.45 1741.86 1062.58 1742.93 1064.03 1743.68C1065.51 1744.4 1067.25 1744.77 1069.27 1744.77C1071.28 1744.77 1073.02 1744.4 1074.47 1743.68C1075.92 1742.93 1077.04 1741.86 1077.81 1740.48C1078.61 1739.07 1079.01 1737.38 1079.01 1735.41ZM1084.35 1711.54C1084.35 1714.03 1083.69 1716.27 1082.38 1718.26C1081.07 1720.25 1079.28 1721.82 1077 1722.97C1074.73 1724.12 1072.15 1724.69 1069.27 1724.69C1066.34 1724.69 1063.72 1724.12 1061.43 1722.97C1059.15 1721.82 1057.37 1720.25 1056.08 1718.26C1054.79 1716.27 1054.15 1714.03 1054.15 1711.54C1054.15 1708.57 1054.79 1706.03 1056.08 1703.95C1057.4 1701.86 1059.19 1700.27 1061.46 1699.17C1063.74 1698.07 1066.33 1697.52 1069.23 1697.52C1072.16 1697.52 1074.76 1698.07 1077.04 1699.17C1079.31 1700.27 1081.09 1701.86 1082.38 1703.95C1083.69 1706.03 1084.35 1708.57 1084.35 1711.54ZM1077.85 1711.65C1077.85 1709.94 1077.48 1708.43 1076.76 1707.11C1076.03 1705.8 1075.02 1704.77 1073.73 1704.02C1072.44 1703.25 1070.94 1702.86 1069.23 1702.86C1067.52 1702.86 1066.02 1703.22 1064.73 1703.95C1063.47 1704.65 1062.47 1705.66 1061.74 1706.97C1061.04 1708.28 1060.69 1709.84 1060.69 1711.65C1060.69 1713.41 1061.04 1714.94 1061.74 1716.25C1062.47 1717.57 1063.48 1718.59 1064.77 1719.31C1066.06 1720.04 1067.56 1720.4 1069.27 1720.4C1070.98 1720.4 1072.47 1720.04 1073.73 1719.31C1075.02 1718.59 1076.03 1717.57 1076.76 1716.25C1077.48 1714.94 1077.85 1713.41 1077.85 1711.65Z" fill="black"/>
<rect x="869" y="1654" width="118" height="140" rx="20" fill="#F7F7F7"/>
<path d="M946.353 1698.22V1701.87L925.154 1749.41H918.299L939.463 1703.56H911.76V1698.22H946.353Z" fill="black"/>
<rect x="729" y="1654" width="118" height="140" rx="20" fill="#F7F7F7"/>
<path d="M798.232 1698.15H798.795V1703.67H798.232C794.787 1703.67 791.904 1704.23 789.584 1705.35C787.263 1706.46 785.424 1707.94 784.064 1709.82C782.705 1711.67 781.72 1713.76 781.111 1716.08C780.525 1718.4 780.232 1720.75 780.232 1723.14V1730.67C780.232 1732.94 780.502 1734.96 781.041 1736.71C781.58 1738.45 782.318 1739.91 783.256 1741.11C784.193 1742.3 785.248 1743.21 786.42 1743.82C787.615 1744.43 788.857 1744.73 790.146 1744.73C791.646 1744.73 792.982 1744.45 794.154 1743.89C795.326 1743.3 796.31 1742.49 797.107 1741.46C797.927 1740.41 798.549 1739.16 798.97 1737.73C799.392 1736.3 799.603 1734.73 799.603 1733.02C799.603 1731.5 799.416 1730.03 799.041 1728.63C798.666 1727.2 798.092 1725.93 797.318 1724.83C796.545 1723.71 795.572 1722.83 794.4 1722.19C793.252 1721.54 791.881 1721.21 790.287 1721.21C788.482 1721.21 786.795 1721.66 785.224 1722.55C783.677 1723.41 782.4 1724.56 781.392 1725.99C780.408 1727.4 779.845 1728.93 779.705 1730.6L776.26 1730.56C776.588 1727.94 777.197 1725.7 778.088 1723.85C779.002 1721.97 780.127 1720.45 781.463 1719.28C782.822 1718.08 784.334 1717.21 785.998 1716.68C787.685 1716.11 789.467 1715.83 791.342 1715.83C793.896 1715.83 796.099 1716.31 797.951 1717.27C799.802 1718.23 801.326 1719.52 802.521 1721.14C803.717 1722.73 804.595 1724.54 805.158 1726.55C805.744 1728.55 806.037 1730.6 806.037 1732.71C806.037 1735.12 805.697 1737.38 805.017 1739.49C804.338 1741.6 803.318 1743.45 801.959 1745.05C800.623 1746.64 798.97 1747.88 797.002 1748.77C795.033 1749.66 792.748 1750.11 790.146 1750.11C787.381 1750.11 784.967 1749.55 782.904 1748.42C780.842 1747.27 779.131 1745.75 777.771 1743.85C776.412 1741.95 775.392 1739.84 774.713 1737.52C774.033 1735.2 773.693 1732.85 773.693 1730.46V1727.4C773.693 1723.79 774.056 1720.25 774.783 1716.78C775.51 1713.31 776.763 1710.17 778.545 1707.36C780.349 1704.55 782.845 1702.31 786.033 1700.64C789.22 1698.98 793.287 1698.15 798.232 1698.15Z" fill="black"/>
<rect x="589" y="1824.55" width="118" height="178.451" rx="20" fill="#F9F9F9"/>
<path d="M649.883 1896.96V1901.95H629.316V1896.96H649.883ZM636.277 1887.71H642.781V1925.58C642.781 1926.87 642.98 1927.84 643.379 1928.5C643.777 1929.15 644.293 1929.59 644.926 1929.8C645.559 1930.01 646.238 1930.11 646.965 1930.11C647.504 1930.11 648.066 1930.07 648.652 1929.97C649.262 1929.86 649.719 1929.76 650.023 1929.69L650.059 1935C649.543 1935.16 648.863 1935.32 648.02 1935.46C647.199 1935.62 646.203 1935.7 645.031 1935.7C643.438 1935.7 641.973 1935.39 640.637 1934.75C639.301 1934.12 638.234 1933.07 637.438 1931.59C636.664 1930.09 636.277 1928.07 636.277 1925.54V1887.71Z" fill="black"/>
<rect x="449" y="1824.55" width="118" height="178.451" rx="20" fill="#F9F9F9"/>
<path d="M500.461 1902.94V1935H493.957V1896.96H500.285L500.461 1902.94ZM512.344 1896.75L512.309 1902.8C511.77 1902.68 511.254 1902.61 510.762 1902.59C510.293 1902.54 509.754 1902.52 509.145 1902.52C507.645 1902.52 506.32 1902.75 505.172 1903.22C504.023 1903.69 503.051 1904.34 502.254 1905.19C501.457 1906.03 500.824 1907.04 500.355 1908.21C499.91 1909.36 499.617 1910.62 499.477 1912.01L497.648 1913.06C497.648 1910.77 497.871 1908.61 498.316 1906.59C498.785 1904.58 499.5 1902.8 500.461 1901.25C501.422 1899.68 502.641 1898.46 504.117 1897.59C505.617 1896.7 507.398 1896.26 509.461 1896.26C509.93 1896.26 510.469 1896.32 511.078 1896.43C511.688 1896.53 512.109 1896.63 512.344 1896.75Z" fill="black"/>
<rect x="309" y="1824.55" width="118" height="178.451" rx="20" fill="#F9F9F9"/>
<path d="M369.742 1935.7C367.094 1935.7 364.691 1935.26 362.535 1934.37C360.402 1933.45 358.562 1932.18 357.016 1930.54C355.492 1928.89 354.32 1926.95 353.5 1924.7C352.68 1922.45 352.27 1919.99 352.27 1917.32V1915.84C352.27 1912.75 352.727 1909.99 353.641 1907.58C354.555 1905.14 355.797 1903.08 357.367 1901.39C358.938 1899.7 360.719 1898.43 362.711 1897.56C364.703 1896.69 366.766 1896.26 368.898 1896.26C371.617 1896.26 373.961 1896.73 375.93 1897.66C377.922 1898.6 379.551 1899.91 380.816 1901.6C382.082 1903.27 383.02 1905.23 383.629 1907.51C384.238 1909.76 384.543 1912.22 384.543 1914.89V1917.81H356.137V1912.5H378.039V1912.01C377.945 1910.32 377.594 1908.68 376.984 1907.09C376.398 1905.49 375.461 1904.18 374.172 1903.15C372.883 1902.12 371.125 1901.6 368.898 1901.6C367.422 1901.6 366.062 1901.92 364.82 1902.55C363.578 1903.16 362.512 1904.07 361.621 1905.29C360.73 1906.51 360.039 1908 359.547 1909.76C359.055 1911.52 358.809 1913.54 358.809 1915.84V1917.32C358.809 1919.12 359.055 1920.82 359.547 1922.41C360.062 1923.98 360.801 1925.37 361.762 1926.56C362.746 1927.76 363.93 1928.7 365.312 1929.38C366.719 1930.05 368.312 1930.39 370.094 1930.39C372.391 1930.39 374.336 1929.93 375.93 1928.99C377.523 1928.05 378.918 1926.8 380.113 1925.23L384.051 1928.36C383.23 1929.6 382.188 1930.78 380.922 1931.91C379.656 1933.03 378.098 1933.95 376.246 1934.65C374.418 1935.35 372.25 1935.7 369.742 1935.7Z" fill="black"/>
<rect x="169" y="1824.55" width="118" height="178.451" rx="20" fill="#F9F9F9"/>
<path d="M223.59 1928.25L233.363 1896.96H237.652L236.809 1903.18L226.859 1935H222.676L223.59 1928.25ZM217.016 1896.96L225.348 1928.6L225.945 1935H221.551L210.512 1896.96H217.016ZM247.004 1928.36L254.949 1896.96H261.418L250.379 1935H246.02L247.004 1928.36ZM238.602 1896.96L248.164 1927.72L249.254 1935H245.105L234.875 1903.11L234.031 1896.96H238.602Z" fill="black"/>
<rect x="29" y="1822" width="118" height="178.451" rx="20" fill="#F9F9F9"/>
<path d="M94.8984 1949.62V1904.27L95.4609 1896.96H101.438V1949.62H94.8984ZM69.3398 1916.4V1915.66C69.3398 1912.76 69.6797 1910.12 70.3594 1907.75C71.0391 1905.36 72.0352 1903.31 73.3477 1901.6C74.6602 1899.89 76.2422 1898.58 78.0938 1897.66C79.9688 1896.73 82.1016 1896.26 84.4922 1896.26C86.8828 1896.26 88.9805 1896.68 90.7852 1897.52C92.6133 1898.34 94.1602 1899.55 95.4258 1901.14C96.7148 1902.71 97.7344 1904.61 98.4844 1906.84C99.2344 1909.07 99.75 1911.59 100.031 1914.4V1917.63C99.7734 1920.42 99.2695 1922.93 98.5195 1925.16C97.7695 1927.38 96.75 1929.28 95.4609 1930.85C94.1953 1932.42 92.6367 1933.63 90.7852 1934.47C88.957 1935.29 86.8359 1935.7 84.4219 1935.7C82.0781 1935.7 79.9688 1935.22 78.0938 1934.26C76.2422 1933.3 74.6602 1931.95 73.3477 1930.22C72.0586 1928.48 71.0625 1926.45 70.3594 1924.1C69.6797 1921.73 69.3398 1919.17 69.3398 1916.4ZM75.8789 1915.66V1916.4C75.8789 1918.3 76.0781 1920.09 76.4766 1921.78C76.875 1923.45 77.4844 1924.92 78.3047 1926.21C79.1484 1927.5 80.2031 1928.52 81.4688 1929.27C82.7578 1930 84.2812 1930.36 86.0391 1930.36C88.1953 1930.36 89.9883 1929.89 91.418 1928.95C92.8711 1928.02 94.0312 1926.79 94.8984 1925.26C95.7656 1923.71 96.4336 1922.06 96.9023 1920.3V1911.83C96.6445 1910.54 96.2344 1909.29 95.6719 1908.07C95.1328 1906.85 94.4297 1905.76 93.5625 1904.8C92.6953 1903.82 91.6406 1903.04 90.3984 1902.48C89.1797 1901.89 87.75 1901.6 86.1094 1901.6C84.3281 1901.6 82.793 1901.98 81.5039 1902.73C80.2148 1903.48 79.1484 1904.51 78.3047 1905.82C77.4844 1907.11 76.875 1908.6 76.4766 1910.29C76.0781 1911.97 75.8789 1913.77 75.8789 1915.66Z" fill="black"/>
<rect x="1149" y="1824.55" width="118" height="178.451" rx="20" fill="#F9F9F9"/>
<path d="M1192.23 1916.4V1915.59C1192.23 1912.85 1192.63 1910.31 1193.43 1907.96C1194.23 1905.6 1195.38 1903.55 1196.88 1901.81C1198.38 1900.05 1200.19 1898.7 1202.32 1897.73C1204.46 1896.75 1206.85 1896.26 1209.5 1896.26C1212.17 1896.26 1214.57 1896.75 1216.7 1897.73C1218.86 1898.7 1220.69 1900.05 1222.19 1901.81C1223.71 1903.55 1224.87 1905.6 1225.67 1907.96C1226.46 1910.31 1226.86 1912.85 1226.86 1915.59V1916.4C1226.86 1919.14 1226.46 1921.69 1225.67 1924.03C1224.87 1926.38 1223.71 1928.43 1222.19 1930.18C1220.69 1931.92 1218.87 1933.28 1216.74 1934.26C1214.63 1935.22 1212.24 1935.7 1209.57 1935.7C1206.89 1935.7 1204.49 1935.22 1202.36 1934.26C1200.23 1933.28 1198.4 1931.92 1196.88 1930.18C1195.38 1928.43 1194.23 1926.38 1193.43 1924.03C1192.63 1921.69 1192.23 1919.14 1192.23 1916.4ZM1198.74 1915.59V1916.4C1198.74 1918.3 1198.96 1920.09 1199.41 1921.78C1199.85 1923.45 1200.52 1924.92 1201.41 1926.21C1202.32 1927.5 1203.46 1928.52 1204.82 1929.27C1206.18 1930 1207.76 1930.36 1209.57 1930.36C1211.35 1930.36 1212.91 1930 1214.24 1929.27C1215.6 1928.52 1216.73 1927.5 1217.62 1926.21C1218.51 1924.92 1219.18 1923.45 1219.62 1921.78C1220.09 1920.09 1220.32 1918.3 1220.32 1916.4V1915.59C1220.32 1913.72 1220.09 1911.95 1219.62 1910.29C1219.18 1908.6 1218.5 1907.11 1217.58 1905.82C1216.69 1904.51 1215.57 1903.48 1214.21 1902.73C1212.87 1901.98 1211.3 1901.6 1209.5 1901.6C1207.71 1901.6 1206.14 1901.98 1204.79 1902.73C1203.45 1903.48 1202.32 1904.51 1201.41 1905.82C1200.52 1907.11 1199.85 1908.6 1199.41 1910.29C1198.96 1911.95 1198.74 1913.72 1198.74 1915.59Z" fill="black"/>
<rect x="1289" y="1824.55" width="118" height="178.451" rx="20" fill="#F9F9F9"/>
<path d="M1340.46 1902.27V1947.62H1333.92V1894.96H1339.9L1340.46 1902.27ZM1366.09 1913.66V1914.4C1366.09 1917.17 1365.76 1919.73 1365.11 1922.1C1364.45 1924.45 1363.49 1926.48 1362.22 1928.22C1360.98 1929.95 1359.45 1931.3 1357.62 1932.26C1355.79 1933.22 1353.69 1933.7 1351.32 1933.7C1348.91 1933.7 1346.78 1933.3 1344.93 1932.51C1343.07 1931.71 1341.5 1930.55 1340.21 1929.03C1338.93 1927.5 1337.89 1925.68 1337.12 1923.54C1336.37 1921.41 1335.86 1919.01 1335.57 1916.34V1912.4C1335.86 1909.59 1336.38 1907.07 1337.16 1904.84C1337.93 1902.61 1338.95 1900.71 1340.21 1899.14C1341.5 1897.55 1343.06 1896.34 1344.89 1895.52C1346.72 1894.68 1348.83 1894.26 1351.22 1894.26C1353.61 1894.26 1355.73 1894.73 1357.58 1895.66C1359.43 1896.58 1360.99 1897.89 1362.26 1899.6C1363.52 1901.31 1364.47 1903.36 1365.11 1905.75C1365.76 1908.12 1366.09 1910.76 1366.09 1913.66ZM1359.55 1914.4V1913.66C1359.55 1911.77 1359.35 1909.98 1358.95 1908.32C1358.55 1906.63 1357.93 1905.16 1357.09 1903.89C1356.27 1902.6 1355.21 1901.59 1353.93 1900.87C1352.64 1900.12 1351.1 1899.74 1349.32 1899.74C1347.68 1899.74 1346.25 1900.02 1345.03 1900.59C1343.84 1901.15 1342.82 1901.91 1341.97 1902.87C1341.13 1903.81 1340.44 1904.89 1339.9 1906.11C1339.38 1907.3 1339 1908.54 1338.74 1909.83V1918.94C1339.21 1920.58 1339.86 1922.12 1340.71 1923.58C1341.55 1925.01 1342.68 1926.17 1344.08 1927.06C1345.49 1927.93 1347.26 1928.36 1349.39 1928.36C1351.15 1928.36 1352.66 1928 1353.93 1927.27C1355.21 1926.52 1356.27 1925.5 1357.09 1924.21C1357.93 1922.92 1358.55 1921.45 1358.95 1919.78C1359.35 1918.09 1359.55 1916.3 1359.55 1914.4Z" fill="black"/>
<rect x="1009" y="1824.55" width="118" height="178.451" rx="20" fill="#F9F9F9"/>
<path d="M1071.02 1896.96V1935H1064.48V1896.96H1071.02ZM1063.99 1886.87C1063.99 1885.82 1064.31 1884.93 1064.94 1884.2C1065.6 1883.47 1066.56 1883.11 1067.82 1883.11C1069.07 1883.11 1070.02 1883.47 1070.67 1884.2C1071.35 1884.93 1071.69 1885.82 1071.69 1886.87C1071.69 1887.88 1071.35 1888.75 1070.67 1889.47C1070.02 1890.18 1069.07 1890.53 1067.82 1890.53C1066.56 1890.53 1065.6 1890.18 1064.94 1889.47C1064.31 1888.75 1063.99 1887.88 1063.99 1886.87Z" fill="black"/>
<rect x="869" y="1824.55" width="118" height="178.451" rx="20" fill="#F9F9F9"/>
<path d="M937.23 1926.21V1896.96H943.77V1935H937.547L937.23 1926.21ZM938.461 1918.2L941.168 1918.12C941.168 1920.66 940.898 1923 940.359 1925.16C939.844 1927.29 939 1929.14 937.828 1930.71C936.656 1932.28 935.121 1933.51 933.223 1934.4C931.324 1935.27 929.016 1935.7 926.297 1935.7C924.445 1935.7 922.746 1935.43 921.199 1934.89C919.676 1934.36 918.363 1933.52 917.262 1932.4C916.16 1931.27 915.305 1929.81 914.695 1928C914.109 1926.2 913.816 1924.03 913.816 1921.5V1896.96H920.32V1921.57C920.32 1923.28 920.508 1924.7 920.883 1925.82C921.281 1926.93 921.809 1927.8 922.465 1928.46C923.145 1929.09 923.895 1929.54 924.715 1929.8C925.559 1930.05 926.426 1930.18 927.316 1930.18C930.082 1930.18 932.273 1929.66 933.891 1928.6C935.508 1927.52 936.668 1926.08 937.371 1924.28C938.098 1922.45 938.461 1920.42 938.461 1918.2Z" fill="black"/>
<rect x="729" y="1824.55" width="118" height="178.451" rx="20" fill="#F9F9F9"/>
<path d="M784.645 1931.06L795.227 1896.96H802.188L786.93 1940.87C786.578 1941.81 786.109 1942.82 785.523 1943.89C784.961 1945 784.234 1946.04 783.344 1947.02C782.453 1948.01 781.375 1948.8 780.109 1949.41C778.867 1950.05 777.379 1950.36 775.645 1950.36C775.129 1950.36 774.473 1950.29 773.676 1950.15C772.879 1950.01 772.316 1949.89 771.988 1949.8L771.953 1944.53C772.141 1944.55 772.434 1944.57 772.832 1944.6C773.254 1944.64 773.547 1944.67 773.711 1944.67C775.188 1944.67 776.441 1944.47 777.473 1944.07C778.504 1943.7 779.371 1943.05 780.074 1942.14C780.801 1941.25 781.422 1940.02 781.938 1938.45L784.645 1931.06ZM776.875 1896.96L786.754 1926.49L788.441 1933.35L783.766 1935.74L769.773 1896.96H776.875Z" fill="black"/>
<rect x="519" y="2030" width="118" height="178.451" rx="20" fill="#F9F9F9"/>
<path d="M578.66 2140H572.156V2097.95C572.156 2095.21 572.648 2092.9 573.633 2091.03C574.641 2089.13 576.082 2087.7 577.957 2086.74C579.832 2085.75 582.059 2085.26 584.637 2085.26C585.387 2085.26 586.137 2085.31 586.887 2085.4C587.66 2085.5 588.41 2085.64 589.137 2085.82L588.785 2091.13C588.293 2091.02 587.73 2090.93 587.098 2090.89C586.488 2090.84 585.879 2090.82 585.27 2090.82C583.887 2090.82 582.691 2091.1 581.684 2091.66C580.699 2092.2 579.949 2093 579.434 2094.05C578.918 2095.11 578.66 2096.41 578.66 2097.95V2140ZM586.746 2101.96V2106.95H566.145V2101.96H586.746Z" fill="black"/>
<rect x="379" y="2030" width="118" height="178.451" rx="20" fill="#F9F9F9"/>
<path d="M447.934 2135.62V2089H454.473V2143H448.496L447.934 2135.62ZM422.34 2124.4V2123.66C422.34 2120.76 422.691 2118.12 423.395 2115.75C424.121 2113.36 425.141 2111.31 426.453 2109.6C427.789 2107.89 429.371 2106.58 431.199 2105.66C433.051 2104.73 435.113 2104.26 437.387 2104.26C439.777 2104.26 441.863 2104.68 443.645 2105.52C445.449 2106.34 446.973 2107.55 448.215 2109.14C449.48 2110.71 450.477 2112.61 451.203 2114.84C451.93 2117.07 452.434 2119.59 452.715 2122.4V2125.63C452.457 2128.42 451.953 2130.93 451.203 2133.16C450.477 2135.38 449.48 2137.28 448.215 2138.85C446.973 2140.42 445.449 2141.63 443.645 2142.47C441.84 2143.29 439.73 2143.7 437.316 2143.7C435.09 2143.7 433.051 2143.22 431.199 2142.26C429.371 2141.3 427.789 2139.95 426.453 2138.22C425.141 2136.48 424.121 2134.45 423.395 2132.1C422.691 2129.73 422.34 2127.17 422.34 2124.4ZM428.879 2123.66V2124.4C428.879 2126.3 429.066 2128.08 429.441 2129.75C429.84 2131.41 430.449 2132.88 431.27 2134.14C432.09 2135.41 433.133 2136.4 434.398 2137.13C435.664 2137.83 437.176 2138.18 438.934 2138.18C441.09 2138.18 442.859 2137.73 444.242 2136.81C445.648 2135.9 446.773 2134.69 447.617 2133.19C448.461 2131.69 449.117 2130.06 449.586 2128.3V2119.83C449.305 2118.54 448.895 2117.3 448.355 2116.11C447.84 2114.89 447.16 2113.81 446.316 2112.87C445.496 2111.91 444.477 2111.15 443.258 2110.59C442.062 2110.02 440.645 2109.74 439.004 2109.74C437.223 2109.74 435.688 2110.12 434.398 2110.87C433.133 2111.59 432.09 2112.6 431.27 2113.89C430.449 2115.16 429.84 2116.63 429.441 2118.32C429.066 2119.98 428.879 2121.77 428.879 2123.66Z" fill="black"/>
<rect x="239" y="2030" width="118" height="178.451" rx="20" fill="#F9F9F9"/>
<path d="M306.105 2127.91C306.105 2126.97 305.895 2126.11 305.473 2125.31C305.074 2124.49 304.242 2123.75 302.977 2123.09C301.734 2122.41 299.859 2121.83 297.352 2121.34C295.242 2120.89 293.332 2120.36 291.621 2119.75C289.934 2119.14 288.492 2118.41 287.297 2117.54C286.125 2116.67 285.223 2115.65 284.59 2114.48C283.957 2113.31 283.641 2111.94 283.641 2110.37C283.641 2108.87 283.969 2107.45 284.625 2106.11C285.305 2104.78 286.254 2103.59 287.473 2102.56C288.715 2101.53 290.203 2100.72 291.938 2100.14C293.672 2099.55 295.605 2099.26 297.738 2099.26C300.785 2099.26 303.387 2099.8 305.543 2100.88C307.699 2101.95 309.352 2103.39 310.5 2105.2C311.648 2106.98 312.223 2108.96 312.223 2111.14H305.719C305.719 2110.09 305.402 2109.07 304.77 2108.08C304.16 2107.07 303.258 2106.24 302.062 2105.59C300.891 2104.93 299.449 2104.6 297.738 2104.6C295.934 2104.6 294.469 2104.88 293.344 2105.45C292.242 2105.98 291.434 2106.68 290.918 2107.52C290.426 2108.36 290.18 2109.25 290.18 2110.19C290.18 2110.89 290.297 2111.53 290.531 2112.09C290.789 2112.63 291.234 2113.13 291.867 2113.6C292.5 2114.05 293.391 2114.47 294.539 2114.87C295.688 2115.27 297.152 2115.66 298.934 2116.06C302.051 2116.77 304.617 2117.61 306.633 2118.59C308.648 2119.58 310.148 2120.79 311.133 2122.21C312.117 2123.64 312.609 2125.38 312.609 2127.42C312.609 2129.08 312.258 2130.61 311.555 2131.99C310.875 2133.37 309.879 2134.57 308.566 2135.57C307.277 2136.56 305.73 2137.33 303.926 2137.89C302.145 2138.43 300.141 2138.7 297.914 2138.7C294.562 2138.7 291.727 2138.11 289.406 2136.91C287.086 2135.71 285.328 2134.17 284.133 2132.27C282.938 2130.37 282.34 2128.37 282.34 2126.26H288.879C288.973 2128.04 289.488 2129.46 290.426 2130.51C291.363 2131.54 292.512 2132.28 293.871 2132.73C295.23 2133.15 296.578 2133.36 297.914 2133.36C299.695 2133.36 301.184 2133.12 302.379 2132.66C303.598 2132.19 304.523 2131.54 305.156 2130.72C305.789 2129.9 306.105 2128.96 306.105 2127.91Z" fill="black"/>
<rect x="99" y="2030" width="118" height="178.451" rx="20" fill="#F9F9F9"/>
<path d="M166.387 2131.5V2111.91C166.387 2110.41 166.082 2109.11 165.473 2108.01C164.887 2106.89 163.996 2106.02 162.801 2105.41C161.605 2104.8 160.129 2104.5 158.371 2104.5C156.73 2104.5 155.289 2104.78 154.047 2105.34C152.828 2105.9 151.867 2106.64 151.164 2107.55C150.484 2108.47 150.145 2109.45 150.145 2110.51H143.641C143.641 2109.15 143.992 2107.8 144.695 2106.46C145.398 2105.13 146.406 2103.92 147.719 2102.84C149.055 2101.74 150.648 2100.88 152.5 2100.24C154.375 2099.59 156.461 2099.26 158.758 2099.26C161.523 2099.26 163.961 2099.73 166.07 2100.66C168.203 2101.6 169.867 2103.02 171.062 2104.92C172.281 2106.79 172.891 2109.15 172.891 2111.98V2129.7C172.891 2130.97 172.996 2132.32 173.207 2133.75C173.441 2135.18 173.781 2136.41 174.227 2137.44V2138H167.441C167.113 2137.25 166.855 2136.25 166.668 2135.01C166.48 2133.75 166.387 2132.57 166.387 2131.5ZM167.512 2114.94L167.582 2119.51H161.008C159.156 2119.51 157.504 2119.66 156.051 2119.96C154.598 2120.25 153.379 2120.68 152.395 2121.27C151.41 2121.85 150.66 2122.59 150.145 2123.48C149.629 2124.35 149.371 2125.37 149.371 2126.54C149.371 2127.73 149.641 2128.82 150.18 2129.81C150.719 2130.79 151.527 2131.58 152.605 2132.16C153.707 2132.73 155.055 2133.01 156.648 2133.01C158.641 2133.01 160.398 2132.59 161.922 2131.74C163.445 2130.9 164.652 2129.87 165.543 2128.65C166.457 2127.43 166.949 2126.25 167.02 2125.1L169.797 2128.23C169.633 2129.21 169.188 2130.3 168.461 2131.5C167.734 2132.69 166.762 2133.84 165.543 2134.94C164.348 2136.02 162.918 2136.92 161.254 2137.65C159.613 2138.35 157.762 2138.7 155.699 2138.7C153.121 2138.7 150.859 2138.2 148.914 2137.19C146.992 2136.18 145.492 2134.84 144.414 2133.15C143.359 2131.44 142.832 2129.53 142.832 2127.42C142.832 2125.38 143.23 2123.59 144.027 2122.04C144.824 2120.47 145.973 2119.17 147.473 2118.14C148.973 2117.08 150.777 2116.29 152.887 2115.75C154.996 2115.21 157.352 2114.94 159.953 2114.94H167.512Z" fill="black"/>
<rect x="1079" y="2030" width="118" height="178.451" rx="20" fill="#F9F9F9"/>
<path d="M1130.5 2086.45V2140.45H1123.96V2086.45H1130.5ZM1153.73 2102.41L1137.14 2120.17L1127.86 2129.8L1127.33 2122.87L1133.98 2114.93L1145.79 2102.41H1153.73ZM1147.79 2140.45L1134.22 2122.31L1137.6 2116.51L1155.46 2140.45H1147.79Z" fill="black"/>
<rect x="1219" y="2030" width="118" height="178.451" rx="20" fill="#F9F9F9"/>
<path d="M1281.02 2084V2138H1274.48V2084H1281.02Z" fill="black"/>
<rect x="939" y="2030" width="118" height="178.451" rx="20" fill="#F9F9F9"/>
<path d="M994.133 2102.41H1000.67V2144.99C1000.67 2147.31 1000.3 2149.27 999.547 2150.89C998.82 2152.51 997.719 2153.73 996.242 2154.55C994.789 2155.39 992.949 2155.81 990.723 2155.81C990.137 2155.81 989.457 2155.76 988.684 2155.64C987.887 2155.52 987.219 2155.38 986.68 2155.22L986.715 2149.98C987.16 2150.07 987.664 2150.14 988.227 2150.19C988.789 2150.26 989.281 2150.29 989.703 2150.29C990.664 2150.29 991.473 2150.12 992.129 2149.77C992.785 2149.42 993.277 2148.85 993.605 2148.08C993.957 2147.31 994.133 2146.27 994.133 2144.99V2102.41ZM993.465 2092.32C993.465 2091.27 993.793 2090.38 994.449 2089.65C995.105 2088.92 996.055 2088.56 997.297 2088.56C998.562 2088.56 999.523 2088.92 1000.18 2089.65C1000.84 2090.38 1001.16 2091.27 1001.16 2092.32C1001.16 2093.33 1000.84 2094.2 1000.18 2094.92C999.523 2095.63 998.562 2095.98 997.297 2095.98C996.055 2095.98 995.105 2095.63 994.449 2094.92C993.793 2094.2 993.465 2093.33 993.465 2092.32Z" fill="black"/>
<rect x="799" y="2030" width="118" height="178.451" rx="20" fill="#F9F9F9"/>
<path d="M850.461 2086.45V2140.45H843.957V2086.45H850.461ZM848.914 2119.99L846.207 2119.88C846.23 2117.28 846.617 2114.88 847.367 2112.68C848.117 2110.45 849.172 2108.52 850.531 2106.88C851.891 2105.24 853.508 2103.97 855.383 2103.08C857.281 2102.17 859.379 2101.71 861.676 2101.71C863.551 2101.71 865.238 2101.97 866.738 2102.48C868.238 2102.97 869.516 2103.77 870.57 2104.87C871.648 2105.97 872.469 2107.4 873.031 2109.16C873.594 2110.9 873.875 2113.02 873.875 2115.52V2140.45H867.336V2115.45C867.336 2113.46 867.043 2111.87 866.457 2110.67C865.871 2109.45 865.016 2108.58 863.891 2108.04C862.766 2107.47 861.383 2107.19 859.742 2107.19C858.125 2107.19 856.648 2107.53 855.312 2108.21C854 2108.89 852.863 2109.83 851.902 2111.02C850.965 2112.22 850.227 2113.59 849.688 2115.14C849.172 2116.66 848.914 2118.28 848.914 2119.99Z" fill="black"/>
<rect x="659" y="2030" width="118" height="178.451" rx="20" fill="#F9F9F9"/>
<path d="M728.602 2099.96H734.508V2137.19C734.508 2140.54 733.828 2143.4 732.469 2145.77C731.109 2148.14 729.211 2149.93 726.773 2151.15C724.359 2152.39 721.57 2153.01 718.406 2153.01C717.094 2153.01 715.547 2152.8 713.766 2152.38C712.008 2151.98 710.273 2151.29 708.562 2150.3C706.875 2149.34 705.457 2148.04 704.309 2146.4L707.719 2142.54C709.312 2144.46 710.977 2145.79 712.711 2146.54C714.469 2147.29 716.203 2147.67 717.914 2147.67C719.977 2147.67 721.758 2147.28 723.258 2146.51C724.758 2145.73 725.918 2144.59 726.738 2143.06C727.582 2141.56 728.004 2139.71 728.004 2137.51V2108.33L728.602 2099.96ZM702.41 2119.4V2118.66C702.41 2115.76 702.75 2113.12 703.43 2110.75C704.133 2108.36 705.129 2106.31 706.418 2104.6C707.73 2102.89 709.312 2101.58 711.164 2100.66C713.016 2099.73 715.102 2099.26 717.422 2099.26C719.812 2099.26 721.898 2099.68 723.68 2100.52C725.484 2101.34 727.008 2102.55 728.25 2104.14C729.516 2105.71 730.512 2107.61 731.238 2109.84C731.965 2112.07 732.469 2114.59 732.75 2117.4V2120.63C732.492 2123.42 731.988 2125.93 731.238 2128.16C730.512 2130.38 729.516 2132.28 728.25 2133.85C727.008 2135.42 725.484 2136.63 723.68 2137.47C721.875 2138.29 719.766 2138.7 717.352 2138.7C715.078 2138.7 713.016 2138.22 711.164 2137.26C709.336 2136.3 707.766 2134.95 706.453 2133.22C705.141 2131.48 704.133 2129.45 703.43 2127.1C702.75 2124.73 702.41 2122.17 702.41 2119.4ZM708.914 2118.66V2119.4C708.914 2121.3 709.102 2123.08 709.477 2124.75C709.875 2126.41 710.473 2127.88 711.27 2129.14C712.09 2130.41 713.133 2131.4 714.398 2132.13C715.664 2132.83 717.176 2133.18 718.934 2133.18C721.09 2133.18 722.871 2132.73 724.277 2131.81C725.684 2130.9 726.797 2129.69 727.617 2128.19C728.461 2126.69 729.117 2125.06 729.586 2123.3V2114.83C729.328 2113.54 728.93 2112.3 728.391 2111.11C727.875 2109.89 727.195 2108.81 726.352 2107.87C725.531 2106.91 724.512 2106.15 723.293 2105.59C722.074 2105.02 720.645 2104.74 719.004 2104.74C717.223 2104.74 715.688 2105.12 714.398 2105.87C713.133 2106.59 712.09 2107.6 711.27 2108.89C710.473 2110.16 709.875 2111.63 709.477 2113.32C709.102 2114.98 708.914 2116.77 708.914 2118.66Z" fill="black"/>
<rect x="519.267" y="2235" width="118.112" height="178.451" rx="20" fill="#F9F9F9"/>
<path d="M579.18 2340.36C580.727 2340.36 582.156 2340.04 583.469 2339.41C584.781 2338.78 585.859 2337.91 586.703 2336.81C587.547 2335.68 588.027 2334.41 588.145 2332.98H594.332C594.215 2335.23 593.453 2337.32 592.047 2339.27C590.664 2341.19 588.848 2342.75 586.598 2343.95C584.348 2345.12 581.875 2345.7 579.18 2345.7C576.32 2345.7 573.824 2345.2 571.691 2344.19C569.582 2343.18 567.824 2341.8 566.418 2340.04C565.035 2338.29 563.992 2336.27 563.289 2334C562.609 2331.7 562.27 2329.27 562.27 2326.72V2325.24C562.27 2322.69 562.609 2320.27 563.289 2318C563.992 2315.7 565.035 2313.68 566.418 2311.92C567.824 2310.16 569.582 2308.78 571.691 2307.77C573.824 2306.76 576.32 2306.26 579.18 2306.26C582.156 2306.26 584.758 2306.87 586.984 2308.09C589.211 2309.28 590.957 2310.92 592.223 2313.01C593.512 2315.07 594.215 2317.41 594.332 2320.04H588.145C588.027 2318.47 587.582 2317.05 586.809 2315.79C586.059 2314.52 585.027 2313.51 583.715 2312.76C582.426 2311.99 580.914 2311.6 579.18 2311.6C577.188 2311.6 575.512 2312 574.152 2312.8C572.816 2313.57 571.75 2314.62 570.953 2315.96C570.18 2317.27 569.617 2318.74 569.266 2320.36C568.938 2321.95 568.773 2323.58 568.773 2325.24V2326.72C568.773 2328.38 568.938 2330.02 569.266 2331.64C569.594 2333.26 570.145 2334.72 570.918 2336.04C571.715 2337.35 572.781 2338.4 574.117 2339.2C575.477 2339.97 577.164 2340.36 579.18 2340.36Z" fill="black"/>
<rect x="379.133" y="2235" width="118.112" height="178.451" rx="20" fill="#F9F9F9"/>
<path d="M428.352 2304.96L436.684 2318.81L445.121 2304.96H452.75L440.305 2323.73L453.137 2343H445.613L436.824 2328.73L428.035 2343H420.477L433.273 2323.73L420.863 2304.96H428.352Z" fill="black"/>
<rect x="239" y="2235" width="118.112" height="178.451" rx="20" fill="#F9F9F9"/>
<path d="M312.293 2337.66V2343H284.625V2337.66H312.293ZM311.273 2309.57L286.102 2343H282.129V2338.22L307.125 2304.96H311.273V2309.57ZM308.391 2304.96V2310.34H282.41V2304.96H308.391Z" fill="black"/>
<rect x="1079.8" y="2235" width="118.112" height="178.451" rx="20" fill="#F9F9F9"/>
<path d="M1118.43 2314.52V2345H1111.89V2306.96H1118.07L1118.43 2314.52ZM1117.09 2324.54L1114.07 2324.43C1114.09 2321.83 1114.43 2319.43 1115.09 2317.23C1115.74 2315 1116.71 2313.07 1118 2311.43C1119.29 2309.79 1120.9 2308.52 1122.82 2307.63C1124.74 2306.71 1126.97 2306.26 1129.5 2306.26C1131.28 2306.26 1132.92 2306.52 1134.42 2307.03C1135.92 2307.52 1137.22 2308.31 1138.32 2309.39C1139.43 2310.46 1140.28 2311.85 1140.89 2313.54C1141.5 2315.22 1141.8 2317.26 1141.8 2319.65V2345H1135.3V2319.97C1135.3 2317.98 1134.96 2316.38 1134.28 2315.19C1133.62 2313.99 1132.69 2313.12 1131.47 2312.59C1130.25 2312.02 1128.82 2311.74 1127.18 2311.74C1125.26 2311.74 1123.65 2312.08 1122.36 2312.76C1121.07 2313.44 1120.04 2314.38 1119.27 2315.57C1118.5 2316.77 1117.93 2318.14 1117.58 2319.69C1117.25 2321.21 1117.09 2322.83 1117.09 2324.54ZM1141.73 2320.95L1137.38 2322.29C1137.4 2320.2 1137.74 2318.2 1138.39 2316.28C1139.07 2314.36 1140.05 2312.64 1141.31 2311.14C1142.6 2309.64 1144.18 2308.46 1146.06 2307.59C1147.93 2306.7 1150.08 2306.26 1152.49 2306.26C1154.53 2306.26 1156.34 2306.53 1157.91 2307.07C1159.5 2307.61 1160.84 2308.44 1161.91 2309.56C1163.02 2310.66 1163.85 2312.08 1164.41 2313.82C1164.97 2315.55 1165.25 2317.61 1165.25 2320V2345H1158.71V2319.93C1158.71 2317.8 1158.38 2316.15 1157.7 2314.98C1157.04 2313.78 1156.1 2312.95 1154.88 2312.48C1153.69 2311.99 1152.26 2311.74 1150.59 2311.74C1149.16 2311.74 1147.9 2311.99 1146.8 2312.48C1145.7 2312.97 1144.77 2313.65 1144.02 2314.52C1143.27 2315.36 1142.7 2316.34 1142.3 2317.44C1141.92 2318.54 1141.73 2319.71 1141.73 2320.95Z" fill="black"/>
<rect x="939.667" y="2235" width="118.112" height="178.451" rx="20" fill="#F9F9F9"/>
<path d="M989.461 2315.08V2345H982.957V2306.96H989.109L989.461 2315.08ZM987.914 2324.54L985.207 2324.43C985.23 2321.83 985.617 2319.43 986.367 2317.23C987.117 2315 988.172 2313.07 989.531 2311.43C990.891 2309.79 992.508 2308.52 994.383 2307.63C996.281 2306.71 998.379 2306.26 1000.68 2306.26C1002.55 2306.26 1004.24 2306.52 1005.74 2307.03C1007.24 2307.52 1008.52 2308.32 1009.57 2309.42C1010.65 2310.52 1011.47 2311.95 1012.03 2313.71C1012.59 2315.45 1012.88 2317.57 1012.88 2320.07V2345H1006.34V2320C1006.34 2318.01 1006.04 2316.42 1005.46 2315.22C1004.87 2314 1004.02 2313.12 1002.89 2312.59C1001.77 2312.02 1000.38 2311.74 998.742 2311.74C997.125 2311.74 995.648 2312.08 994.312 2312.76C993 2313.44 991.863 2314.38 990.902 2315.57C989.965 2316.77 989.227 2318.14 988.688 2319.69C988.172 2321.21 987.914 2322.83 987.914 2324.54Z" fill="black"/>
<rect x="799.534" y="2235" width="118.112" height="178.451" rx="20" fill="#F9F9F9"/>
<path d="M843.922 2289H850.461V2335.62L849.898 2343H843.922V2289ZM876.16 2323.66V2324.4C876.16 2327.17 875.832 2329.73 875.176 2332.1C874.52 2334.45 873.559 2336.48 872.293 2338.22C871.027 2339.95 869.48 2341.3 867.652 2342.26C865.824 2343.22 863.727 2343.7 861.359 2343.7C858.945 2343.7 856.824 2343.29 854.996 2342.47C853.191 2341.63 851.668 2340.42 850.426 2338.85C849.184 2337.28 848.188 2335.38 847.438 2333.16C846.711 2330.93 846.207 2328.42 845.926 2325.63V2322.4C846.207 2319.59 846.711 2317.07 847.438 2314.84C848.188 2312.61 849.184 2310.71 850.426 2309.14C851.668 2307.55 853.191 2306.34 854.996 2305.52C856.801 2304.68 858.898 2304.26 861.289 2304.26C863.68 2304.26 865.801 2304.73 867.652 2305.66C869.504 2306.58 871.051 2307.89 872.293 2309.6C873.559 2311.31 874.52 2313.36 875.176 2315.75C875.832 2318.12 876.16 2320.76 876.16 2323.66ZM869.621 2324.4V2323.66C869.621 2321.77 869.445 2319.98 869.094 2318.32C868.742 2316.63 868.18 2315.16 867.406 2313.89C866.633 2312.6 865.613 2311.59 864.348 2310.87C863.082 2310.12 861.523 2309.74 859.672 2309.74C858.031 2309.74 856.602 2310.02 855.383 2310.59C854.188 2311.15 853.168 2311.91 852.324 2312.87C851.48 2313.81 850.789 2314.89 850.25 2316.11C849.734 2317.3 849.348 2318.54 849.09 2319.83V2328.3C849.465 2329.95 850.074 2331.53 850.918 2333.05C851.785 2334.55 852.934 2335.78 854.363 2336.74C855.816 2337.7 857.609 2338.18 859.742 2338.18C861.5 2338.18 863 2337.83 864.242 2337.13C865.508 2336.4 866.527 2335.41 867.301 2334.14C868.098 2332.88 868.684 2331.41 869.059 2329.75C869.434 2328.08 869.621 2326.3 869.621 2324.4Z" fill="black"/>
<rect x="659.4" y="2235" width="118.112" height="178.451" rx="20" fill="#F9F9F9"/>
<path d="M718.523 2337.13L728.93 2304.96H735.574L721.898 2343H717.539L718.523 2337.13ZM709.84 2304.96L720.562 2337.3L721.301 2343H716.941L703.16 2304.96H709.84Z" fill="black"/>
<rect x="1242" y="2235" width="165" height="176" rx="24" fill="#C7C7C7"/>
<path d="M1366.5 2288H1305.63C1302.68 2288 1300.05 2289.31 1298.25 2291.12L1273.48 2315.89C1271.34 2317.86 1271.34 2321.3 1273.48 2323.27L1298.25 2348.05C1300.22 2350.02 1302.84 2351 1305.63 2351H1366.5C1372.24 2351 1377 2346.41 1377 2340.5V2298.5C1377 2292.76 1372.24 2288 1366.5 2288ZM1352.55 2329.84C1353.54 2330.82 1353.54 2332.46 1352.55 2333.45L1348.78 2337.22C1347.8 2338.2 1346.16 2338.2 1345.17 2337.22L1335 2327.05L1324.66 2337.22C1323.68 2338.2 1322.04 2338.2 1321.05 2337.22L1317.28 2333.45C1316.3 2332.46 1316.3 2330.82 1317.28 2329.84L1327.45 2319.5L1317.28 2309.33C1316.3 2308.34 1316.3 2306.7 1317.28 2305.72L1321.05 2301.95C1322.04 2300.96 1323.68 2300.96 1324.66 2301.95L1335 2312.12L1345.17 2301.95C1346.16 2300.96 1347.8 2300.96 1348.78 2301.95L1352.55 2305.72C1353.54 2306.7 1353.54 2308.34 1352.55 2309.33L1342.38 2319.5L1352.55 2329.84Z" fill="#575757"/>
<rect x="30" y="2237" width="165" height="176" rx="24" fill="#C7C7C7"/>
<path d="M80.5781 2332.08C82.2188 2333.72 84.6797 2333.55 86.3203 2332.08L105.188 2312.23V2359.31C105.188 2361.61 106.828 2363.25 109.125 2363.25H114.375C116.508 2363.25 118.312 2361.61 118.312 2359.31V2312.23L137.016 2331.91C138.656 2333.55 141.117 2333.55 142.758 2332.08L146.367 2328.47C147.844 2326.83 147.844 2324.37 146.367 2322.89L114.375 2290.9C112.898 2289.42 110.438 2289.42 108.961 2290.9L76.9688 2322.89C75.4922 2324.37 75.4922 2326.83 76.9688 2328.47L80.5781 2332.08Z" fill="#575757"/>
<rect x="238" y="2438" width="118.112" height="178.451" rx="20" fill="#F9F9F9"/>
<path d="M297.863 2552.27V2557.5C297.863 2559.64 297.324 2561.89 296.246 2564.25C295.168 2566.64 293.656 2568.64 291.711 2570.23L288.02 2567.66C288.77 2566.63 289.402 2565.58 289.918 2564.5C290.434 2563.45 290.82 2562.34 291.078 2561.2C291.359 2560.07 291.5 2558.88 291.5 2557.61V2552.27H297.863Z" fill="black"/>
<rect x="1080" y="2442" width="118.112" height="178.451" rx="20" fill="#F9F9F9"/>
<path d="M1134.06 2560.55C1134.06 2559.45 1134.4 2558.53 1135.08 2557.78C1135.79 2557 1136.79 2556.62 1138.11 2556.62C1139.42 2556.62 1140.41 2557 1141.09 2557.78C1141.8 2558.53 1142.15 2559.45 1142.15 2560.55C1142.15 2561.63 1141.8 2562.55 1141.09 2563.3C1140.41 2564.05 1139.42 2564.42 1138.11 2564.42C1136.79 2564.42 1135.79 2564.05 1135.08 2563.3C1134.4 2562.55 1134.06 2561.63 1134.06 2560.55Z" fill="black"/>
<rect x="379" y="2442" width="678" height="174" rx="20" fill="#F9F9F9"/>
<path d="M616.641 2544.32V2548H598.57V2544.32H616.641ZM599.484 2513.88V2548H594.961V2513.88H599.484ZM614.25 2528.55V2532.23H598.57V2528.55H614.25ZM616.406 2513.88V2517.58H598.57V2513.88H616.406ZM625.922 2528.05V2548H621.586V2522.64H625.688L625.922 2528.05ZM624.891 2534.36L623.086 2534.29C623.102 2532.55 623.359 2530.95 623.859 2529.48C624.359 2528 625.062 2526.71 625.969 2525.62C626.875 2524.52 627.953 2523.68 629.203 2523.09C630.469 2522.48 631.867 2522.17 633.398 2522.17C634.648 2522.17 635.773 2522.34 636.773 2522.69C637.773 2523.02 638.625 2523.55 639.328 2524.28C640.047 2525.02 640.594 2525.97 640.969 2527.14C641.344 2528.3 641.531 2529.71 641.531 2531.38V2548H637.172V2531.34C637.172 2530.01 636.977 2528.95 636.586 2528.15C636.195 2527.34 635.625 2526.75 634.875 2526.39C634.125 2526.02 633.203 2525.83 632.109 2525.83C631.031 2525.83 630.047 2526.05 629.156 2526.51C628.281 2526.96 627.523 2527.59 626.883 2528.38C626.258 2529.18 625.766 2530.09 625.406 2531.12C625.062 2532.14 624.891 2533.22 624.891 2534.36ZM664.547 2522.64H668.484V2547.46C668.484 2549.7 668.031 2551.6 667.125 2553.18C666.219 2554.76 664.953 2555.95 663.328 2556.77C661.719 2557.59 659.859 2558.01 657.75 2558.01C656.875 2558.01 655.844 2557.87 654.656 2557.59C653.484 2557.32 652.328 2556.86 651.188 2556.2C650.062 2555.56 649.117 2554.7 648.352 2553.6L650.625 2551.02C651.688 2552.3 652.797 2553.2 653.953 2553.7C655.125 2554.2 656.281 2554.45 657.422 2554.45C658.797 2554.45 659.984 2554.19 660.984 2553.67C661.984 2553.16 662.758 2552.39 663.305 2551.38C663.867 2550.38 664.148 2549.14 664.148 2547.67V2528.22L664.547 2522.64ZM647.086 2535.6V2535.11C647.086 2533.17 647.312 2531.41 647.766 2529.84C648.234 2528.24 648.898 2526.88 649.758 2525.73C650.633 2524.59 651.688 2523.72 652.922 2523.11C654.156 2522.48 655.547 2522.17 657.094 2522.17C658.688 2522.17 660.078 2522.45 661.266 2523.02C662.469 2523.56 663.484 2524.37 664.312 2525.43C665.156 2526.48 665.82 2527.74 666.305 2529.23C666.789 2530.71 667.125 2532.39 667.312 2534.27V2536.42C667.141 2538.28 666.805 2539.95 666.305 2541.44C665.82 2542.92 665.156 2544.19 664.312 2545.23C663.484 2546.28 662.469 2547.09 661.266 2547.65C660.062 2548.2 658.656 2548.47 657.047 2548.47C655.531 2548.47 654.156 2548.15 652.922 2547.51C651.703 2546.87 650.656 2545.97 649.781 2544.81C648.906 2543.66 648.234 2542.3 647.766 2540.73C647.312 2539.16 647.086 2537.45 647.086 2535.6ZM651.422 2535.11V2535.6C651.422 2536.87 651.547 2538.05 651.797 2539.16C652.062 2540.27 652.461 2541.25 652.992 2542.09C653.539 2542.94 654.234 2543.6 655.078 2544.09C655.922 2544.55 656.93 2544.79 658.102 2544.79C659.539 2544.79 660.727 2544.48 661.664 2543.88C662.602 2543.27 663.344 2542.46 663.891 2541.46C664.453 2540.46 664.891 2539.38 665.203 2538.2V2532.55C665.031 2531.7 664.766 2530.87 664.406 2530.07C664.062 2529.26 663.609 2528.54 663.047 2527.91C662.5 2527.27 661.82 2526.77 661.008 2526.39C660.195 2526.02 659.242 2525.83 658.148 2525.83C656.961 2525.83 655.938 2526.08 655.078 2526.58C654.234 2527.06 653.539 2527.73 652.992 2528.59C652.461 2529.44 652.062 2530.42 651.797 2531.55C651.547 2532.66 651.422 2533.84 651.422 2535.11ZM679.781 2512V2548H675.422V2512H679.781ZM691.453 2522.64V2548H687.094V2522.64H691.453ZM686.766 2515.91C686.766 2515.21 686.977 2514.62 687.398 2514.13C687.836 2513.65 688.477 2513.41 689.32 2513.41C690.148 2513.41 690.781 2513.65 691.219 2514.13C691.672 2514.62 691.898 2515.21 691.898 2515.91C691.898 2516.59 691.672 2517.16 691.219 2517.65C690.781 2518.12 690.148 2518.35 689.32 2518.35C688.477 2518.35 687.836 2518.12 687.398 2517.65C686.977 2517.16 686.766 2516.59 686.766 2515.91ZM713.18 2541.27C713.18 2540.65 713.039 2540.07 712.758 2539.54C712.492 2538.99 711.938 2538.5 711.094 2538.06C710.266 2537.61 709.016 2537.22 707.344 2536.89C705.938 2536.59 704.664 2536.24 703.523 2535.84C702.398 2535.43 701.438 2534.94 700.641 2534.36C699.859 2533.78 699.258 2533.1 698.836 2532.32C698.414 2531.54 698.203 2530.62 698.203 2529.58C698.203 2528.58 698.422 2527.63 698.859 2526.74C699.312 2525.85 699.945 2525.06 700.758 2524.38C701.586 2523.69 702.578 2523.15 703.734 2522.76C704.891 2522.37 706.18 2522.17 707.602 2522.17C709.633 2522.17 711.367 2522.53 712.805 2523.25C714.242 2523.97 715.344 2524.93 716.109 2526.13C716.875 2527.32 717.258 2528.64 717.258 2530.09H712.922C712.922 2529.39 712.711 2528.71 712.289 2528.05C711.883 2527.38 711.281 2526.83 710.484 2526.39C709.703 2525.95 708.742 2525.73 707.602 2525.73C706.398 2525.73 705.422 2525.92 704.672 2526.3C703.938 2526.66 703.398 2527.12 703.055 2527.68C702.727 2528.24 702.562 2528.84 702.562 2529.46C702.562 2529.93 702.641 2530.35 702.797 2530.73C702.969 2531.09 703.266 2531.42 703.688 2531.73C704.109 2532.03 704.703 2532.31 705.469 2532.58C706.234 2532.84 707.211 2533.11 708.398 2533.38C710.477 2533.84 712.188 2534.41 713.531 2535.06C714.875 2535.72 715.875 2536.52 716.531 2537.48C717.188 2538.43 717.516 2539.59 717.516 2540.95C717.516 2542.05 717.281 2543.07 716.812 2543.99C716.359 2544.91 715.695 2545.71 714.82 2546.38C713.961 2547.04 712.93 2547.55 711.727 2547.93C710.539 2548.29 709.203 2548.47 707.719 2548.47C705.484 2548.47 703.594 2548.07 702.047 2547.27C700.5 2546.48 699.328 2545.45 698.531 2544.18C697.734 2542.91 697.336 2541.58 697.336 2540.17H701.695C701.758 2541.36 702.102 2542.3 702.727 2543.01C703.352 2543.7 704.117 2544.19 705.023 2544.48C705.93 2544.77 706.828 2544.91 707.719 2544.91C708.906 2544.91 709.898 2544.75 710.695 2544.44C711.508 2544.12 712.125 2543.7 712.547 2543.15C712.969 2542.6 713.18 2541.98 713.18 2541.27ZM727.547 2512V2548H723.211V2512H727.547ZM726.516 2534.36L724.711 2534.29C724.727 2532.55 724.984 2530.95 725.484 2529.48C725.984 2528 726.688 2526.71 727.594 2525.62C728.5 2524.52 729.578 2523.68 730.828 2523.09C732.094 2522.48 733.492 2522.17 735.023 2522.17C736.273 2522.17 737.398 2522.34 738.398 2522.69C739.398 2523.02 740.25 2523.55 740.953 2524.28C741.672 2525.02 742.219 2525.97 742.594 2527.14C742.969 2528.3 743.156 2529.71 743.156 2531.38V2548H738.797V2531.34C738.797 2530.01 738.602 2528.95 738.211 2528.15C737.82 2527.34 737.25 2526.75 736.5 2526.39C735.75 2526.02 734.828 2525.83 733.734 2525.83C732.656 2525.83 731.672 2526.05 730.781 2526.51C729.906 2526.96 729.148 2527.59 728.508 2528.38C727.883 2529.18 727.391 2530.09 727.031 2531.12C726.688 2532.14 726.516 2533.22 726.516 2534.36ZM761.391 2534.36V2534.12C761.391 2530.72 761.773 2527.64 762.539 2524.89C763.305 2522.12 764.281 2519.7 765.469 2517.62C766.656 2515.55 767.906 2513.83 769.219 2512.47C770.531 2511.09 771.742 2510.1 772.852 2509.49L773.766 2512.35C772.844 2513.05 771.906 2514.02 770.953 2515.26C770.016 2516.49 769.148 2518.01 768.352 2519.8C767.57 2521.6 766.938 2523.69 766.453 2526.06C765.969 2528.44 765.727 2531.11 765.727 2534.08V2534.41C765.727 2537.38 765.969 2540.05 766.453 2542.45C766.938 2544.82 767.57 2546.91 768.352 2548.73C769.148 2550.54 770.016 2552.08 770.953 2553.34C771.906 2554.62 772.844 2555.64 773.766 2556.39L772.852 2559.02C771.742 2558.41 770.531 2557.41 769.219 2556.04C767.906 2554.68 766.656 2552.96 765.469 2550.88C764.281 2548.82 763.305 2546.41 762.539 2543.64C761.773 2540.88 761.391 2537.78 761.391 2534.36ZM798.188 2513.88H802.688V2536.96C802.688 2539.52 802.117 2541.66 800.977 2543.36C799.836 2545.06 798.32 2546.34 796.43 2547.2C794.555 2548.05 792.516 2548.47 790.312 2548.47C788 2548.47 785.906 2548.05 784.031 2547.2C782.172 2546.34 780.695 2545.06 779.602 2543.36C778.523 2541.66 777.984 2539.52 777.984 2536.96V2513.88H782.461V2536.96C782.461 2538.74 782.789 2540.21 783.445 2541.37C784.102 2542.52 785.016 2543.38 786.188 2543.95C787.375 2544.51 788.75 2544.79 790.312 2544.79C791.891 2544.79 793.266 2544.51 794.438 2543.95C795.625 2543.38 796.547 2542.52 797.203 2541.37C797.859 2540.21 798.188 2538.74 798.188 2536.96V2513.88ZM827.977 2539.38C827.977 2538.58 827.852 2537.88 827.602 2537.27C827.367 2536.64 826.945 2536.08 826.336 2535.58C825.742 2535.08 824.914 2534.6 823.852 2534.15C822.805 2533.7 821.477 2533.23 819.867 2532.77C818.18 2532.27 816.656 2531.71 815.297 2531.1C813.938 2530.48 812.773 2529.77 811.805 2528.97C810.836 2528.17 810.094 2527.26 809.578 2526.23C809.062 2525.2 808.805 2524.02 808.805 2522.69C808.805 2521.36 809.078 2520.13 809.625 2519.01C810.172 2517.88 810.953 2516.91 811.969 2516.08C813 2515.23 814.227 2514.58 815.648 2514.11C817.07 2513.64 818.656 2513.41 820.406 2513.41C822.969 2513.41 825.141 2513.9 826.922 2514.88C828.719 2515.85 830.086 2517.12 831.023 2518.7C831.961 2520.27 832.43 2521.94 832.43 2523.72H827.93C827.93 2522.44 827.656 2521.3 827.109 2520.32C826.562 2519.32 825.734 2518.54 824.625 2517.98C823.516 2517.4 822.109 2517.11 820.406 2517.11C818.797 2517.11 817.469 2517.35 816.422 2517.84C815.375 2518.32 814.594 2518.98 814.078 2519.8C813.578 2520.63 813.328 2521.58 813.328 2522.64C813.328 2523.36 813.477 2524.02 813.773 2524.61C814.086 2525.19 814.562 2525.73 815.203 2526.23C815.859 2526.73 816.688 2527.19 817.688 2527.61C818.703 2528.03 819.914 2528.44 821.32 2528.83C823.258 2529.38 824.93 2529.98 826.336 2530.66C827.742 2531.33 828.898 2532.09 829.805 2532.93C830.727 2533.76 831.406 2534.7 831.844 2535.77C832.297 2536.81 832.523 2538 832.523 2539.33C832.523 2540.72 832.242 2541.98 831.68 2543.1C831.117 2544.23 830.312 2545.19 829.266 2545.98C828.219 2546.78 826.961 2547.4 825.492 2547.84C824.039 2548.26 822.414 2548.47 820.617 2548.47C819.039 2548.47 817.484 2548.25 815.953 2547.81C814.438 2547.38 813.055 2546.72 811.805 2545.84C810.57 2544.97 809.578 2543.89 808.828 2542.61C808.094 2541.31 807.727 2539.81 807.727 2538.11H812.227C812.227 2539.28 812.453 2540.29 812.906 2541.13C813.359 2541.96 813.977 2542.65 814.758 2543.2C815.555 2543.74 816.453 2544.15 817.453 2544.41C818.469 2544.66 819.523 2544.79 820.617 2544.79C822.195 2544.79 823.531 2544.57 824.625 2544.13C825.719 2543.7 826.547 2543.07 827.109 2542.26C827.688 2541.45 827.977 2540.48 827.977 2539.38ZM847.617 2534.12V2534.36C847.617 2537.78 847.234 2540.88 846.469 2543.64C845.703 2546.41 844.727 2548.82 843.539 2550.88C842.352 2552.96 841.102 2554.68 839.789 2556.04C838.477 2557.41 837.266 2558.41 836.156 2559.02L835.242 2556.39C836.164 2555.69 837.094 2554.7 838.031 2553.44C838.969 2552.19 839.836 2550.64 840.633 2548.8C841.43 2546.97 842.07 2544.86 842.555 2542.47C843.039 2540.06 843.281 2537.38 843.281 2534.41V2534.08C843.281 2531.11 843.023 2528.43 842.508 2526.04C841.992 2523.63 841.32 2521.52 840.492 2519.69C839.68 2517.86 838.805 2516.32 837.867 2515.07C836.945 2513.8 836.07 2512.83 835.242 2512.14L836.156 2509.49C837.266 2510.1 838.477 2511.09 839.789 2512.47C841.102 2513.83 842.352 2515.55 843.539 2517.62C844.727 2519.7 845.703 2522.12 846.469 2524.89C847.234 2527.64 847.617 2530.72 847.617 2534.12Z" fill="black"/>
<rect x="1219" y="2442" width="188" height="176" rx="24" fill="#C7C7C7"/>
<path d="M1354.85 2559.18L1338.45 2542.77C1337.62 2542.12 1336.64 2541.62 1335.66 2541.62H1333.03C1337.46 2535.88 1340.25 2528.66 1340.25 2520.62C1340.25 2501.92 1324.83 2486.5 1306.12 2486.5C1287.26 2486.5 1272 2501.92 1272 2520.62C1272 2539.49 1287.26 2554.75 1306.12 2554.75C1314 2554.75 1321.22 2552.12 1327.12 2547.53V2550.32C1327.12 2551.3 1327.45 2552.29 1328.27 2553.11L1344.52 2569.35C1346.16 2570.99 1348.62 2570.99 1350.09 2569.35L1354.69 2564.76C1356.33 2563.28 1356.33 2560.82 1354.85 2559.18ZM1306.12 2541.62C1294.48 2541.62 1285.12 2532.27 1285.12 2520.62C1285.12 2509.14 1294.48 2499.62 1306.12 2499.62C1317.61 2499.62 1327.12 2509.14 1327.12 2520.62C1327.12 2532.27 1317.61 2541.62 1306.12 2541.62Z" fill="#0780F0"/>
<rect x="30" y="2440" width="188" height="176" rx="24" fill="#C7C7C7"/>
<path d="M80.8066 2500.28L80.2734 2543.14H73.4238L72.8496 2500.28H80.8066ZM72.6035 2556.19C72.6035 2554.96 72.9727 2553.92 73.7109 2553.07C74.4766 2552.22 75.5977 2551.8 77.0742 2551.8C78.5234 2551.8 79.6309 2552.22 80.3965 2553.07C81.1895 2553.92 81.5859 2554.96 81.5859 2556.19C81.5859 2557.36 81.1895 2558.37 80.3965 2559.22C79.6309 2560.07 78.5234 2560.49 77.0742 2560.49C75.5977 2560.49 74.4766 2560.07 73.7109 2559.22C72.9727 2558.37 72.6035 2557.36 72.6035 2556.19ZM95.2441 2560L105.088 2500.28H113.209L103.406 2560H95.2441ZM110.01 2560L119.854 2500.28H128.016L118.172 2560H110.01ZM134.66 2524.85H91.9629V2517.34H134.66V2524.85ZM131.543 2543.18H88.8867V2535.68H131.543V2543.18ZM166.365 2499.95V2560H158.777V2509.43L143.479 2515.01V2508.16L165.176 2499.95H166.365Z" fill="#575757"/>
</svg>
