<svg width="1440" height="2680" viewBox="0 0 1440 2680" fill="none" xmlns="http://www.w3.org/2000/svg">
<rect width="1440" height="2680" fill="#E5E5E5"/>
<rect width="1440" height="2680" fill="white"/>
<path d="M548.208 698.52C543.72 692.448 534.348 687.168 521.808 687.168C508.08 687.168 491.976 694.824 491.976 712.908C491.976 729.804 504.648 735.216 517.056 739.044C528.936 742.74 539.892 746.04 539.892 759.108C539.892 771.12 528.804 777.192 519.168 777.192C509.4 777.192 501.876 772.044 497.784 765.444L489.6 771.516C496.332 780.756 507.684 785.376 519.036 785.376C533.82 785.376 549.528 777.192 549.528 758.448C549.528 739.704 535.008 735.48 521.808 731.124C511.38 727.692 501.48 724.656 501.48 712.776C501.48 700.764 512.172 695.22 521.412 695.22C530.256 695.22 536.724 698.916 540.684 704.592L548.208 698.52ZM578.496 721.224H569.52V783H578.496V721.224ZM580.344 697.464C580.344 693.768 577.176 691.128 574.008 691.128C570.84 691.128 567.672 693.768 567.672 697.464C567.672 701.16 570.84 703.8 574.008 703.8C577.176 703.8 580.344 701.16 580.344 697.464ZM599.22 802.272C606.48 809.928 617.568 814.68 628.92 814.68C656.244 814.68 662.448 795.936 662.448 782.472V721.224H653.472V731.916H653.208C648.324 723.996 638.82 719.64 629.844 719.64C610.572 719.64 597.9 734.028 597.9 751.584C597.9 769.668 610.572 783 629.844 783C638.82 783 648.456 778.512 653.208 770.856H653.472V782.472C653.472 795.804 647.004 806.76 629.316 806.76C619.944 806.76 610.572 801.744 605.688 795.408L599.22 802.272ZM607.404 751.32C607.404 738.384 615.852 727.164 630.768 727.164C644.628 727.164 654.528 738.384 654.528 751.32C654.528 765.576 644.628 775.344 630.768 775.344C615.852 775.344 607.404 764.256 607.404 751.32ZM685.262 721.224C685.658 725.448 685.79 731.52 685.79 734.82V783H694.766V751.32C694.766 734.82 704.006 727.164 713.51 727.164C726.446 727.164 730.274 735.876 730.274 748.812V783H739.25V745.116C739.25 729.804 731.462 719.64 715.754 719.64C707.042 719.64 698.066 724.656 694.634 731.784H694.37C694.37 729.144 694.106 724.524 693.842 721.224H685.262ZM830.469 785.376C858.453 785.376 865.449 763.728 865.449 748.152V689.544H855.945V747.096C855.945 762.144 849.477 776.928 830.469 776.928C811.461 776.928 804.993 762.144 804.993 747.096V689.544H795.489V748.152C795.489 763.728 802.485 785.376 830.469 785.376ZM898.18 772.572H898.576C903.724 780.228 912.964 784.584 921.808 784.584C941.08 784.584 953.752 770.328 953.752 752.112C953.752 733.896 941.08 719.64 921.808 719.64C912.964 719.64 903.724 723.864 898.576 731.916H898.18V721.224H889.204V814.68H898.18V772.572ZM944.248 752.112C944.248 765.84 935.8 776.928 920.884 776.928C907.024 776.928 897.124 766.236 897.124 752.112C897.124 737.988 907.024 727.164 920.884 727.164C935.8 727.164 944.248 738.384 944.248 752.112Z" fill="black"/>
<path d="M315.768 1616H320.952V1592.31H330.024C340.392 1592.31 347.376 1587.78 347.376 1578.63C347.376 1569.49 340.536 1565.02 330.168 1565.02H315.768V1616ZM320.952 1569.49H329.736C337.584 1569.49 342.192 1572.37 342.192 1578.63C342.192 1584.68 337.8 1587.92 329.736 1587.92H320.952V1569.49ZM374.197 1595.34C361.885 1595.34 350.437 1596.27 350.437 1606.64C350.437 1614.13 356.989 1616.86 362.101 1616.86C367.501 1616.86 371.245 1614.99 374.341 1610.53H374.485C374.485 1612.33 374.701 1614.34 374.989 1616H379.381C379.021 1614.13 378.805 1611.03 378.805 1608.44V1593.68C378.805 1585.47 372.973 1581.44 365.701 1581.44C359.941 1581.44 355.189 1583.53 352.453 1586.26L355.189 1589.5C357.565 1587.13 361.237 1585.54 365.197 1585.54C371.029 1585.54 374.197 1588.42 374.197 1594.26V1595.34ZM374.197 1599.15V1601.67C374.197 1607.65 370.309 1612.83 363.397 1612.83C359.581 1612.83 355.477 1611.25 355.477 1606.42C355.477 1600.02 364.765 1599.15 372.757 1599.15H374.197ZM413.09 1587.49C410.93 1583.67 405.962 1581.44 401.282 1581.44C395.162 1581.44 389.258 1584.39 389.258 1591.23C389.258 1597.64 394.946 1599.37 398.906 1600.3C405.314 1601.82 408.842 1603.26 408.842 1606.78C408.842 1611.18 405.098 1612.69 400.922 1612.69C396.962 1612.69 393.29 1610.38 391.562 1607.43L387.674 1610.31C390.77 1614.85 395.882 1616.86 400.994 1616.86C407.186 1616.86 413.666 1614.13 413.666 1606.42C413.666 1601.17 409.922 1598.22 402.002 1596.56C396.458 1595.41 393.938 1593.97 393.938 1590.8C393.938 1587.06 397.538 1585.54 401.066 1585.54C404.81 1585.54 407.906 1587.49 409.346 1590.3L413.09 1587.49ZM445.082 1587.49C442.922 1583.67 437.954 1581.44 433.274 1581.44C427.154 1581.44 421.25 1584.39 421.25 1591.23C421.25 1597.64 426.938 1599.37 430.898 1600.3C437.306 1601.82 440.834 1603.26 440.834 1606.78C440.834 1611.18 437.09 1612.69 432.914 1612.69C428.954 1612.69 425.282 1610.38 423.554 1607.43L419.666 1610.31C422.762 1614.85 427.874 1616.86 432.986 1616.86C439.178 1616.86 445.658 1614.13 445.658 1606.42C445.658 1601.17 441.914 1598.22 433.994 1596.56C428.45 1595.41 425.93 1593.97 425.93 1590.8C425.93 1587.06 429.53 1585.54 433.058 1585.54C436.802 1585.54 439.898 1587.49 441.338 1590.3L445.082 1587.49ZM450.794 1582.3L461.45 1616H466.778L475.634 1588.71H475.778L484.778 1616H490.106L500.762 1582.3H495.578L487.514 1609.66H487.37L478.154 1582.3H473.402L464.33 1609.66H464.186L456.05 1582.3H450.794ZM542.601 1599.15C542.601 1589 535.113 1581.44 524.601 1581.44C514.161 1581.44 506.673 1589 506.673 1599.15C506.673 1609.3 514.161 1616.86 524.601 1616.86C535.113 1616.86 542.601 1609.3 542.601 1599.15ZM537.417 1599.15C537.417 1606.71 532.449 1612.69 524.601 1612.69C516.825 1612.69 511.857 1606.71 511.857 1599.15C511.857 1591.59 516.825 1585.54 524.601 1585.54C532.449 1585.54 537.417 1591.59 537.417 1599.15ZM553.136 1589.72V1616H558.032V1598.72C558.032 1589.72 562.712 1585.98 567.896 1585.98C569.192 1585.98 570.776 1586.19 571.352 1586.41L572 1581.8C570.992 1581.51 569.984 1581.44 568.76 1581.44C564.008 1581.44 559.832 1584.18 557.96 1588.06H557.816C557.816 1586.62 557.672 1584.1 557.528 1582.3H552.848C553.064 1584.61 553.136 1587.92 553.136 1589.72ZM605.536 1610.31H605.68V1616H610.576V1561.57H605.68V1588.14H605.536C602.656 1583.74 597.616 1581.44 592.792 1581.44C582.28 1581.44 575.368 1589.22 575.368 1599.15C575.368 1609.09 582.28 1616.86 592.792 1616.86C597.616 1616.86 602.656 1614.56 605.536 1610.31ZM580.552 1599.15C580.552 1591.66 585.16 1585.54 593.296 1585.54C600.856 1585.54 606.256 1591.45 606.256 1599.15C606.256 1606.86 600.856 1612.69 593.296 1612.69C585.16 1612.69 580.552 1606.64 580.552 1599.15Z" fill="#A7A7A7"/>
<line x1="309" y1="1663.5" x2="1130" y2="1663.5" stroke="black"/>
<path d="M355.648 1909.2C352.12 1914.46 346.504 1916.76 340.672 1916.76C327.568 1916.76 319.504 1906.39 319.504 1894.51C319.504 1882.63 327.496 1872.26 340.672 1872.26C347.152 1872.26 352.264 1875.65 354.424 1878.96L358.744 1875.79C355.216 1870.82 348.088 1867.73 340.6 1867.73C325.408 1867.73 314.032 1879.03 314.032 1894.51C314.032 1909.99 325.192 1921.3 340.6 1921.3C349.744 1921.3 356.296 1916.9 359.68 1911.79L355.648 1909.2ZM400.937 1903.15C400.937 1893 393.449 1885.44 382.937 1885.44C372.497 1885.44 365.009 1893 365.009 1903.15C365.009 1913.3 372.497 1920.86 382.937 1920.86C393.449 1920.86 400.937 1913.3 400.937 1903.15ZM395.753 1903.15C395.753 1910.71 390.785 1916.69 382.937 1916.69C375.161 1916.69 370.193 1910.71 370.193 1903.15C370.193 1895.59 375.161 1889.54 382.937 1889.54C390.785 1889.54 395.753 1895.59 395.753 1903.15ZM411.184 1886.3C411.4 1888.61 411.472 1891.92 411.472 1893.72V1920H416.368V1902.72C416.368 1893.72 421.408 1889.54 426.592 1889.54C433.648 1889.54 435.736 1894.3 435.736 1901.35V1920H440.632V1899.34C440.632 1890.98 436.384 1885.44 427.816 1885.44C423.064 1885.44 418.168 1888.18 416.296 1892.06H416.152C416.152 1890.62 416.008 1888.1 415.864 1886.3H411.184ZM479.372 1886.3H474.476V1920H479.372V1886.3ZM480.452 1873.34C480.452 1871.33 478.724 1869.89 476.996 1869.89C475.268 1869.89 473.54 1871.33 473.54 1873.34C473.54 1875.36 475.268 1876.8 476.996 1876.8C478.724 1876.8 480.452 1875.36 480.452 1873.34ZM467.564 1886.3H459.644V1877.66C459.644 1872.77 460.724 1869.02 465.98 1869.02C467.276 1869.02 468.356 1869.24 469.364 1869.53L470.228 1865.21C469.004 1864.85 467.42 1864.7 466.196 1864.7C458.492 1864.7 454.748 1869.46 454.748 1877.09V1886.3H447.692V1890.41H454.748V1920H459.644V1890.41H467.564V1886.3ZM492.472 1893.72V1920H497.368V1902.72C497.368 1893.72 502.048 1889.98 507.232 1889.98C508.528 1889.98 510.112 1890.19 510.688 1890.41L511.336 1885.8C510.328 1885.51 509.32 1885.44 508.096 1885.44C503.344 1885.44 499.168 1888.18 497.296 1892.06H497.152C497.152 1890.62 497.008 1888.1 496.864 1886.3H492.184C492.4 1888.61 492.472 1891.92 492.472 1893.72ZM523.242 1892.06H523.098C523.098 1890.62 522.954 1888.1 522.81 1886.3H518.13C518.346 1888.61 518.418 1891.92 518.418 1893.72V1920H523.314V1902.72C523.314 1893.72 528.426 1889.54 533.105 1889.54C539.658 1889.54 541.242 1893.79 541.242 1900.34V1920H546.138V1902.07C546.138 1895.81 548.658 1889.54 555.714 1889.54C562.05 1889.54 564.426 1894.3 564.426 1901.35V1920H569.322V1899.34C569.322 1890.98 565.074 1885.44 556.506 1885.44C551.106 1885.44 547.002 1887.96 544.698 1892.57C542.466 1886.81 538.002 1885.44 534.33 1885.44C529.506 1885.44 525.186 1888.18 523.242 1892.06ZM600.268 1920H605.452V1896.31H614.524C624.892 1896.31 631.876 1891.78 631.876 1882.63C631.876 1873.49 625.036 1869.02 614.668 1869.02H600.268V1920ZM605.452 1873.49H614.236C622.084 1873.49 626.692 1876.37 626.692 1882.63C626.692 1888.68 622.3 1891.92 614.236 1891.92H605.452V1873.49ZM658.697 1899.34C646.385 1899.34 634.937 1900.27 634.937 1910.64C634.937 1918.13 641.489 1920.86 646.601 1920.86C652.001 1920.86 655.745 1918.99 658.841 1914.53H658.985C658.985 1916.33 659.201 1918.34 659.489 1920H663.881C663.521 1918.13 663.305 1915.03 663.305 1912.44V1897.68C663.305 1889.47 657.473 1885.44 650.201 1885.44C644.441 1885.44 639.689 1887.53 636.953 1890.26L639.689 1893.5C642.065 1891.13 645.737 1889.54 649.697 1889.54C655.529 1889.54 658.697 1892.42 658.697 1898.26V1899.34ZM658.697 1903.15V1905.67C658.697 1911.65 654.809 1916.83 647.897 1916.83C644.081 1916.83 639.977 1915.25 639.977 1910.42C639.977 1904.02 649.265 1903.15 657.257 1903.15H658.697ZM697.59 1891.49C695.43 1887.67 690.462 1885.44 685.782 1885.44C679.662 1885.44 673.758 1888.39 673.758 1895.23C673.758 1901.64 679.446 1903.37 683.406 1904.3C689.814 1905.82 693.342 1907.26 693.342 1910.78C693.342 1915.18 689.598 1916.69 685.422 1916.69C681.462 1916.69 677.79 1914.38 676.062 1911.43L672.174 1914.31C675.27 1918.85 680.382 1920.86 685.494 1920.86C691.686 1920.86 698.166 1918.13 698.166 1910.42C698.166 1905.17 694.422 1902.22 686.502 1900.56C680.958 1899.41 678.438 1897.97 678.438 1894.8C678.438 1891.06 682.038 1889.54 685.566 1889.54C689.31 1889.54 692.406 1891.49 693.846 1894.3L697.59 1891.49ZM729.582 1891.49C727.422 1887.67 722.454 1885.44 717.774 1885.44C711.654 1885.44 705.75 1888.39 705.75 1895.23C705.75 1901.64 711.438 1903.37 715.398 1904.3C721.806 1905.82 725.334 1907.26 725.334 1910.78C725.334 1915.18 721.59 1916.69 717.414 1916.69C713.454 1916.69 709.782 1914.38 708.054 1911.43L704.166 1914.31C707.262 1918.85 712.374 1920.86 717.486 1920.86C723.678 1920.86 730.158 1918.13 730.158 1910.42C730.158 1905.17 726.414 1902.22 718.494 1900.56C712.95 1899.41 710.43 1897.97 710.43 1894.8C710.43 1891.06 714.03 1889.54 717.558 1889.54C721.302 1889.54 724.398 1891.49 725.838 1894.3L729.582 1891.49ZM735.294 1886.3L745.95 1920H751.278L760.134 1892.71H760.278L769.278 1920H774.606L785.262 1886.3H780.078L772.014 1913.66H771.87L762.654 1886.3H757.902L748.83 1913.66H748.686L740.55 1886.3H735.294ZM827.101 1903.15C827.101 1893 819.613 1885.44 809.101 1885.44C798.661 1885.44 791.173 1893 791.173 1903.15C791.173 1913.3 798.661 1920.86 809.101 1920.86C819.613 1920.86 827.101 1913.3 827.101 1903.15ZM821.917 1903.15C821.917 1910.71 816.949 1916.69 809.101 1916.69C801.325 1916.69 796.357 1910.71 796.357 1903.15C796.357 1895.59 801.325 1889.54 809.101 1889.54C816.949 1889.54 821.917 1895.59 821.917 1903.15ZM837.636 1893.72V1920H842.532V1902.72C842.532 1893.72 847.212 1889.98 852.396 1889.98C853.692 1889.98 855.276 1890.19 855.852 1890.41L856.5 1885.8C855.492 1885.51 854.484 1885.44 853.26 1885.44C848.508 1885.44 844.332 1888.18 842.46 1892.06H842.316C842.316 1890.62 842.172 1888.1 842.028 1886.3H837.348C837.564 1888.61 837.636 1891.92 837.636 1893.72ZM890.036 1914.31H890.18V1920H895.076V1865.57H890.18V1892.14H890.036C887.156 1887.74 882.116 1885.44 877.292 1885.44C866.78 1885.44 859.868 1893.22 859.868 1903.15C859.868 1913.09 866.78 1920.86 877.292 1920.86C882.116 1920.86 887.156 1918.56 890.036 1914.31ZM865.052 1903.15C865.052 1895.66 869.66 1889.54 877.796 1889.54C885.356 1889.54 890.756 1895.45 890.756 1903.15C890.756 1910.86 885.356 1916.69 877.796 1916.69C869.66 1916.69 865.052 1910.64 865.052 1903.15Z" fill="#A7A7A7"/>
<line x1="310" y1="1967.5" x2="1131" y2="1967.5" stroke="black"/>
<path d="M321.952 1346.74H346.648V1342.2H321.952V1324.63H348.376V1320.02H316.768V1371H349.24V1366.39H321.952V1346.74ZM363.913 1343.06H363.769C363.769 1341.62 363.625 1339.1 363.481 1337.3H358.801C359.017 1339.61 359.089 1342.92 359.089 1344.72V1371H363.985V1353.72C363.985 1344.72 369.097 1340.54 373.777 1340.54C380.329 1340.54 381.913 1344.79 381.913 1351.34V1371H386.809V1353.07C386.809 1346.81 389.329 1340.54 396.385 1340.54C402.721 1340.54 405.097 1345.3 405.097 1352.35V1371H409.993V1350.34C409.993 1341.98 405.745 1336.44 397.177 1336.44C391.777 1336.44 387.673 1338.96 385.369 1343.57C383.137 1337.81 378.673 1336.44 375.001 1336.44C370.177 1336.44 365.857 1339.18 363.913 1343.06ZM443.892 1350.34C431.58 1350.34 420.132 1351.27 420.132 1361.64C420.132 1369.13 426.684 1371.86 431.796 1371.86C437.196 1371.86 440.94 1369.99 444.036 1365.53H444.18C444.18 1367.33 444.396 1369.34 444.684 1371H449.076C448.716 1369.13 448.5 1366.03 448.5 1363.44V1348.68C448.5 1340.47 442.668 1336.44 435.396 1336.44C429.636 1336.44 424.884 1338.53 422.148 1341.26L424.884 1344.5C427.26 1342.13 430.932 1340.54 434.892 1340.54C440.724 1340.54 443.892 1343.42 443.892 1349.26V1350.34ZM443.892 1354.15V1356.67C443.892 1362.65 440.004 1367.83 433.092 1367.83C429.276 1367.83 425.172 1366.25 425.172 1361.42C425.172 1355.02 434.46 1354.15 442.452 1354.15H443.892ZM466.081 1337.3H461.185V1371H466.081V1337.3ZM467.089 1324.34C467.089 1322.33 465.361 1320.89 463.633 1320.89C461.905 1320.89 460.177 1322.33 460.177 1324.34C460.177 1326.36 461.905 1327.8 463.633 1327.8C465.361 1327.8 467.089 1326.36 467.089 1324.34ZM484.153 1316.57H479.257V1371H484.153V1316.57Z" fill="#A7A7A7"/>
<line x1="310" y1="1414.5" x2="1131" y2="1414.5" stroke="black"/>
<path d="M334.56 1091.3C349.824 1091.3 353.64 1079.49 353.64 1070.99V1039.02H348.456V1070.42C348.456 1078.62 344.928 1086.69 334.56 1086.69C324.192 1086.69 320.664 1078.62 320.664 1070.42V1039.02H315.48V1070.99C315.48 1079.49 319.296 1091.3 334.56 1091.3ZM388.269 1061.49C386.109 1057.67 381.141 1055.44 376.461 1055.44C370.341 1055.44 364.437 1058.39 364.437 1065.23C364.437 1071.64 370.125 1073.37 374.085 1074.3C380.493 1075.82 384.021 1077.26 384.021 1080.78C384.021 1085.18 380.277 1086.69 376.101 1086.69C372.141 1086.69 368.469 1084.38 366.741 1081.43L362.853 1084.31C365.949 1088.85 371.061 1090.86 376.173 1090.86C382.365 1090.86 388.845 1088.13 388.845 1080.42C388.845 1075.17 385.101 1072.22 377.181 1070.56C371.637 1069.41 369.117 1067.97 369.117 1064.8C369.117 1061.06 372.717 1059.54 376.245 1059.54C379.989 1059.54 383.085 1061.49 384.525 1064.3L388.269 1061.49ZM401.325 1070.56C401.757 1064.8 406.581 1059.54 413.133 1059.54C420.117 1059.54 424.005 1064.22 424.293 1070.56H401.325ZM429.261 1072.14C429.261 1062.93 423.717 1055.44 413.133 1055.44C403.557 1055.44 396.141 1063 396.141 1073.15C396.141 1083.3 403.557 1090.86 413.565 1090.86C419.109 1090.86 424.077 1088.78 428.037 1083.74L424.365 1080.86C422.493 1083.88 418.605 1086.69 413.565 1086.69C406.653 1086.69 401.397 1081.22 401.253 1074.45H429.189C429.261 1073.58 429.261 1072.79 429.261 1072.14ZM439.793 1063.72V1090H444.689V1072.72C444.689 1063.72 449.369 1059.98 454.553 1059.98C455.849 1059.98 457.433 1060.19 458.009 1060.41L458.657 1055.8C457.649 1055.51 456.641 1055.44 455.417 1055.44C450.665 1055.44 446.489 1058.18 444.617 1062.06H444.473C444.473 1060.62 444.329 1058.1 444.185 1056.3H439.505C439.721 1058.61 439.793 1061.92 439.793 1063.72ZM465.45 1056.3C465.666 1058.61 465.738 1061.92 465.738 1063.72V1090H470.634V1072.72C470.634 1063.72 475.674 1059.54 480.858 1059.54C487.914 1059.54 490.002 1064.3 490.002 1071.35V1090H494.898V1069.34C494.898 1060.98 490.65 1055.44 482.082 1055.44C477.33 1055.44 472.434 1058.18 470.562 1062.06H470.418C470.418 1060.62 470.274 1058.1 470.13 1056.3H465.45ZM528.814 1069.34C516.502 1069.34 505.054 1070.27 505.054 1080.64C505.054 1088.13 511.606 1090.86 516.718 1090.86C522.118 1090.86 525.862 1088.99 528.958 1084.53H529.102C529.102 1086.33 529.318 1088.34 529.606 1090H533.998C533.638 1088.13 533.422 1085.03 533.422 1082.44V1067.68C533.422 1059.47 527.59 1055.44 520.318 1055.44C514.558 1055.44 509.806 1057.53 507.07 1060.26L509.806 1063.5C512.182 1061.13 515.854 1059.54 519.814 1059.54C525.646 1059.54 528.814 1062.42 528.814 1068.26V1069.34ZM528.814 1073.15V1075.67C528.814 1081.65 524.926 1086.83 518.014 1086.83C514.198 1086.83 510.094 1085.25 510.094 1080.42C510.094 1074.02 519.382 1073.15 527.374 1073.15H528.814ZM550.859 1062.06H550.715C550.715 1060.62 550.571 1058.1 550.427 1056.3H545.747C545.963 1058.61 546.035 1061.92 546.035 1063.72V1090H550.931V1072.72C550.931 1063.72 556.043 1059.54 560.723 1059.54C567.275 1059.54 568.859 1063.79 568.859 1070.34V1090H573.755V1072.07C573.755 1065.81 576.275 1059.54 583.331 1059.54C589.667 1059.54 592.043 1064.3 592.043 1071.35V1090H596.939V1069.34C596.939 1060.98 592.691 1055.44 584.123 1055.44C578.723 1055.44 574.619 1057.96 572.315 1062.57C570.083 1056.81 565.619 1055.44 561.947 1055.44C557.123 1055.44 552.803 1058.18 550.859 1062.06ZM612.333 1070.56C612.765 1064.8 617.589 1059.54 624.141 1059.54C631.125 1059.54 635.013 1064.22 635.301 1070.56H612.333ZM640.269 1072.14C640.269 1062.93 634.725 1055.44 624.141 1055.44C614.565 1055.44 607.149 1063 607.149 1073.15C607.149 1083.3 614.565 1090.86 624.573 1090.86C630.117 1090.86 635.085 1088.78 639.045 1083.74L635.373 1080.86C633.501 1083.88 629.613 1086.69 624.573 1086.69C617.661 1086.69 612.405 1081.22 612.261 1074.45H640.197C640.269 1073.58 640.269 1072.79 640.269 1072.14Z" fill="#A7A7A7"/>
<line x1="309" y1="1133.5" x2="1130" y2="1133.5" stroke="black"/>
<rect x="282" y="2164" width="874" height="194" rx="97" fill="#D9D9D9"/>
<path d="M624.628 2238.32C622.52 2235.47 618.118 2232.99 612.228 2232.99C605.78 2232.99 598.216 2236.58 598.216 2245.08C598.216 2253.01 604.168 2255.56 609.996 2257.35C615.576 2259.09 620.722 2260.64 620.722 2266.78C620.722 2272.42 615.514 2275.27 610.988 2275.27C606.4 2275.27 602.866 2272.85 600.944 2269.75L597.1 2272.61C600.262 2276.95 605.594 2279.12 610.926 2279.12C617.87 2279.12 625.248 2275.27 625.248 2266.47C625.248 2257.66 618.428 2255.68 612.228 2253.63C607.33 2252.02 602.68 2250.6 602.68 2245.02C602.68 2239.37 607.702 2236.77 612.042 2236.77C616.196 2236.77 619.234 2238.51 621.094 2241.17L624.628 2238.32ZM639.288 2234.1H634.824V2278H639.288V2234.1ZM687.324 2238.88C683.604 2235.22 678.396 2232.99 671.452 2232.99C658.37 2232.99 648.574 2242.72 648.574 2256.05C648.574 2269.38 658.184 2279.12 671.452 2279.12C677.404 2279.12 683.046 2277.69 687.82 2274.84V2255.06H673.126V2258.97H683.356V2272.3C680.814 2273.97 676.474 2275.15 671.514 2275.15C660.23 2275.15 653.286 2266.28 653.286 2256.05C653.286 2245.82 660.23 2236.89 671.514 2236.89C676.97 2236.89 681.186 2238.75 684.224 2241.98L687.324 2238.88ZM704.826 2234.1H699.246V2278H703.71V2240.24H703.834L729.378 2278H734.958V2234.1H730.494V2271.49H730.37L704.826 2234.1ZM778.276 2279.12C791.42 2279.12 794.706 2268.95 794.706 2261.63V2234.1H790.242V2261.14C790.242 2268.2 787.204 2275.15 778.276 2275.15C769.348 2275.15 766.31 2268.2 766.31 2261.14V2234.1H761.846V2261.63C761.846 2268.95 765.132 2279.12 778.276 2279.12ZM806.111 2278H810.575V2257.6H818.387C827.315 2257.6 833.329 2253.7 833.329 2245.82C833.329 2237.95 827.439 2234.1 818.511 2234.1H806.111V2278ZM810.575 2237.95H818.139C824.897 2237.95 828.865 2240.43 828.865 2245.82C828.865 2251.03 825.083 2253.82 818.139 2253.82H810.575V2237.95Z" fill="black"/>
<path d="M624.628 2238.32L625.256 2239.1L626.002 2238.5L625.432 2237.73L624.628 2238.32ZM609.996 2257.35L610.293 2256.4L610.291 2256.4L609.996 2257.35ZM600.944 2269.75L601.794 2269.23L601.221 2268.3L600.348 2268.95L600.944 2269.75ZM597.1 2272.61L596.504 2271.8L595.708 2272.39L596.292 2273.19L597.1 2272.61ZM612.228 2253.63L612.541 2252.68L612.541 2252.68L612.228 2253.63ZM621.094 2241.17L620.274 2241.74L620.887 2242.62L621.722 2241.95L621.094 2241.17ZM625.432 2237.73C623.108 2234.58 618.386 2231.99 612.228 2231.99V2233.99C617.85 2233.99 621.932 2236.35 623.824 2238.91L625.432 2237.73ZM612.228 2231.99C608.839 2231.99 605.118 2232.93 602.216 2235.04C599.279 2237.17 597.216 2240.49 597.216 2245.08H599.216C599.216 2241.17 600.935 2238.44 603.392 2236.66C605.884 2234.84 609.169 2233.99 612.228 2233.99V2231.99ZM597.216 2245.08C597.216 2249.34 598.837 2252.24 601.279 2254.29C603.663 2256.28 606.781 2257.41 609.701 2258.31L610.291 2256.4C607.383 2255.5 604.611 2254.46 602.562 2252.75C600.571 2251.09 599.216 2248.75 599.216 2245.08H597.216ZM609.699 2258.31C612.537 2259.19 615.051 2259.97 616.883 2261.24C617.777 2261.86 618.475 2262.57 618.955 2263.44C619.432 2264.31 619.722 2265.39 619.722 2266.78H621.722C621.722 2265.1 621.368 2263.68 620.707 2262.48C620.047 2261.28 619.11 2260.35 618.02 2259.59C615.884 2258.12 613.035 2257.25 610.293 2256.4L609.699 2258.31ZM619.722 2266.78C619.722 2269.25 618.596 2271.09 616.948 2272.34C615.274 2273.62 613.059 2274.27 610.988 2274.27V2276.27C613.443 2276.27 616.095 2275.5 618.157 2273.94C620.244 2272.35 621.722 2269.95 621.722 2266.78H619.722ZM610.988 2274.27C606.778 2274.27 603.551 2272.06 601.794 2269.23L600.094 2270.28C602.181 2273.65 606.022 2276.27 610.988 2276.27V2274.27ZM600.348 2268.95L596.504 2271.8L597.696 2273.41L601.54 2270.56L600.348 2268.95ZM596.292 2273.19C599.68 2277.85 605.345 2280.12 610.926 2280.12V2278.12C605.843 2278.12 600.844 2276.05 597.908 2272.02L596.292 2273.19ZM610.926 2280.12C614.565 2280.12 618.373 2279.11 621.296 2276.89C624.253 2274.64 626.248 2271.19 626.248 2266.47H624.248C624.248 2270.55 622.554 2273.42 620.086 2275.3C617.584 2277.2 614.231 2278.12 610.926 2278.12V2280.12ZM626.248 2266.47C626.248 2261.75 624.39 2258.75 621.661 2256.72C619.022 2254.74 615.585 2253.69 612.541 2252.68L611.915 2254.58C615.071 2255.63 618.144 2256.58 620.465 2258.32C622.696 2259.98 624.248 2262.39 624.248 2266.47H626.248ZM612.541 2252.68C610.04 2251.86 607.82 2251.15 606.195 2250C604.66 2248.91 603.68 2247.45 603.68 2245.02H601.68C601.68 2248.16 603.025 2250.2 605.04 2251.63C606.964 2252.99 609.518 2253.79 611.915 2254.58L612.541 2252.68ZM603.68 2245.02C603.68 2242.53 604.768 2240.76 606.336 2239.58C607.933 2238.37 610.053 2237.77 612.042 2237.77V2235.77C609.691 2235.77 607.13 2236.47 605.131 2237.98C603.103 2239.51 601.68 2241.86 601.68 2245.02H603.68ZM612.042 2237.77C615.886 2237.77 618.61 2239.36 620.274 2241.74L621.914 2240.6C619.858 2237.65 616.506 2235.77 612.042 2235.77V2237.77ZM621.722 2241.95L625.256 2239.1L624 2237.54L620.466 2240.39L621.722 2241.95ZM639.288 2234.1H640.288V2233.1H639.288V2234.1ZM634.824 2234.1V2233.1H633.824V2234.1H634.824ZM634.824 2278H633.824V2279H634.824V2278ZM639.288 2278V2279H640.288V2278H639.288ZM639.288 2233.1H634.824V2235.1H639.288V2233.1ZM633.824 2234.1V2278H635.824V2234.1H633.824ZM634.824 2279H639.288V2277H634.824V2279ZM640.288 2278V2234.1H638.288V2278H640.288ZM687.324 2238.88L688.031 2239.59L688.744 2238.87L688.025 2238.16L687.324 2238.88ZM687.82 2274.84L688.332 2275.7L688.82 2275.41V2274.84H687.82ZM687.82 2255.06H688.82V2254.06H687.82V2255.06ZM673.126 2255.06V2254.06H672.126V2255.06H673.126ZM673.126 2258.97H672.126V2259.97H673.126V2258.97ZM683.356 2258.97H684.356V2257.97H683.356V2258.97ZM683.356 2272.3L683.906 2273.13L684.356 2272.83V2272.3H683.356ZM684.224 2241.98L683.496 2242.66L684.202 2243.41L684.931 2242.69L684.224 2241.98ZM688.025 2238.16C684.097 2234.3 678.627 2231.99 671.452 2231.99V2233.99C678.164 2233.99 683.11 2236.14 686.622 2239.59L688.025 2238.16ZM671.452 2231.99C657.814 2231.99 647.574 2242.17 647.574 2256.05H649.574C649.574 2243.27 658.925 2233.99 671.452 2233.99V2231.99ZM647.574 2256.05C647.574 2269.93 657.622 2280.12 671.452 2280.12V2278.12C658.745 2278.12 649.574 2268.84 649.574 2256.05H647.574ZM671.452 2280.12C677.562 2280.12 683.385 2278.65 688.332 2275.7L687.307 2273.98C682.706 2276.73 677.245 2278.12 671.452 2278.12V2280.12ZM688.82 2274.84V2255.06H686.82V2274.84H688.82ZM687.82 2254.06H673.126V2256.06H687.82V2254.06ZM672.126 2255.06V2258.97H674.126V2255.06H672.126ZM673.126 2259.97H683.356V2257.97H673.126V2259.97ZM682.356 2258.97V2272.3H684.356V2258.97H682.356ZM682.806 2271.46C680.477 2272.99 676.349 2274.15 671.514 2274.15V2276.15C676.598 2276.15 681.15 2274.95 683.906 2273.13L682.806 2271.46ZM671.514 2274.15C660.878 2274.15 654.286 2265.83 654.286 2256.05H652.286C652.286 2266.73 659.581 2276.15 671.514 2276.15V2274.15ZM654.286 2256.05C654.286 2246.27 660.882 2237.89 671.514 2237.89V2235.89C659.577 2235.89 652.286 2245.38 652.286 2256.05H654.286ZM671.514 2237.89C676.721 2237.89 680.664 2239.66 683.496 2242.66L684.951 2241.29C681.707 2237.85 677.218 2235.89 671.514 2235.89V2237.89ZM684.931 2242.69L688.031 2239.59L686.616 2238.17L683.516 2241.27L684.931 2242.69ZM704.826 2234.1L705.652 2233.54L705.354 2233.1H704.826V2234.1ZM699.246 2234.1V2233.1H698.246V2234.1H699.246ZM699.246 2278H698.246V2279H699.246V2278ZM703.71 2278V2279H704.71V2278H703.71ZM703.71 2240.24V2239.24H702.71V2240.24H703.71ZM703.834 2240.24L704.662 2239.68L704.365 2239.24H703.834V2240.24ZM729.378 2278L728.55 2278.56L728.847 2279H729.378V2278ZM734.958 2278V2279H735.958V2278H734.958ZM734.958 2234.1H735.958V2233.1H734.958V2234.1ZM730.494 2234.1V2233.1H729.494V2234.1H730.494ZM730.494 2271.49V2272.49H731.494V2271.49H730.494ZM730.37 2271.49L729.544 2272.05L729.842 2272.49H730.37V2271.49ZM704.826 2233.1H699.246V2235.1H704.826V2233.1ZM698.246 2234.1V2278H700.246V2234.1H698.246ZM699.246 2279H703.71V2277H699.246V2279ZM704.71 2278V2240.24H702.71V2278H704.71ZM703.71 2241.24H703.834V2239.24H703.71V2241.24ZM703.006 2240.8L728.55 2278.56L730.206 2277.44L704.662 2239.68L703.006 2240.8ZM729.378 2279H734.958V2277H729.378V2279ZM735.958 2278V2234.1H733.958V2278H735.958ZM734.958 2233.1H730.494V2235.1H734.958V2233.1ZM729.494 2234.1V2271.49H731.494V2234.1H729.494ZM730.494 2270.49H730.37V2272.49H730.494V2270.49ZM731.196 2270.93L705.652 2233.54L704 2234.67L729.544 2272.05L731.196 2270.93ZM794.706 2234.1H795.706V2233.1H794.706V2234.1ZM790.242 2234.1V2233.1H789.242V2234.1H790.242ZM766.31 2234.1H767.31V2233.1H766.31V2234.1ZM761.846 2234.1V2233.1H760.846V2234.1H761.846ZM778.276 2280.12C785.146 2280.12 789.568 2277.44 792.234 2273.7C794.861 2270.01 795.706 2265.41 795.706 2261.63H793.706C793.706 2265.17 792.907 2269.31 790.605 2272.54C788.342 2275.71 784.549 2278.12 778.276 2278.12V2280.12ZM795.706 2261.63V2234.1H793.706V2261.63H795.706ZM794.706 2233.1H790.242V2235.1H794.706V2233.1ZM789.242 2234.1V2261.14H791.242V2234.1H789.242ZM789.242 2261.14C789.242 2264.55 788.504 2267.82 786.794 2270.21C785.119 2272.55 782.441 2274.15 778.276 2274.15V2276.15C783.038 2276.15 786.343 2274.28 788.42 2271.37C790.46 2268.53 791.242 2264.79 791.242 2261.14H789.242ZM778.276 2274.15C774.11 2274.15 771.432 2272.55 769.758 2270.21C768.047 2267.82 767.31 2264.55 767.31 2261.14H765.31C765.31 2264.79 766.091 2268.53 768.132 2271.37C770.208 2274.28 773.513 2276.15 778.276 2276.15V2274.15ZM767.31 2261.14V2234.1H765.31V2261.14H767.31ZM766.31 2233.1H761.846V2235.1H766.31V2233.1ZM760.846 2234.1V2261.63H762.846V2234.1H760.846ZM760.846 2261.63C760.846 2265.41 761.69 2270.01 764.317 2273.7C766.983 2277.44 771.405 2280.12 778.276 2280.12V2278.12C772.002 2278.12 768.209 2275.71 765.946 2272.54C763.644 2269.31 762.846 2265.17 762.846 2261.63H760.846ZM806.111 2278H805.111V2279H806.111V2278ZM810.575 2278V2279H811.575V2278H810.575ZM810.575 2257.6V2256.6H809.575V2257.6H810.575ZM806.111 2234.1V2233.1H805.111V2234.1H806.111ZM810.575 2237.95V2236.95H809.575V2237.95H810.575ZM810.575 2253.82H809.575V2254.82H810.575V2253.82ZM806.111 2279H810.575V2277H806.111V2279ZM811.575 2278V2257.6H809.575V2278H811.575ZM810.575 2258.6H818.387V2256.6H810.575V2258.6ZM818.387 2258.6C822.978 2258.6 826.953 2257.6 829.805 2255.47C832.699 2253.3 834.329 2250.05 834.329 2245.82H832.329C832.329 2249.47 830.952 2252.11 828.607 2253.86C826.22 2255.65 822.725 2256.6 818.387 2256.6V2258.6ZM834.329 2245.82C834.329 2241.61 832.735 2238.36 829.869 2236.21C827.045 2234.09 823.098 2233.1 818.511 2233.1V2235.1C822.852 2235.1 826.314 2236.04 828.667 2237.81C830.978 2239.55 832.329 2242.16 832.329 2245.82H834.329ZM818.511 2233.1H806.111V2235.1H818.511V2233.1ZM805.111 2234.1V2278H807.111V2234.1H805.111ZM810.575 2238.95H818.139V2236.95H810.575V2238.95ZM818.139 2238.95C821.424 2238.95 823.865 2239.56 825.46 2240.68C826.996 2241.76 827.865 2243.4 827.865 2245.82H829.865C829.865 2242.85 828.75 2240.55 826.612 2239.04C824.534 2237.58 821.613 2236.95 818.139 2236.95V2238.95ZM827.865 2245.82C827.865 2248.16 827.035 2249.84 825.51 2250.97C823.937 2252.14 821.501 2252.82 818.139 2252.82V2254.82C821.722 2254.82 824.649 2254.1 826.703 2252.58C828.805 2251.01 829.865 2248.7 829.865 2245.82H827.865ZM818.139 2252.82H810.575V2254.82H818.139V2252.82ZM811.575 2253.82V2237.95H809.575V2253.82H811.575Z" fill="black"/>
<line x1="144" y1="116" x2="85" y2="116" stroke="black" stroke-width="8"/>
<line x1="113.924" y1="145.828" x2="81.8482" y2="113.753" stroke="black" stroke-width="8"/>
<line x1="113.903" y1="86.8284" x2="81.8284" y2="118.903" stroke="black" stroke-width="8"/>
</svg>
